<svg width="1440" height="1024" viewBox="0 0 1440 1024" fill="none" xmlns="http://www.w3.org/2000/svg">
<g clip-path="url(#clip0)">
<path d="M344.735 983.342C335.999 990.672 332.98 987.073 331.5 985.31C330.019 983.546 328.532 978.662 335.736 972.617C341.767 967.557 499.168 845.168 550.274 805.44C550.788 805.041 551.396 805.784 550.903 806.208C501.836 848.398 350.73 978.311 344.735 983.342Z" fill="url(#paint0_linear)"/>
<path d="M606.428 712.363C582.5 732.441 580.893 730.526 580.25 729.76C579.607 728.994 578 727.078 601.928 707C620.177 691.688 931.413 434.55 1078.14 313.34C1078.65 312.918 1079.29 313.669 1078.78 314.096C932.156 437.744 619.843 701.106 606.428 712.363Z" fill="url(#paint1_linear)"/>
<path d="M913.161 48.436C930.366 33.9998 931.973 35.9149 932.616 36.681C933.258 37.447 934.865 39.3621 917.661 53.7983C904.54 64.8079 680.204 249.029 574.444 335.864C573.932 336.284 573.297 335.532 573.803 335.105C679.142 246.101 903.516 56.5295 913.161 48.436Z" fill="url(#paint2_linear)"/>
<path d="M977.87 271.559C987.229 263.707 998.765 261.69 1001.87 264.929C1004.97 268.167 998.154 279.289 990.117 286.154C983.185 292.075 756.049 468.598 693.687 517.054C693.173 517.453 692.568 516.714 693.061 516.29C752.768 464.947 969.802 278.329 977.87 271.559Z" fill="url(#paint3_linear)"/>
<path d="M1377.34 452.165C1386.34 445.165 1392.44 448.124 1394.21 450.144C1395.99 452.165 1396.84 457.21 1387.84 465.165C1380.14 471.972 1307.6 520.052 1286.85 533.772C1286.33 534.113 1285.79 533.41 1286.25 532.996C1304.77 516.356 1369.64 458.157 1377.34 452.165Z" fill="url(#paint4_linear)"/>
<path d="M1031.21 552.207C1001.52 576.663 996.411 573.993 995.411 573C994.411 572.007 992.173 567.109 1023.06 540.855C1049.02 518.791 1270.2 343.477 1340.12 288.091C1340.64 287.684 1341.24 288.437 1340.74 288.862C1272.57 347.041 1056.18 531.639 1031.21 552.207Z" fill="url(#paint5_linear)"/>
<path d="M792.956 498.242C822.65 473.787 827.754 476.457 828.754 477.449C829.754 478.442 831.992 483.34 801.104 509.594C775.145 531.659 553.965 706.972 484.041 762.358C483.528 762.765 482.924 762.012 483.422 761.588C551.598 703.408 767.984 518.81 792.956 498.242Z" fill="url(#paint6_linear)"/>
<path d="M547.618 216.73C551.433 214.007 558.067 213.583 561.141 217.168C564.214 220.752 562.262 226.428 558.508 229.943C555.285 232.96 516.24 252.568 505.249 258.06C504.737 258.316 504.277 257.662 504.688 257.265C513.445 248.818 544.348 219.063 547.618 216.73Z" fill="url(#paint7_linear)"/>
<path d="M569.546 583.804C582.422 573 584.363 575.313 585.314 576.447C586.266 577.581 585.949 581.789 575.331 590.698C566.907 597.767 361.642 764.411 277.194 832.96C276.682 833.376 276.057 832.622 276.56 832.196C359.516 761.842 561.172 590.831 569.546 583.804Z" fill="url(#paint8_linear)"/>
<path d="M335.082 29.7401C341.102 24.6886 339.232 20.126 337.752 18.3621C336.272 16.5983 331.047 14.8499 326.083 19.0155C321.927 22.5029 221.503 116.456 188.915 146.956C188.446 147.395 189.067 148.109 189.567 147.705C224.227 119.638 330.951 33.2064 335.082 29.7401Z" fill="url(#paint9_linear)"/>
<path d="M998.198 490.759C1001.07 487.07 1006.07 482.07 1001.57 478.07C997.07 474.07 992.57 476.57 989.199 480.035C986.376 482.937 948.772 523.827 936.629 537.035C936.216 537.484 936.812 538.132 937.298 537.763C951.764 526.781 996.838 492.507 998.198 490.759Z" fill="url(#paint10_linear)"/>
<path d="M26.1692 404.291C20.149 409.343 22.0194 413.905 23.4995 415.669C24.9795 417.433 30.2039 419.181 35.1682 415.016C39.3243 411.528 139.748 317.575 172.336 287.076C172.806 286.636 172.184 285.922 171.685 286.327C137.024 314.393 30.3002 400.825 26.1692 404.291Z" fill="url(#paint11_linear)"/>
<path d="M885.653 1002.56C865.791 1019.22 863.931 1024.71 864.878 1025.83C865.824 1026.96 875.03 1023.16 891.408 1009.42C904.393 998.521 1213.59 733.518 1341.15 624.182C1341.65 623.752 1341.01 623 1340.51 623.423C1211.43 730.987 898.561 991.726 885.653 1002.56Z" fill="url(#paint12_linear)"/>
<path d="M901.283 668.553C914.187 657.724 911.167 654.126 909.687 652.362C908.207 650.598 902.925 648.899 892.283 657.828C883.375 665.303 662.696 860.161 591.046 923.438C590.554 923.872 591.185 924.611 591.691 924.193C665.411 863.352 892.427 675.983 901.283 668.553Z" fill="url(#paint13_linear)"/>
<path d="M879.497 386.141C866.593 396.969 869.612 400.567 871.092 402.331C872.572 404.095 877.855 405.794 888.496 396.865C897.404 389.391 1118.08 194.532 1189.73 131.255C1190.23 130.821 1189.59 130.083 1189.09 130.5C1115.37 191.342 888.352 378.71 879.497 386.141Z" fill="url(#paint14_linear)"/>
<path d="M196.207 943.356C168.871 967.245 170.484 974.011 172.417 976.314C174.35 978.617 184.721 976.859 207.959 957.361C227.955 940.582 593.785 620.248 695.444 531.218C695.938 530.785 695.31 530.048 694.804 530.466C589.881 617.203 210.359 930.988 196.207 943.356Z" fill="url(#paint15_linear)"/>
<path d="M743.566 362.979C750.308 357.322 748 353.126 746.52 351.362C745.04 349.599 741.309 346.597 734.567 352.255C728.923 356.99 616.58 460.942 580.123 494.689C579.65 495.128 580.276 495.844 580.776 495.437C619.469 463.985 738.937 366.863 743.566 362.979Z" fill="url(#paint16_linear)"/>
<path d="M1130.56 561.215C1117 572.593 1120.34 576.575 1121.82 578.339C1123.3 580.102 1128.38 581.322 1139.56 571.94C1148.09 564.782 1341.63 394.339 1432.93 313.913C1433.92 313.045 1432.65 311.564 1431.64 312.4C1337.84 389.881 1139.04 554.1 1130.56 561.215Z" fill="url(#paint17_linear)"/>
<path d="M1149.22 680.478C1162.78 669.1 1159.44 665.119 1157.96 663.355C1156.48 661.591 1151.4 660.371 1140.22 669.754C1131.69 676.911 938.151 847.354 846.849 927.781C845.865 928.648 847.128 930.129 848.14 929.293C941.943 851.812 1140.74 687.593 1149.22 680.478Z" fill="url(#paint18_linear)"/>
<path d="M376.209 192.207C346.516 216.663 341.411 213.993 340.411 213C339.411 212.007 337.173 207.109 368.061 180.855C394.021 158.791 615.2 -16.5229 685.124 -71.9092C685.637 -72.3155 686.242 -71.5631 685.744 -71.1383C617.568 -12.9591 401.182 171.639 376.209 192.207Z" fill="url(#paint19_linear)"/>
<path d="M202.809 86.9854C215.49 75.3929 212.62 69.6819 210.687 67.3785C208.754 65.0751 202.047 63.7586 191.057 72.9801C181.599 80.9159 12.0359 236.565 -35.0643 279.814C-35.5407 280.251 -34.9211 280.968 -34.4192 280.56C15.5426 239.942 196.243 92.9872 202.809 86.9854Z" fill="url(#paint20_linear)"/>
<path d="M1347.19 82.3532C1357.48 73.7245 1354.14 69.743 1352.66 67.9792C1351.18 66.2153 1346.67 64.5132 1338.19 71.6285C1331.73 77.0569 1185.9 207.462 1117.12 268.994C1116.15 269.864 1117.4 271.332 1118.41 270.503C1189.7 211.918 1340.76 87.749 1347.19 82.3532Z" fill="url(#paint21_linear)"/>
<path d="M643.283 980.847C633 989.475 636.341 993.457 637.821 995.221C639.301 996.984 643.802 998.687 652.282 991.571C658.751 986.143 804.575 855.737 873.359 794.206C874.332 793.336 873.073 791.868 872.064 792.697C800.781 851.282 649.714 975.451 643.283 980.847Z" fill="url(#paint22_linear)"/>
<path d="M436.105 649.157C456.668 631.902 454.518 629.34 453.565 628.205C452.613 627.069 447.27 628.026 430.313 642.255C418.507 652.161 170.149 864.87 20.3456 993.19C19.3398 994.052 20.6122 995.558 21.6294 994.71C173.161 868.404 424.369 659.005 436.105 649.157Z" fill="url(#paint23_linear)"/>
<path d="M579.016 464.509C589.299 455.881 602.886 438.144 594.112 429.604C585.337 421.065 567.674 433.772 559.195 440.888C552.028 446.901 379.698 613.247 326.492 664.629C325.576 665.513 326.817 666.917 327.81 666.121C385.455 619.923 571.893 470.486 579.016 464.509Z" fill="url(#paint24_linear)"/>
<path d="M854.677 585.906C878.127 565.413 891.3 549.559 882.981 542.443C874.662 535.327 849.481 554.582 837.106 564.966C826.758 573.649 574.471 804.211 492.065 879.542C491.108 880.416 492.356 881.863 493.361 881.044C579.868 810.535 844.567 594.741 854.677 585.906Z" fill="url(#paint25_linear)"/>
<path d="M774.593 82.3304C783.329 75 786.349 78.5985 787.829 80.3623C789.309 82.1262 790.796 87.0102 783.592 93.055C777.561 98.1153 620.16 220.504 569.054 260.232C568.54 260.631 567.932 259.887 568.425 259.463C617.493 217.274 768.599 87.3604 774.593 82.3304Z" fill="url(#paint26_linear)"/>
<path d="M51.5985 870.734C42.2399 878.586 30.7039 880.603 27.6007 877.364C24.4976 874.126 31.3147 863.003 39.3519 856.139C46.2834 850.218 273.42 673.695 335.782 625.239C336.295 624.84 336.901 625.579 336.408 626.003C276.701 677.346 59.6666 863.964 51.5985 870.734Z" fill="url(#paint27_linear)"/>
<path d="M385.209 454.207C355.516 478.663 350.411 475.993 349.411 475C348.411 474.007 346.173 469.109 377.061 442.855C403.021 420.791 624.2 245.477 694.124 190.091C694.637 189.684 695.242 190.437 694.744 190.862C626.568 249.041 410.182 433.639 385.209 454.207Z" fill="url(#paint28_linear)"/>
<path d="M40.7281 96.0585C36.9131 98.7808 30.2791 99.205 27.2057 95.6204C24.1323 92.0359 26.0842 86.3601 29.8385 82.8453C33.0612 79.8282 72.1059 60.22 83.0978 54.7279C83.6089 54.4725 84.0696 55.1261 83.6584 55.5229C74.9019 63.9704 43.9985 93.7248 40.7281 96.0585Z" fill="url(#paint29_linear)"/>
<path d="M443.927 232.122C455.333 222.552 454.491 217.126 453.011 215.362C451.531 213.599 444.334 213.505 434.928 221.398C427.055 228.004 232.554 400.897 169.406 457.039C168.917 457.474 169.547 458.21 170.051 457.794C235.269 404.087 436.101 238.69 443.927 232.122Z" fill="url(#paint30_linear)"/>
<path d="M1436.11 129.706C1455.97 113.04 1457.83 107.558 1456.88 106.429C1455.94 105.301 1446.73 109.104 1430.35 122.847C1417.37 133.743 1108.17 398.746 980.614 508.081C980.111 508.512 980.746 509.264 981.255 508.84C1110.33 401.277 1423.2 140.537 1436.11 129.706Z" fill="url(#paint31_linear)"/>
<path d="M155.454 374.801C148.712 380.458 151.02 384.654 152.5 386.417C153.98 388.181 157.711 391.183 164.453 385.525C170.097 380.789 282.439 276.838 318.896 243.091C319.37 242.652 318.744 241.936 318.243 242.343C279.551 273.795 160.083 370.916 155.454 374.801Z" fill="url(#paint32_linear)"/>
<path d="M507.056 592.571C520.616 581.193 517.275 577.211 515.795 575.448C514.315 573.684 509.238 572.464 498.057 581.846C489.526 589.004 295.987 759.447 204.685 839.874C203.701 840.741 204.964 842.222 205.976 841.386C299.779 763.905 498.576 599.686 507.056 592.571Z" fill="url(#paint33_linear)"/>
<path d="M100.735 598.342C91.999 605.672 88.9796 602.073 87.4995 600.31C86.0195 598.546 84.5321 593.662 91.736 587.617C97.7667 582.557 255.168 460.168 306.274 420.44C306.788 420.041 307.396 420.784 306.903 421.208C257.836 463.398 106.73 593.311 100.735 598.342Z" fill="url(#paint34_linear)"/>
<path d="M772.956 798.242C802.65 773.787 807.754 776.457 808.754 777.449C809.754 778.442 811.992 783.34 781.104 809.594C755.145 831.659 533.965 1006.97 464.041 1062.36C463.528 1062.76 462.924 1062.01 463.422 1061.59C531.598 1003.41 747.984 818.81 772.956 798.242Z" fill="url(#paint35_linear)"/>
<path d="M1083.3 1003.33C1070.61 1014.92 1073.48 1020.63 1075.42 1022.93C1077.35 1025.24 1084.06 1026.55 1095.05 1017.33C1104.5 1009.4 1274.07 853.747 1321.17 810.498C1321.64 810.061 1321.03 809.344 1320.52 809.752C1270.56 850.37 1089.86 997.325 1083.3 1003.33Z" fill="url(#paint36_linear)"/>
<path d="M543.03 89.4459C553.313 80.8173 549.972 76.8358 548.492 75.072C547.012 73.3081 542.51 71.606 534.031 78.7213C527.561 84.1497 381.738 214.555 312.954 276.086C311.981 276.957 313.24 278.424 314.248 277.595C385.532 219.011 536.599 94.8418 543.03 89.4459Z" fill="url(#paint37_linear)"/>
<path d="M795.511 362.629C774.947 379.884 777.098 382.446 778.05 383.582C779.003 384.717 784.346 383.76 801.303 369.532C813.109 359.625 1061.47 146.916 1211.27 18.596C1212.28 17.7344 1211 16.2284 1209.99 17.0764C1058.46 143.382 807.247 352.781 795.511 362.629Z" fill="url(#paint38_linear)"/>
</g>
<defs>
<linearGradient id="paint0_linear" x1="331.178" y1="984.927" x2="555.629" y2="796.59" gradientUnits="userSpaceOnUse">
<stop stop-color="#00FFC2"/>
<stop offset="1" stop-color="#00FFC2" stop-opacity="0"/>
</linearGradient>
<linearGradient id="paint1_linear" x1="582.599" y1="727.462" x2="1119.87" y2="281.017" gradientUnits="userSpaceOnUse">
<stop stop-color="#00FFC2"/>
<stop offset="1" stop-color="#00FFC2" stop-opacity="0"/>
</linearGradient>
<linearGradient id="paint2_linear" x1="930.972" y1="38.3864" x2="545.106" y2="359.904" gradientUnits="userSpaceOnUse">
<stop stop-color="#6100FF"/>
<stop offset="1" stop-color="black" stop-opacity="0"/>
</linearGradient>
<linearGradient id="paint3_linear" x1="995.532" y1="269.175" x2="681.123" y2="532.995" gradientUnits="userSpaceOnUse">
<stop stop-color="black"/>
<stop offset="0.489583" stop-color="black" stop-opacity="0.510417"/>
<stop offset="1" stop-color="#AD00FF" stop-opacity="0"/>
</linearGradient>
<linearGradient id="paint4_linear" x1="1391.7" y1="451.178" x2="1284.47" y2="541.16" gradientUnits="userSpaceOnUse">
<stop stop-color="#8F00FF"/>
<stop offset="1" stop-color="black" stop-opacity="0"/>
</linearGradient>
<linearGradient id="paint5_linear" x1="996.58" y1="572.039" x2="1358.61" y2="268.264" gradientUnits="userSpaceOnUse">
<stop stop-color="black"/>
<stop offset="0.453125" stop-color="black" stop-opacity="0.552083"/>
<stop offset="0.713542" stop-color="black" stop-opacity="0.289187"/>
<stop offset="1" stop-color="#FF006B" stop-opacity="0"/>
</linearGradient>
<linearGradient id="paint6_linear" x1="827.585" y1="478.41" x2="465.56" y2="782.186" gradientUnits="userSpaceOnUse">
<stop stop-color="black"/>
<stop offset="0.453125" stop-color="black" stop-opacity="0.552083"/>
<stop offset="0.713542" stop-color="black" stop-opacity="0.289187"/>
<stop offset="1" stop-color="#FF006B" stop-opacity="0"/>
</linearGradient>
<linearGradient id="paint7_linear" x1="557.514" y1="219.762" x2="505.602" y2="263.321" gradientUnits="userSpaceOnUse">
<stop stop-color="#7000FF"/>
<stop offset="1" stop-color="#7000FF" stop-opacity="0"/>
</linearGradient>
<linearGradient id="paint8_linear" x1="584.994" y1="576.716" x2="242.893" y2="863.773" gradientUnits="userSpaceOnUse">
<stop stop-color="black"/>
<stop offset="1" stop-color="black" stop-opacity="0"/>
</linearGradient>
<linearGradient id="paint9_linear" x1="336.281" y1="18.9433" x2="181.607" y2="148.731" gradientUnits="userSpaceOnUse">
<stop stop-color="black"/>
<stop offset="0.5" stop-color="black" stop-opacity="0.5"/>
<stop offset="0.770833" stop-color="black" stop-opacity="0.223958"/>
<stop offset="1" stop-color="#00FFC2" stop-opacity="0"/>
</linearGradient>
<linearGradient id="paint10_linear" x1="995.844" y1="482.945" x2="932.472" y2="536.12" gradientUnits="userSpaceOnUse">
<stop stop-color="#00FFC2"/>
<stop offset="1" stop-color="#00FFC2" stop-opacity="0"/>
</linearGradient>
<linearGradient id="paint11_linear" x1="24.9699" y1="415.088" x2="179.644" y2="285.301" gradientUnits="userSpaceOnUse">
<stop stop-color="black"/>
<stop offset="0.5" stop-color="black" stop-opacity="0.5"/>
<stop offset="0.770833" stop-color="black" stop-opacity="0.223958"/>
<stop offset="1" stop-color="#00FFC2" stop-opacity="0"/>
</linearGradient>
<linearGradient id="paint12_linear" x1="868.874" y1="1022.9" x2="1379.18" y2="594.704" gradientUnits="userSpaceOnUse">
<stop stop-color="black"/>
<stop offset="0.5" stop-color="black" stop-opacity="0.5"/>
<stop offset="0.770833" stop-color="#0d022f" stop-opacity="0.223958"/>
<stop offset="1" stop-color="#00FFC2" stop-opacity="0"/>
</linearGradient>
<linearGradient id="paint13_linear" x1="909.687" y1="652.362" x2="586.417" y2="923.618" gradientUnits="userSpaceOnUse">
<stop stop-color="#7000FF"/>
<stop offset="1" stop-color="#7000FF" stop-opacity="0"/>
</linearGradient>
<linearGradient id="paint14_linear" x1="871.093" y1="402.332" x2="1194.36" y2="131.075" gradientUnits="userSpaceOnUse">
<stop stop-color="#7000FF"/>
<stop offset="1" stop-color="#7000FF" stop-opacity="0"/>
</linearGradient>
<linearGradient id="paint15_linear" x1="181.676" y1="967.489" x2="692.971" y2="538.461" gradientUnits="userSpaceOnUse">
<stop stop-color="#0d022f"/>
<stop offset="0.541667" stop-color="#0d022f" stop-opacity="0.458333"/>
<stop offset="1" stop-color="#7000FF" stop-opacity="0"/>
</linearGradient>
<linearGradient id="paint16_linear" x1="745.808" y1="351.959" x2="576.906" y2="493.685" gradientUnits="userSpaceOnUse">
<stop stop-color="#7000FF"/>
<stop offset="1" stop-color="#7000FF" stop-opacity="0"/>
</linearGradient>
<linearGradient id="paint17_linear" x1="1121.5" y1="577.956" x2="1444.16" y2="307.214" gradientUnits="userSpaceOnUse">
<stop stop-color="#0d022f"/>
<stop offset="0.442708" stop-color="#0d022f" stop-opacity="0.557292"/>
<stop offset="1" stop-color="#EB00FF" stop-opacity="0"/>
</linearGradient>
<linearGradient id="paint18_linear" x1="1158.28" y1="663.738" x2="835.623" y2="934.479" gradientUnits="userSpaceOnUse">
<stop stop-color="#0d022f"/>
<stop offset="0.442708" stop-color="#0d022f" stop-opacity="0.557292"/>
<stop offset="1" stop-color="#EB00FF" stop-opacity="0"/>
</linearGradient>
<linearGradient id="paint19_linear" x1="341.58" y1="212.039" x2="703.606" y2="-91.7364" gradientUnits="userSpaceOnUse">
<stop stop-color="#0d022f"/>
<stop offset="0.453125" stop-color="#0d022f" stop-opacity="0.552083"/>
<stop offset="0.713542" stop-color="#0d022f" stop-opacity="0.289187"/>
<stop offset="1" stop-color="#FF006B" stop-opacity="0"/>
</linearGradient>
<linearGradient id="paint20_linear" x1="206.582" y1="71.8791" x2="-35.2292" y2="274.783" gradientUnits="userSpaceOnUse">
<stop stop-color="#7000FF"/>
<stop offset="1" stop-color="#7000FF" stop-opacity="0"/>
</linearGradient>
<linearGradient id="paint21_linear" x1="1352.98" y1="68.3621" x2="1108.29" y2="273.682" gradientUnits="userSpaceOnUse">
<stop stop-color="#0d022f"/>
<stop offset="0.442708" stop-color="#0d022f" stop-opacity="0.557292"/>
<stop offset="1" stop-color="#EB00FF" stop-opacity="0"/>
</linearGradient>
<linearGradient id="paint22_linear" x1="637.5" y1="994.838" x2="882.19" y2="789.518" gradientUnits="userSpaceOnUse">
<stop stop-color="#0d022f"/>
<stop offset="0.442708" stop-color="#0d022f" stop-opacity="0.557292"/>
<stop offset="1" stop-color="#EB00FF" stop-opacity="0"/>
</linearGradient>
<linearGradient id="paint23_linear" x1="453.772" y1="628.451" x2="-35.5382" y2="1039.03" gradientUnits="userSpaceOnUse">
<stop stop-color="#0d022f"/>
<stop offset="0.442708" stop-color="#0d022f" stop-opacity="0.557292"/>
<stop offset="1" stop-color="#EB00FF" stop-opacity="0"/>
</linearGradient>
<linearGradient id="paint24_linear" x1="579.388" y1="444.07" x2="334.697" y2="649.389" gradientUnits="userSpaceOnUse">
<stop stop-color="black"/>
<stop offset="0.463542" stop-color="black" stop-opacity="0"/>
</linearGradient>
<linearGradient id="paint25_linear" x1="860.899" y1="562.844" x2="503.798" y2="862.488" gradientUnits="userSpaceOnUse">
<stop stop-color="black"/>
<stop offset="0.442708" stop-color="#0d022f" stop-opacity="0"/>
</linearGradient>
<linearGradient id="paint26_linear" x1="788.15" y1="80.7453" x2="563.699" y2="269.082" gradientUnits="userSpaceOnUse">
<stop stop-color="#0d022f"/>
<stop offset="0.411458" stop-color="#0d022f" stop-opacity="0"/>
</linearGradient>
<linearGradient id="paint27_linear" x1="33.9366" y1="873.118" x2="348.345" y2="609.298" gradientUnits="userSpaceOnUse">
<stop stop-color="#7000FF"/>
<stop offset="1" stop-color="#0d022f" stop-opacity="0"/>
</linearGradient>
<linearGradient id="paint28_linear" x1="350.58" y1="474.039" x2="712.606" y2="170.264" gradientUnits="userSpaceOnUse">
<stop stop-color="#0d022f"/>
<stop offset="0.453125" stop-color="#0d022f" stop-opacity="0.552083"/>
<stop offset="0.713542" stop-color="#0d022f" stop-opacity="0.289187"/>
<stop offset="1" stop-color="#FF006B" stop-opacity="0"/>
</linearGradient>
<linearGradient id="paint29_linear" x1="30.8323" y1="93.0266" x2="82.7442" y2="49.4673" gradientUnits="userSpaceOnUse">
<stop stop-color="#7000FF"/>
<stop offset="1" stop-color="#7000FF" stop-opacity="0"/>
</linearGradient>
<linearGradient id="paint30_linear" x1="450.512" y1="216.806" x2="157.464" y2="462.703" gradientUnits="userSpaceOnUse">
<stop stop-color="black"/>
<stop offset="0.5" stop-color="black" stop-opacity="0.5"/>
<stop offset="0.770833" stop-color="black" stop-opacity="0.223958"/>
<stop offset="1" stop-color="#00FFC2" stop-opacity="0"/>
</linearGradient>
<linearGradient id="paint31_linear" x1="1452.89" y1="109.365" x2="942.583" y2="537.56" gradientUnits="userSpaceOnUse">
<stop stop-color="black"/>
<stop offset="0.5" stop-color="black" stop-opacity="0.5"/>
<stop offset="0.770833" stop-color="black" stop-opacity="0.223958"/>
<stop offset="1" stop-color="#00FFC2" stop-opacity="0"/>
</linearGradient>
<linearGradient id="paint32_linear" x1="153.211" y1="385.821" x2="322.114" y2="244.095" gradientUnits="userSpaceOnUse">
<stop stop-color="#7000FF"/>
<stop offset="1" stop-color="#7000FF" stop-opacity="0"/>
</linearGradient>
<linearGradient id="paint33_linear" x1="516.116" y1="575.83" x2="193.459" y2="846.572" gradientUnits="userSpaceOnUse">
<stop stop-color="black"/>
<stop offset="0.442708" stop-color="black" stop-opacity="0.557292"/>
<stop offset="1" stop-color="#EB00FF" stop-opacity="0"/>
</linearGradient>
<linearGradient id="paint34_linear" x1="87.1781" y1="599.927" x2="311.629" y2="411.59" gradientUnits="userSpaceOnUse">
<stop stop-color="#00FFC2"/>
<stop offset="1" stop-color="#00FFC2" stop-opacity="0"/>
</linearGradient>
<linearGradient id="paint35_linear" x1="807.585" y1="778.41" x2="445.56" y2="1082.19" gradientUnits="userSpaceOnUse">
<stop stop-color="black"/>
<stop offset="0.453125" stop-color="black" stop-opacity="0.552083"/>
<stop offset="0.713542" stop-color="black" stop-opacity="0.289187"/>
<stop offset="1" stop-color="#FF006B" stop-opacity="0"/>
</linearGradient>
<linearGradient id="paint36_linear" x1="1079.52" y1="1018.43" x2="1321.33" y2="815.529" gradientUnits="userSpaceOnUse">
<stop stop-color="black"/>
<stop offset="0.447917" stop-color="black" stop-opacity="0.552083"/>
<stop offset="0.807292" stop-color="##090916" stop-opacity="0"/>
</linearGradient>
<linearGradient id="paint37_linear" x1="548.813" y1="75.4548" x2="304.122" y2="280.775" gradientUnits="userSpaceOnUse">
<stop stop-color="black"/>
<stop offset="0.442708" stop-color="black" stop-opacity="0.557292"/>
<stop offset="1" stop-color="#EB00FF" stop-opacity="0"/>
</linearGradient>
<linearGradient id="paint38_linear" x1="777.844" y1="383.335" x2="1267.15" y2="-27.245" gradientUnits="userSpaceOnUse">
<stop stop-color="black"/>
<stop offset="0.442708" stop-color="black" stop-opacity="0.557292"/>
<stop offset="1" stop-color="#EB00FF" stop-opacity="0"/>
</linearGradient>
<clipPath id="clip0">
<rect width="1440" height="1024" rx="20" fill="black"/>
</clipPath>
</defs>
</svg>
