<svg id="e0fdrmNYspQ1" xmlns="http://www.w3.org/2000/svg" xmlns:xlink="http://www.w3.org/1999/xlink" viewBox="0 0 235 126" shape-rendering="geometricPrecision" text-rendering="geometricPrecision"><style><![CDATA[#e0fdrmNYspQ3 {animation: e0fdrmNYspQ3_c_o 3000ms linear infinite normal forwards}@keyframes e0fdrmNYspQ3_c_o { 0% {opacity: 1} 10% {opacity: 0.33} 23.333333% {opacity: 1} 40% {opacity: 0.49} 53.333333% {opacity: 1} 76.666667% {opacity: 0.31} 100% {opacity: 1}} #e0fdrmNYspQ4 {animation: e0fdrmNYspQ4_c_o 3000ms linear infinite normal forwards}@keyframes e0fdrmNYspQ4_c_o { 0% {opacity: 1} 16.666667% {opacity: 0.63} 26.666667% {opacity: 1} 36.666667% {opacity: 0.88} 53.333333% {opacity: 0.76} 70% {opacity: 1} 76.666667% {opacity: 0.82} 100% {opacity: 1}} #e0fdrmNYspQ5 {animation: e0fdrmNYspQ5_c_o 3000ms linear infinite normal forwards}@keyframes e0fdrmNYspQ5_c_o { 0% {opacity: 1} 6.666667% {opacity: 0.63} 23.333333% {opacity: 1} 33.333333% {opacity: 0.88} 63.333333% {opacity: 0.76} 70% {opacity: 1} 83.333333% {opacity: 0.82} 100% {opacity: 1}} #e0fdrmNYspQ6 {animation: e0fdrmNYspQ6_c_o 3000ms linear infinite normal forwards}@keyframes e0fdrmNYspQ6_c_o { 0% {opacity: 1} 10% {opacity: 0.33} 23.333333% {opacity: 1} 40% {opacity: 0.49} 63.333333% {opacity: 1} 76.666667% {opacity: 0.31} 100% {opacity: 1}} #e0fdrmNYspQ18 {animation: e0fdrmNYspQ18_c_o 3000ms linear infinite normal forwards}@keyframes e0fdrmNYspQ18_c_o { 0% {opacity: 1} 10% {opacity: 0.33} 20% {opacity: 1} 43.333333% {opacity: 0.49} 73.333333% {opacity: 1} 83.333333% {opacity: 0.31} 100% {opacity: 1}} #e0fdrmNYspQ19 {animation: e0fdrmNYspQ19_c_o 3000ms linear infinite normal forwards}@keyframes e0fdrmNYspQ19_c_o { 0% {opacity: 1} 6.666667% {opacity: 0.63} 20% {opacity: 1} 53.333333% {opacity: 0.88} 63.333333% {opacity: 0.76} 76.666667% {opacity: 1} 83.333333% {opacity: 0.82} 100% {opacity: 1}} #e0fdrmNYspQ27 {animation: e0fdrmNYspQ27_c_o 3000ms linear infinite normal forwards}@keyframes e0fdrmNYspQ27_c_o { 0% {opacity: 1} 10% {opacity: 0.33} 26.666667% {opacity: 1} 36.666667% {opacity: 0.49} 66.666667% {opacity: 1} 80% {opacity: 0.31} 96.666667% {opacity: 1} 100% {opacity: 1}} #e0fdrmNYspQ31 {animation: e0fdrmNYspQ31_c_o 3000ms linear infinite normal forwards}@keyframes e0fdrmNYspQ31_c_o { 0% {opacity: 1} 6.666667% {opacity: 0.63} 13.333333% {opacity: 1} 46.666667% {opacity: 0.88} 56.666667% {opacity: 0.76} 70% {opacity: 1} 90% {opacity: 0.82} 100% {opacity: 1}} #e0fdrmNYspQ32 {animation: e0fdrmNYspQ32_c_o 3000ms linear infinite normal forwards}@keyframes e0fdrmNYspQ32_c_o { 0% {opacity: 1} 3.333333% {opacity: 0.16} 20% {opacity: 1} 23.333333% {opacity: 0} 26.666667% {opacity: 1} 40% {opacity: 0} 56.666667% {opacity: 1} 66.666667% {opacity: 0.28} 80% {opacity: 1} 86.666667% {opacity: 0.9} 96.666667% {opacity: 1} 100% {opacity: 1}} #e0fdrmNYspQ34 {animation: e0fdrmNYspQ34_c_o 3000ms linear infinite normal forwards}@keyframes e0fdrmNYspQ34_c_o { 0% {opacity: 1} 36.666667% {opacity: 0.5} 50% {opacity: 1} 86.666667% {opacity: 0.69} 100% {opacity: 1}} #e0fdrmNYspQ35 {animation: e0fdrmNYspQ35_c_o 3000ms linear infinite normal forwards}@keyframes e0fdrmNYspQ35_c_o { 0% {opacity: 1} 6.666667% {opacity: 0.63} 23.333333% {opacity: 1} 36.666667% {opacity: 0.88} 63.333333% {opacity: 0.76} 70% {opacity: 1} 90% {opacity: 0.82} 100% {opacity: 1}} #e0fdrmNYspQ37 {animation: e0fdrmNYspQ37_c_o 3000ms linear infinite normal forwards}@keyframes e0fdrmNYspQ37_c_o { 0% {opacity: 1} 3.333333% {opacity: 0.16} 16.666667% {opacity: 1} 23.333333% {opacity: 0} 36.666667% {opacity: 1} 43.333333% {opacity: 0} 46.666667% {opacity: 1} 66.666667% {opacity: 0.28} 80% {opacity: 1} 90% {opacity: 0.9} 96.666667% {opacity: 1} 100% {opacity: 1}} #e0fdrmNYspQ38 {animation: e0fdrmNYspQ38_c_o 3000ms linear infinite normal forwards}@keyframes e0fdrmNYspQ38_c_o { 0% {opacity: 1} 6.666667% {opacity: 0.16} 13.333333% {opacity: 1} 26.666667% {opacity: 0} 33.333333% {opacity: 1} 46.666667% {opacity: 0} 60% {opacity: 1} 70% {opacity: 0.28} 83.333333% {opacity: 1} 93.333333% {opacity: 0.9} 100% {opacity: 1}} #e0fdrmNYspQ39 {animation: e0fdrmNYspQ39_c_o 3000ms linear infinite normal forwards}@keyframes e0fdrmNYspQ39_c_o { 0% {opacity: 1} 6.666667% {opacity: 0.63} 13.333333% {opacity: 1} 43.333333% {opacity: 0.88} 63.333333% {opacity: 0.76} 70% {opacity: 1} 83.333333% {opacity: 0.82} 100% {opacity: 1}} #e0fdrmNYspQ40 {animation: e0fdrmNYspQ40_c_o 3000ms linear infinite normal forwards}@keyframes e0fdrmNYspQ40_c_o { 0% {opacity: 1} 6.666667% {opacity: 0.16} 13.333333% {opacity: 1} 26.666667% {opacity: 0} 33.333333% {opacity: 1} 46.666667% {opacity: 0} 53.333333% {opacity: 1} 70% {opacity: 0.28} 73.333333% {opacity: 1} 86.666667% {opacity: 0.9} 100% {opacity: 1}} #e0fdrmNYspQ41 {animation: e0fdrmNYspQ41_c_o 3000ms linear infinite normal forwards}@keyframes e0fdrmNYspQ41_c_o { 0% {opacity: 1} 6.666667% {opacity: 0.16} 13.333333% {opacity: 1} 26.666667% {opacity: 0} 33.333333% {opacity: 1} 46.666667% {opacity: 0} 53.333333% {opacity: 1} 70% {opacity: 0.28} 73.333333% {opacity: 1} 86.666667% {opacity: 0.9} 100% {opacity: 1}} #e0fdrmNYspQ42 {animation: e0fdrmNYspQ42_c_o 3000ms linear infinite normal forwards}@keyframes e0fdrmNYspQ42_c_o { 0% {opacity: 1} 6.666667% {opacity: 0.16} 13.333333% {opacity: 1} 26.666667% {opacity: 0} 33.333333% {opacity: 1} 46.666667% {opacity: 0} 53.333333% {opacity: 1} 70% {opacity: 0.28} 73.333333% {opacity: 1} 86.666667% {opacity: 0.9} 100% {opacity: 1}} #e0fdrmNYspQ47 {animation: e0fdrmNYspQ47_c_o 3000ms linear infinite normal forwards}@keyframes e0fdrmNYspQ47_c_o { 0% {opacity: 1} 13.333333% {opacity: 0.63} 20% {opacity: 1} 43.333333% {opacity: 0.88} 63.333333% {opacity: 0.76} 70% {opacity: 1} 76.666667% {opacity: 0.82} 100% {opacity: 1}} #e0fdrmNYspQ48 {animation: e0fdrmNYspQ48_c_o 3000ms linear infinite normal forwards}@keyframes e0fdrmNYspQ48_c_o { 0% {opacity: 1} 6.666667% {opacity: 0.16} 13.333333% {opacity: 1} 26.666667% {opacity: 0} 33.333333% {opacity: 1} 46.666667% {opacity: 0} 63.333333% {opacity: 1} 73.333333% {opacity: 0.28} 76.666667% {opacity: 1} 93.333333% {opacity: 0.9} 100% {opacity: 1}} #e0fdrmNYspQ50 {animation: e0fdrmNYspQ50_c_o 3000ms linear infinite normal forwards}@keyframes e0fdrmNYspQ50_c_o { 0% {opacity: 1} 10% {opacity: 0.33} 23.333333% {opacity: 1} 36.666667% {opacity: 0.49} 53.333333% {opacity: 1} 70% {opacity: 0.31} 100% {opacity: 1}} #e0fdrmNYspQ56 {animation: e0fdrmNYspQ56_c_o 3000ms linear infinite normal forwards}@keyframes e0fdrmNYspQ56_c_o { 0% {opacity: 1} 10% {opacity: 0.16} 20% {opacity: 1} 30% {opacity: 0} 46.666667% {opacity: 1} 53.333333% {opacity: 0} 66.666667% {opacity: 1} 70% {opacity: 0.28} 80% {opacity: 1} 93.333333% {opacity: 0.9} 100% {opacity: 1}} #e0fdrmNYspQ63 {animation: e0fdrmNYspQ63_c_o 3000ms linear infinite normal forwards}@keyframes e0fdrmNYspQ63_c_o { 0% {opacity: 1} 6.666667% {opacity: 0.16} 16.666667% {opacity: 1} 26.666667% {opacity: 0} 36.666667% {opacity: 1} 50% {opacity: 0} 63.333333% {opacity: 1} 76.666667% {opacity: 0.28} 80% {opacity: 1} 93.333333% {opacity: 0.9} 100% {opacity: 1}} #e0fdrmNYspQ65 {animation: e0fdrmNYspQ65_c_o 3000ms linear infinite normal forwards}@keyframes e0fdrmNYspQ65_c_o { 0% {opacity: 1} 6.666667% {opacity: 0.63} 13.333333% {opacity: 1} 53.333333% {opacity: 0.88} 63.333333% {opacity: 0.76} 80% {opacity: 1} 86.666667% {opacity: 0.82} 100% {opacity: 1}} #e0fdrmNYspQ66 {animation: e0fdrmNYspQ66_c_o 3000ms linear infinite normal forwards}@keyframes e0fdrmNYspQ66_c_o { 0% {opacity: 1} 10% {opacity: 0.8} 16.666667% {opacity: 1} 23.333333% {opacity: 0.73} 30% {opacity: 1} 40% {opacity: 0.81} 46.666667% {opacity: 1} 56.666667% {opacity: 0.83} 63.333333% {opacity: 1} 70% {opacity: 0.8} 80% {opacity: 1} 90% {opacity: 0.8} 100% {opacity: 0.83}} #e0fdrmNYspQ67 {animation: e0fdrmNYspQ67_c_o 3000ms linear infinite normal forwards}@keyframes e0fdrmNYspQ67_c_o { 0% {opacity: 1} 6.666667% {opacity: 0.63} 13.333333% {opacity: 1} 43.333333% {opacity: 0.88} 63.333333% {opacity: 0.76} 70% {opacity: 1} 90% {opacity: 0.82} 100% {opacity: 1}} #e0fdrmNYspQ68_to {animation: e0fdrmNYspQ68_to__to 3000ms linear infinite normal forwards}@keyframes e0fdrmNYspQ68_to__to { 0% {transform: translate(266.512123px,31.80405px)} 36.666667% {transform: translate(-39.155062px,31.80405px)} 100% {transform: translate(-39.155062px,31.80405px)}} #e0fdrmNYspQ69_to {animation: e0fdrmNYspQ69_to__to 3000ms linear infinite normal forwards}@keyframes e0fdrmNYspQ69_to__to { 0% {transform: translate(246.479557px,16.2582px)} 63.333333% {transform: translate(246.479557px,16.2582px)} 100% {transform: translate(-24.578562px,16px)}} #e0fdrmNYspQ69 {animation: e0fdrmNYspQ69_c_o 3000ms linear infinite normal forwards}@keyframes e0fdrmNYspQ69_c_o { 0% {opacity: 1} 63.333333% {opacity: 1} 100% {opacity: 0}} #e0fdrmNYspQ71 {animation: e0fdrmNYspQ71_c_o 3000ms linear infinite normal forwards}@keyframes e0fdrmNYspQ71_c_o { 0% {opacity: 1} 10% {opacity: 0.33} 23.333333% {opacity: 1} 40% {opacity: 0.49} 53.333333% {opacity: 1} 76.666667% {opacity: 0.31} 100% {opacity: 1}} #e0fdrmNYspQ72 {animation: e0fdrmNYspQ72_c_o 3000ms linear infinite normal forwards}@keyframes e0fdrmNYspQ72_c_o { 0% {opacity: 1} 16.666667% {opacity: 0.63} 26.666667% {opacity: 1} 36.666667% {opacity: 0.88} 53.333333% {opacity: 0.76} 70% {opacity: 1} 76.666667% {opacity: 0.82} 100% {opacity: 1}} #e0fdrmNYspQ73 {animation: e0fdrmNYspQ73_c_o 3000ms linear infinite normal forwards}@keyframes e0fdrmNYspQ73_c_o { 0% {opacity: 1} 6.666667% {opacity: 0.63} 23.333333% {opacity: 1} 33.333333% {opacity: 0.88} 63.333333% {opacity: 0.76} 70% {opacity: 1} 83.333333% {opacity: 0.82} 100% {opacity: 1}} #e0fdrmNYspQ74 {animation: e0fdrmNYspQ74_c_o 3000ms linear infinite normal forwards}@keyframes e0fdrmNYspQ74_c_o { 0% {opacity: 1} 10% {opacity: 0.33} 23.333333% {opacity: 1} 40% {opacity: 0.49} 63.333333% {opacity: 1} 76.666667% {opacity: 0.31} 100% {opacity: 1}} #e0fdrmNYspQ77 {animation: e0fdrmNYspQ77_c_o 3000ms linear infinite normal forwards}@keyframes e0fdrmNYspQ77_c_o { 0% {opacity: 1} 13.333333% {opacity: 0.75} 26.666667% {opacity: 1} 40% {opacity: 0.79} 50% {opacity: 1} 60% {opacity: 0.8} 73.333333% {opacity: 1} 86.666667% {opacity: 0.8} 100% {opacity: 1}} #e0fdrmNYspQ95 {animation: e0fdrmNYspQ95_c_o 3000ms linear infinite normal forwards}@keyframes e0fdrmNYspQ95_c_o { 0% {opacity: 1} 10% {opacity: 0.33} 20% {opacity: 1} 43.333333% {opacity: 0.49} 73.333333% {opacity: 1} 83.333333% {opacity: 0.31} 100% {opacity: 1}} #e0fdrmNYspQ96 {animation: e0fdrmNYspQ96_c_o 3000ms linear infinite normal forwards}@keyframes e0fdrmNYspQ96_c_o { 0% {opacity: 1} 10% {opacity: 0.33} 20% {opacity: 1} 43.333333% {opacity: 0.49} 73.333333% {opacity: 1} 83.333333% {opacity: 0.31} 100% {opacity: 1}} #e0fdrmNYspQ97 {animation: e0fdrmNYspQ97_c_o 3000ms linear infinite normal forwards}@keyframes e0fdrmNYspQ97_c_o { 0% {opacity: 1} 6.666667% {opacity: 0.63} 20% {opacity: 1} 53.333333% {opacity: 0.88} 63.333333% {opacity: 0.76} 76.666667% {opacity: 1} 83.333333% {opacity: 0.82} 100% {opacity: 1}} #e0fdrmNYspQ108 {animation: e0fdrmNYspQ108_c_o 3000ms linear infinite normal forwards}@keyframes e0fdrmNYspQ108_c_o { 0% {opacity: 1} 10% {opacity: 0.33} 26.666667% {opacity: 1} 36.666667% {opacity: 0.49} 66.666667% {opacity: 1} 80% {opacity: 0.31} 96.666667% {opacity: 1} 100% {opacity: 1}} #e0fdrmNYspQ113 {animation: e0fdrmNYspQ113_c_o 3000ms linear infinite normal forwards}@keyframes e0fdrmNYspQ113_c_o { 0% {opacity: 1} 6.666667% {opacity: 0.63} 13.333333% {opacity: 1} 46.666667% {opacity: 0.88} 56.666667% {opacity: 0.76} 70% {opacity: 1} 90% {opacity: 0.82} 100% {opacity: 1}} #e0fdrmNYspQ114 {animation: e0fdrmNYspQ114_c_o 3000ms linear infinite normal forwards}@keyframes e0fdrmNYspQ114_c_o { 0% {opacity: 1} 6.666667% {opacity: 0.63} 13.333333% {opacity: 1} 53.333333% {opacity: 0.88} 63.333333% {opacity: 0.76} 70% {opacity: 1} 83.333333% {opacity: 0.82} 100% {opacity: 1}} #e0fdrmNYspQ116 {animation: e0fdrmNYspQ116_c_o 3000ms linear infinite normal forwards}@keyframes e0fdrmNYspQ116_c_o { 0% {opacity: 1} 3.333333% {opacity: 0.16} 20% {opacity: 1} 23.333333% {opacity: 0} 26.666667% {opacity: 1} 40% {opacity: 0} 56.666667% {opacity: 1} 66.666667% {opacity: 0.28} 80% {opacity: 1} 86.666667% {opacity: 0.9} 96.666667% {opacity: 1} 100% {opacity: 1}} #e0fdrmNYspQ118 {animation: e0fdrmNYspQ118_c_o 3000ms linear infinite normal forwards}@keyframes e0fdrmNYspQ118_c_o { 0% {opacity: 1} 36.666667% {opacity: 0.5} 50% {opacity: 1} 86.666667% {opacity: 0.69} 100% {opacity: 1}} #e0fdrmNYspQ119 {animation: e0fdrmNYspQ119_c_o 3000ms linear infinite normal forwards}@keyframes e0fdrmNYspQ119_c_o { 0% {opacity: 1} 6.666667% {opacity: 0.63} 23.333333% {opacity: 1} 36.666667% {opacity: 0.88} 63.333333% {opacity: 0.76} 70% {opacity: 1} 90% {opacity: 0.82} 100% {opacity: 1}} #e0fdrmNYspQ122 {animation: e0fdrmNYspQ122_c_o 3000ms linear infinite normal forwards}@keyframes e0fdrmNYspQ122_c_o { 0% {opacity: 1} 3.333333% {opacity: 0.16} 16.666667% {opacity: 1} 23.333333% {opacity: 0} 36.666667% {opacity: 1} 43.333333% {opacity: 0} 46.666667% {opacity: 1} 66.666667% {opacity: 0.28} 80% {opacity: 1} 90% {opacity: 0.9} 96.666667% {opacity: 1} 100% {opacity: 1}} #e0fdrmNYspQ123 {animation: e0fdrmNYspQ123_c_o 3000ms linear infinite normal forwards}@keyframes e0fdrmNYspQ123_c_o { 0% {opacity: 1} 6.666667% {opacity: 0.16} 13.333333% {opacity: 1} 26.666667% {opacity: 0} 33.333333% {opacity: 1} 46.666667% {opacity: 0} 60% {opacity: 1} 70% {opacity: 0.28} 83.333333% {opacity: 1} 93.333333% {opacity: 0.9} 100% {opacity: 1}} #e0fdrmNYspQ124 {animation: e0fdrmNYspQ124_c_o 3000ms linear infinite normal forwards}@keyframes e0fdrmNYspQ124_c_o { 0% {opacity: 1} 6.666667% {opacity: 0.16} 13.333333% {opacity: 1} 26.666667% {opacity: 0} 33.333333% {opacity: 1} 46.666667% {opacity: 0} 60% {opacity: 1} 70% {opacity: 0.28} 83.333333% {opacity: 1} 93.333333% {opacity: 0.9} 100% {opacity: 1}} #e0fdrmNYspQ125 {animation: e0fdrmNYspQ125_c_o 3000ms linear infinite normal forwards}@keyframes e0fdrmNYspQ125_c_o { 0% {opacity: 1} 6.666667% {opacity: 0.63} 13.333333% {opacity: 1} 53.333333% {opacity: 0.88} 63.333333% {opacity: 0.76} 70% {opacity: 1} 86.666667% {opacity: 0.82} 100% {opacity: 1}} #e0fdrmNYspQ126 {animation: e0fdrmNYspQ126_c_o 3000ms linear infinite normal forwards}@keyframes e0fdrmNYspQ126_c_o { 0% {opacity: 1} 6.666667% {opacity: 0.63} 13.333333% {opacity: 1} 43.333333% {opacity: 0.88} 63.333333% {opacity: 0.76} 70% {opacity: 1} 83.333333% {opacity: 0.82} 100% {opacity: 1}} #e0fdrmNYspQ127 {animation: e0fdrmNYspQ127_c_o 3000ms linear infinite normal forwards}@keyframes e0fdrmNYspQ127_c_o { 0% {opacity: 1} 6.666667% {opacity: 0.63} 13.333333% {opacity: 1} 43.333333% {opacity: 0.88} 63.333333% {opacity: 0.76} 70% {opacity: 1} 83.333333% {opacity: 0.82} 100% {opacity: 1}} #e0fdrmNYspQ128 {animation: e0fdrmNYspQ128_c_o 3000ms linear infinite normal forwards}@keyframes e0fdrmNYspQ128_c_o { 0% {opacity: 1} 6.666667% {opacity: 0.16} 13.333333% {opacity: 1} 26.666667% {opacity: 0} 33.333333% {opacity: 1} 46.666667% {opacity: 0} 53.333333% {opacity: 1} 70% {opacity: 0.28} 73.333333% {opacity: 1} 86.666667% {opacity: 0.9} 100% {opacity: 1}} #e0fdrmNYspQ136 {animation: e0fdrmNYspQ136_c_o 3000ms linear infinite normal forwards}@keyframes e0fdrmNYspQ136_c_o { 0% {opacity: 1} 13.333333% {opacity: 0.63} 20% {opacity: 1} 43.333333% {opacity: 0.88} 63.333333% {opacity: 0.76} 70% {opacity: 1} 76.666667% {opacity: 0.82} 100% {opacity: 1}} #e0fdrmNYspQ137 {animation: e0fdrmNYspQ137_c_o 3000ms linear infinite normal forwards}@keyframes e0fdrmNYspQ137_c_o { 0% {opacity: 1} 6.666667% {opacity: 0.16} 13.333333% {opacity: 1} 26.666667% {opacity: 0} 33.333333% {opacity: 1} 46.666667% {opacity: 0} 63.333333% {opacity: 1} 73.333333% {opacity: 0.28} 76.666667% {opacity: 1} 93.333333% {opacity: 0.9} 100% {opacity: 1}} #e0fdrmNYspQ139 {animation: e0fdrmNYspQ139_c_o 3000ms linear infinite normal forwards}@keyframes e0fdrmNYspQ139_c_o { 0% {opacity: 1} 10% {opacity: 0.33} 23.333333% {opacity: 1} 36.666667% {opacity: 0.49} 53.333333% {opacity: 1} 70% {opacity: 0.31} 100% {opacity: 1}} #e0fdrmNYspQ146 {animation: e0fdrmNYspQ146_c_o 3000ms linear infinite normal forwards}@keyframes e0fdrmNYspQ146_c_o { 0% {opacity: 1} 10% {opacity: 0.16} 20% {opacity: 1} 30% {opacity: 0} 46.666667% {opacity: 1} 53.333333% {opacity: 0} 66.666667% {opacity: 1} 70% {opacity: 0.28} 80% {opacity: 1} 93.333333% {opacity: 0.9} 100% {opacity: 1}} #e0fdrmNYspQ147 {animation: e0fdrmNYspQ147_c_o 3000ms linear infinite normal forwards}@keyframes e0fdrmNYspQ147_c_o { 0% {opacity: 1} 10% {opacity: 0.16} 20% {opacity: 1} 30% {opacity: 0} 46.666667% {opacity: 1} 53.333333% {opacity: 0} 66.666667% {opacity: 1} 70% {opacity: 0.28} 80% {opacity: 1} 93.333333% {opacity: 0.9} 100% {opacity: 1}} #e0fdrmNYspQ155 {animation: e0fdrmNYspQ155_c_o 3000ms linear infinite normal forwards}@keyframes e0fdrmNYspQ155_c_o { 0% {opacity: 1} 6.666667% {opacity: 0.16} 16.666667% {opacity: 1} 26.666667% {opacity: 0} 36.666667% {opacity: 1} 50% {opacity: 0} 63.333333% {opacity: 1} 76.666667% {opacity: 0.28} 80% {opacity: 1} 93.333333% {opacity: 0.9} 100% {opacity: 1}} #e0fdrmNYspQ158 {animation: e0fdrmNYspQ158_c_o 3000ms linear infinite normal forwards}@keyframes e0fdrmNYspQ158_c_o { 0% {opacity: 1} 6.666667% {opacity: 0.63} 13.333333% {opacity: 1} 53.333333% {opacity: 0.88} 63.333333% {opacity: 0.76} 80% {opacity: 1} 86.666667% {opacity: 0.82} 100% {opacity: 1}} #e0fdrmNYspQ159 {animation: e0fdrmNYspQ159_c_o 3000ms linear infinite normal forwards}@keyframes e0fdrmNYspQ159_c_o { 0% {opacity: 1} 10% {opacity: 0.8} 16.666667% {opacity: 1} 23.333333% {opacity: 0.73} 30% {opacity: 1} 40% {opacity: 0.81} 46.666667% {opacity: 1} 56.666667% {opacity: 0.83} 63.333333% {opacity: 1} 70% {opacity: 0.8} 80% {opacity: 1} 90% {opacity: 0.8} 100% {opacity: 0.83}} #e0fdrmNYspQ160 {animation: e0fdrmNYspQ160_c_o 3000ms linear infinite normal forwards}@keyframes e0fdrmNYspQ160_c_o { 0% {opacity: 1} 6.666667% {opacity: 0.63} 13.333333% {opacity: 1} 43.333333% {opacity: 0.88} 63.333333% {opacity: 0.76} 70% {opacity: 1} 90% {opacity: 0.82} 100% {opacity: 1}} #e0fdrmNYspQ161_to {animation: e0fdrmNYspQ161_to__to 3000ms linear infinite normal forwards}@keyframes e0fdrmNYspQ161_to__to { 0% {transform: translate(266.512123px,31.80405px)} 36.666667% {transform: translate(-39.155062px,31.80405px)} 100% {transform: translate(-39.155062px,31.80405px)}} #e0fdrmNYspQ162_to {animation: e0fdrmNYspQ162_to__to 3000ms linear infinite normal forwards}@keyframes e0fdrmNYspQ162_to__to { 0% {transform: translate(246.479557px,16.2582px)} 63.333333% {transform: translate(246.479557px,16.2582px)} 100% {transform: translate(-24.578562px,16px)}} #e0fdrmNYspQ162 {animation: e0fdrmNYspQ162_c_o 3000ms linear infinite normal forwards}@keyframes e0fdrmNYspQ162_c_o { 0% {opacity: 1} 63.333333% {opacity: 1} 100% {opacity: 0}} #e0fdrmNYspQ164 {animation: e0fdrmNYspQ164_c_o 3000ms linear infinite normal forwards}@keyframes e0fdrmNYspQ164_c_o { 0% {opacity: 1} 10% {opacity: 0.33} 23.333333% {opacity: 1} 40% {opacity: 0.49} 63.333333% {opacity: 1} 76.666667% {opacity: 0.31} 100% {opacity: 1}} #e0fdrmNYspQ173 {animation: e0fdrmNYspQ173_c_o 3000ms linear infinite normal forwards}@keyframes e0fdrmNYspQ173_c_o { 0% {opacity: 1} 10% {opacity: 0.33} 20% {opacity: 1} 43.333333% {opacity: 0.49} 73.333333% {opacity: 1} 83.333333% {opacity: 0.31} 100% {opacity: 1}} #e0fdrmNYspQ174 {animation: e0fdrmNYspQ174_c_o 3000ms linear infinite normal forwards}@keyframes e0fdrmNYspQ174_c_o { 0% {opacity: 1} 6.666667% {opacity: 0.63} 20% {opacity: 1} 53.333333% {opacity: 0.88} 63.333333% {opacity: 0.76} 76.666667% {opacity: 1} 83.333333% {opacity: 0.82} 100% {opacity: 1}} #e0fdrmNYspQ182 {animation: e0fdrmNYspQ182_c_o 3000ms linear infinite normal forwards}@keyframes e0fdrmNYspQ182_c_o { 0% {opacity: 1} 10% {opacity: 0.33} 26.666667% {opacity: 1} 36.666667% {opacity: 0.49} 66.666667% {opacity: 1} 80% {opacity: 0.31} 96.666667% {opacity: 1} 100% {opacity: 1}} #e0fdrmNYspQ183 {animation: e0fdrmNYspQ183_c_o 3000ms linear infinite normal forwards}@keyframes e0fdrmNYspQ183_c_o { 0% {opacity: 1} 10% {opacity: 0.33} 26.666667% {opacity: 1} 36.666667% {opacity: 0.49} 66.666667% {opacity: 1} 80% {opacity: 0.31} 96.666667% {opacity: 1} 100% {opacity: 1}} #e0fdrmNYspQ185 {animation: e0fdrmNYspQ185_c_o 3000ms linear infinite normal forwards}@keyframes e0fdrmNYspQ185_c_o { 0% {opacity: 1} 6.666667% {opacity: 0.63} 13.333333% {opacity: 1} 43.333333% {opacity: 0.88} 63.333333% {opacity: 0.76} 70% {opacity: 1} 83.333333% {opacity: 0.82} 100% {opacity: 1}} #e0fdrmNYspQ186 {animation: e0fdrmNYspQ186_c_o 3000ms linear infinite normal forwards}@keyframes e0fdrmNYspQ186_c_o { 0% {opacity: 1} 6.666667% {opacity: 0.16} 13.333333% {opacity: 1} 26.666667% {opacity: 0} 33.333333% {opacity: 1} 46.666667% {opacity: 0} 53.333333% {opacity: 1} 70% {opacity: 0.28} 73.333333% {opacity: 1} 86.666667% {opacity: 0.9} 100% {opacity: 1}} #e0fdrmNYspQ190 {animation: e0fdrmNYspQ190_c_o 3000ms linear infinite normal forwards}@keyframes e0fdrmNYspQ190_c_o { 0% {opacity: 1} 13.333333% {opacity: 0.63} 20% {opacity: 1} 43.333333% {opacity: 0.88} 63.333333% {opacity: 0.76} 70% {opacity: 1} 76.666667% {opacity: 0.82} 100% {opacity: 1}} #e0fdrmNYspQ191 {animation: e0fdrmNYspQ191_c_o 3000ms linear infinite normal forwards}@keyframes e0fdrmNYspQ191_c_o { 0% {opacity: 1} 6.666667% {opacity: 0.16} 13.333333% {opacity: 1} 26.666667% {opacity: 0} 33.333333% {opacity: 1} 46.666667% {opacity: 0} 63.333333% {opacity: 1} 73.333333% {opacity: 0.28} 76.666667% {opacity: 1} 93.333333% {opacity: 0.9} 100% {opacity: 1}} #e0fdrmNYspQ193 {animation: e0fdrmNYspQ193_c_o 3000ms linear infinite normal forwards}@keyframes e0fdrmNYspQ193_c_o { 0% {opacity: 1} 10% {opacity: 0.33} 23.333333% {opacity: 1} 36.666667% {opacity: 0.49} 53.333333% {opacity: 1} 70% {opacity: 0.31} 100% {opacity: 1}} #e0fdrmNYspQ194 {animation: e0fdrmNYspQ194_c_o 3000ms linear infinite normal forwards}@keyframes e0fdrmNYspQ194_c_o { 0% {opacity: 1} 10% {opacity: 0.33} 23.333333% {opacity: 1} 36.666667% {opacity: 0.49} 53.333333% {opacity: 1} 70% {opacity: 0.31} 100% {opacity: 1}} #e0fdrmNYspQ195 {animation: e0fdrmNYspQ195_c_o 3000ms linear infinite normal forwards}@keyframes e0fdrmNYspQ195_c_o { 0% {opacity: 1} 10% {opacity: 0.33} 23.333333% {opacity: 1} 36.666667% {opacity: 0.49} 53.333333% {opacity: 1} 70% {opacity: 0.31} 100% {opacity: 1}} #e0fdrmNYspQ202 {animation: e0fdrmNYspQ202_c_o 3000ms linear infinite normal forwards}@keyframes e0fdrmNYspQ202_c_o { 0% {opacity: 1} 10% {opacity: 0.16} 20% {opacity: 1} 30% {opacity: 0} 46.666667% {opacity: 1} 53.333333% {opacity: 0} 66.666667% {opacity: 1} 70% {opacity: 0.28} 80% {opacity: 1} 93.333333% {opacity: 0.9} 100% {opacity: 1}} #e0fdrmNYspQ209 {animation: e0fdrmNYspQ209_c_o 3000ms linear infinite normal forwards}@keyframes e0fdrmNYspQ209_c_o { 0% {opacity: 1} 6.666667% {opacity: 0.16} 16.666667% {opacity: 1} 26.666667% {opacity: 0} 36.666667% {opacity: 1} 50% {opacity: 0} 63.333333% {opacity: 1} 76.666667% {opacity: 0.28} 80% {opacity: 1} 93.333333% {opacity: 0.9} 100% {opacity: 1}} #e0fdrmNYspQ211 {animation: e0fdrmNYspQ211_c_o 3000ms linear infinite normal forwards}@keyframes e0fdrmNYspQ211_c_o { 0% {opacity: 1} 6.666667% {opacity: 0.63} 13.333333% {opacity: 1} 53.333333% {opacity: 0.88} 63.333333% {opacity: 0.76} 80% {opacity: 1} 86.666667% {opacity: 0.82} 100% {opacity: 1}} #e0fdrmNYspQ212 {animation: e0fdrmNYspQ212_c_o 3000ms linear infinite normal forwards}@keyframes e0fdrmNYspQ212_c_o { 0% {opacity: 1} 10% {opacity: 0.8} 16.666667% {opacity: 1} 23.333333% {opacity: 0.73} 30% {opacity: 1} 40% {opacity: 0.81} 46.666667% {opacity: 1} 56.666667% {opacity: 0.83} 63.333333% {opacity: 1} 70% {opacity: 0.8} 80% {opacity: 1} 90% {opacity: 0.8} 100% {opacity: 0.83}} #e0fdrmNYspQ213 {animation: e0fdrmNYspQ213_c_o 3000ms linear infinite normal forwards}@keyframes e0fdrmNYspQ213_c_o { 0% {opacity: 1} 6.666667% {opacity: 0.63} 13.333333% {opacity: 1} 43.333333% {opacity: 0.88} 63.333333% {opacity: 0.76} 70% {opacity: 1} 90% {opacity: 0.82} 100% {opacity: 1}} #e0fdrmNYspQ214_to {animation: e0fdrmNYspQ214_to__to 3000ms linear infinite normal forwards}@keyframes e0fdrmNYspQ214_to__to { 0% {transform: translate(266.512123px,31.80405px)} 36.666667% {transform: translate(-39.155062px,31.80405px)} 100% {transform: translate(-39.155062px,31.80405px)}} #e0fdrmNYspQ215_to {animation: e0fdrmNYspQ215_to__to 3000ms linear infinite normal forwards}@keyframes e0fdrmNYspQ215_to__to { 0% {transform: translate(246.479557px,16.2582px)} 63.333333% {transform: translate(246.479557px,16.2582px)} 100% {transform: translate(-24.578562px,16px)}} #e0fdrmNYspQ215 {animation: e0fdrmNYspQ215_c_o 3000ms linear infinite normal forwards}@keyframes e0fdrmNYspQ215_c_o { 0% {opacity: 1} 63.333333% {opacity: 1} 100% {opacity: 0}}]]></style><g id="e0fdrmNYspQ2" transform="matrix(0.542003 0 0 0.542003 -21.615445 66.695149)"><path id="e0fdrmNYspQ3" d="M23,18C23.0586,19.632,24.368,20.9414,26,21C24.368,21.0586,23.0586,22.368,23,24C22.9414,22.368,21.632,21.0586,20,21C21.632,20.9414,22.9414,19.632,23,18Z" fill="rgb(255,255,255)" stroke="none" stroke-width="1"/><path id="e0fdrmNYspQ4" d="M201.898,116.396C202.263,114.804,201.337,113.2,199.776,112.721C201.368,113.087,202.971,112.161,203.45,110.6C203.085,112.191,204.011,113.795,205.572,114.274C203.98,113.908,202.376,114.834,201.898,116.396Z" fill="rgb(255,255,255)" stroke="none" stroke-width="1"/><path id="e0fdrmNYspQ5" d="M41,22C41.039,23.088,41.912,23.961,43,24C41.912,24.039,41.039,24.912,41,26C40.961,24.912,40.088,24.039,39,24C40.088,23.961,40.961,23.088,41,22Z" fill="rgb(255,255,255)" stroke="none" stroke-width="1"/><path id="e0fdrmNYspQ6" d="M185.546,107.873C185.79,106.812,185.173,105.743,184.132,105.424C185.193,105.667,186.262,105.05,186.581,104.009C186.338,105.07,186.955,106.14,187.996,106.459C186.935,106.215,185.865,106.832,185.546,107.873Z" transform="matrix(1 0 0 1 0.176 0)" fill="rgb(255,255,255)" stroke="none" stroke-width="1"/><path id="e0fdrmNYspQ7" d="M29.5,42C29.5488,43.36,30.64,44.4512,32,44.5C30.64,44.5488,29.5488,45.64,29.5,47C29.4512,45.64,28.36,44.5488,27,44.5C28.36,44.4512,29.4512,43.36,29.5,42Z" fill="rgb(255,255,255)" stroke="none" stroke-width="1"/><path id="e0fdrmNYspQ8" d="M201.831,91.531C202.136,90.2047,201.364,88.8683,200.063,88.4691C201.389,88.774,202.726,88.0024,203.125,86.7013C202.82,88.0276,203.592,89.3641,204.893,89.7632C203.566,89.4584,202.23,90.23,201.831,91.531Z" fill="rgb(255,255,255)" stroke="none" stroke-width="1"/><path id="e0fdrmNYspQ9" d="M170.179,84.0853C170.545,82.4938,169.619,80.89,168.058,80.411C169.649,80.7769,171.253,79.8509,171.732,78.2897C171.366,79.8813,172.292,81.485,173.854,81.964C172.262,81.5982,170.658,82.5241,170.179,84.0853Z" fill="rgb(255,255,255)" stroke="none" stroke-width="1"/><path id="e0fdrmNYspQ10" d="M40,69C40.0195,69.544,40.456,69.9805,41,70C40.456,70.0195,40.0195,70.456,40,71C39.9805,70.456,39.544,70.0195,39,70C39.544,69.9805,39.9805,69.544,40,69Z" fill="rgb(255,255,255)" stroke="none" stroke-width="1"/><path id="e0fdrmNYspQ11" d="M198.677,62.7334C198.799,62.2029,198.49,61.6683,197.969,61.5086C198.5,61.6306,199.035,61.3219,199.194,60.8015C199.072,61.332,199.381,61.8666,199.901,62.0263C199.371,61.9043,198.836,62.213,198.677,62.7334Z" transform="matrix(1 0 0 1 262.512254 -1.326835)" fill="rgb(255,255,255)" stroke="none" stroke-width="1"/><path id="e0fdrmNYspQ12" d="M54,61C54.0195,61.544,54.456,61.9805,55,62C54.456,62.0195,54.0195,62.456,54,63C53.9805,62.456,53.544,62.0195,53,62C53.544,61.9805,53.9805,61.544,54,61Z" fill="rgb(255,255,255)" stroke="none" stroke-width="1"/><path id="e0fdrmNYspQ13" d="M183.083,66.8373C183.205,66.3068,182.896,65.7722,182.376,65.6126C182.906,65.7345,183.441,65.4259,183.601,64.9055C183.479,65.436,183.787,65.9706,184.308,66.1302C183.777,66.0083,183.243,66.3169,183.083,66.8373Z" transform="matrix(1 0 0 1 262.512254 -1.326835)" fill="rgb(255,255,255)" stroke="none" stroke-width="1"/><path id="e0fdrmNYspQ14" d="M62,27C62.0195,27.544,62.456,27.9805,63,28C62.456,28.0195,62.0195,28.456,62,29C61.9805,28.456,61.544,28.0195,61,28C61.544,27.9805,61.9805,27.544,62,27Z" fill="rgb(255,255,255)" stroke="none" stroke-width="1"/><path id="e0fdrmNYspQ15" d="M166.556,97.6082C166.678,97.0777,166.369,96.5432,165.849,96.3835C166.379,96.5054,166.914,96.1968,167.073,95.6764C166.952,96.2069,167.26,96.7415,167.781,96.9011C167.25,96.7792,166.715,97.0878,166.556,97.6082Z" fill="rgb(255,255,255)" stroke="none" stroke-width="1"/><path id="e0fdrmNYspQ16" d="M95,23C95.0195,23.544,95.456,23.9805,96,24C95.456,24.0195,95.0195,24.456,95,25C94.9805,24.456,94.544,24.0195,94,24C94.544,23.9805,94.9805,23.544,95,23Z" fill="rgb(255,255,255)" stroke="none" stroke-width="1"/><path id="e0fdrmNYspQ17" d="M133.645,92.9309C133.767,92.4004,133.458,91.8658,132.938,91.7062C133.468,91.8281,134.003,91.5195,134.163,90.9991C134.041,91.5296,134.349,92.0642,134.87,92.2238C134.339,92.1019,133.805,92.4105,133.645,92.9309Z" fill="rgb(255,255,255)" stroke="none" stroke-width="1"/><path id="e0fdrmNYspQ18" d="M104,58C104.02,58.544,104.456,58.9805,105,59C104.456,59.0195,104.02,59.456,104,60C103.98,59.456,103.544,59.0195,103,59C103.544,58.9805,103.98,58.544,104,58Z" fill="rgb(255,255,255)" stroke="none" stroke-width="1"/><path id="e0fdrmNYspQ19" d="M134.01,56.7941C134.132,56.2636,133.824,55.7291,133.303,55.5694C133.834,55.6913,134.368,55.3827,134.528,54.8623C134.406,55.3928,134.715,55.9274,135.235,56.087C134.705,55.9651,134.17,56.2737,134.01,56.7941Z" transform="matrix(1 0 0 1 0 0.095747)" fill="rgb(255,255,255)" stroke="none" stroke-width="1"/><path id="e0fdrmNYspQ20" d="M99,78C99.0195,78.544,99.456,78.9805,100,79C99.456,79.0195,99.0195,79.456,99,80C98.9805,79.456,98.544,79.0195,98,79C98.544,78.9805,98.9805,78.544,99,78Z" fill="rgb(255,255,255)" stroke="none" stroke-width="1"/><path id="e0fdrmNYspQ21" d="M144.016,38.7697C144.138,38.2392,143.83,37.7046,143.309,37.545C143.84,37.6669,144.374,37.3583,144.534,36.8379C144.412,37.3684,144.721,37.903,145.241,38.0626C144.711,37.9407,144.176,38.2493,144.016,38.7697Z" transform="matrix(1 0 0 1 262.512254 -1.326835)" fill="rgb(255,255,255)" stroke="none" stroke-width="1"/><path id="e0fdrmNYspQ22" d="M72,87C72.0195,87.544,72.456,87.9805,73,88C72.456,88.0195,72.0195,88.456,72,89C71.9805,88.456,71.544,88.0195,71,88C71.544,87.9805,71.9805,87.544,72,87Z" fill="rgb(255,255,255)" stroke="none" stroke-width="1"/><path id="e0fdrmNYspQ23" d="M172.426,37.0645C172.548,36.534,172.239,35.9994,171.719,35.8398C172.249,35.9617,172.784,35.6531,172.943,35.1327C172.821,35.6632,173.13,36.1977,173.65,36.3574C173.12,36.2355,172.585,36.5441,172.426,37.0645Z" transform="matrix(1 0 0 1 262.512254 -1.326835)" fill="rgb(255,255,255)" stroke="none" stroke-width="1"/><path id="e0fdrmNYspQ24" d="M49,79C49.0195,79.544,49.456,79.9805,50,80C49.456,80.0195,49.0195,80.456,49,81C48.9805,80.456,48.544,80.0195,48,80C48.544,79.9805,48.9805,79.544,49,79Z" fill="rgb(255,255,255)" stroke="none" stroke-width="1"/><path id="e0fdrmNYspQ25" d="M192.571,50.7448C192.693,50.2142,192.385,49.6797,191.864,49.52C192.395,49.6419,192.929,49.3333,193.089,48.8129C192.967,49.3434,193.276,49.878,193.796,50.0376C193.266,49.9157,192.731,50.2243,192.571,50.7448Z" transform="matrix(1 0 0 1 262.512254 -1.326835)" fill="rgb(255,255,255)" stroke="none" stroke-width="1"/><path id="e0fdrmNYspQ26" d="M5,72C5.01952,72.544,5.45601,72.9805,6,73C5.45601,73.0195,5.01952,73.456,5,74C4.98048,73.456,4.54399,73.0195,4,73C4.54399,72.9805,4.98048,72.544,5,72Z" transform="matrix(1 0 0 1 0 0.095747)" fill="rgb(255,255,255)" stroke="none" stroke-width="1"/><path id="e0fdrmNYspQ27" d="M6,33C6.01952,33.544,6.45601,33.9805,7,34C6.45601,34.0195,6.01952,34.456,6,35C5.98048,34.456,5.54399,34.0195,5,34C5.54399,33.9805,5.98048,33.544,6,33Z" fill="rgb(255,255,255)" stroke="none" stroke-width="1"/><path id="e0fdrmNYspQ28" d="M15,55C15.0586,56.632,16.368,57.9414,18,58C16.368,58.0586,15.0586,59.368,15,61C14.9414,59.368,13.632,58.0586,12,58C13.632,57.9414,14.9414,56.632,15,55Z" fill="rgb(255,255,255)" stroke="none" stroke-width="1"/><path id="e0fdrmNYspQ29" d="M219.201,82.7268C219.567,81.1353,218.641,79.5316,217.08,79.0526C218.671,79.4184,220.275,78.4925,220.754,76.9313C220.388,78.5228,221.314,80.1265,222.875,80.6055C221.284,80.2397,219.68,81.1656,219.201,82.7268Z" transform="matrix(1 0 0 1 -31.8055 -26.116525)" fill="rgb(255,255,255)" stroke="none" stroke-width="1"/><path id="e0fdrmNYspQ30" d="M75,73C75.0586,74.632,76.368,75.9414,78,76C76.368,76.0586,75.0586,77.368,75,79C74.9414,77.368,73.632,76.0586,72,76C73.632,75.9414,74.9414,74.632,75,73Z" fill="rgb(255,255,255)" stroke="none" stroke-width="1"/><path id="e0fdrmNYspQ31" d="M165.904,49.811C166.27,48.2195,165.344,46.6157,163.783,46.1368C165.375,46.5026,166.978,45.5767,167.457,44.0155C167.092,45.607,168.017,47.2107,169.579,47.6897C167.987,47.3239,166.383,48.2498,165.904,49.811Z" transform="matrix(1 0 0 1 262.512254 -1.326835)" fill="rgb(255,255,255)" stroke="none" stroke-width="1"/><path id="e0fdrmNYspQ32" d="M74,16C74.039,17.088,74.912,17.961,76,18C74.912,18.039,74.039,18.912,74,20C73.961,18.912,73.088,18.039,72,18C73.088,17.961,73.961,17.088,74,16Z" fill="rgb(255,255,255)" stroke="none" stroke-width="1"/><path id="e0fdrmNYspQ33" d="M152.118,105.128C152.362,104.067,151.744,102.997,150.703,102.678C151.764,102.922,152.834,102.305,153.153,101.264C152.909,102.325,153.526,103.394,154.567,103.713C153.506,103.47,152.437,104.087,152.118,105.128Z" fill="rgb(255,255,255)" stroke="none" stroke-width="1"/><path id="e0fdrmNYspQ34" d="M100,4C100.059,5.63198,101.368,6.94143,103,7C101.368,7.05857,100.059,8.36802,100,10C99.9414,8.36802,98.632,7.05857,97,7C98.632,6.94143,99.9414,5.63198,100,4Z" fill="rgb(255,255,255)" stroke="none" stroke-width="1"/><path id="e0fdrmNYspQ35" d="M123.898,109.989C124.264,108.398,123.338,106.794,121.776,106.315C123.368,106.681,124.972,105.755,125.451,104.194C125.085,105.785,126.011,107.389,127.572,107.868C125.98,107.502,124.377,108.428,123.898,109.989Z" fill="rgb(255,255,255)" stroke="none" stroke-width="1"/><path id="e0fdrmNYspQ36" d="M91,96C91.0586,97.632,92.368,98.9414,94,99C92.368,99.0586,91.0586,100.368,91,102C90.9414,100.368,89.632,99.0586,88,99C89.632,98.9414,90.9414,97.632,91,96Z" fill="rgb(255,255,255)" stroke="none" stroke-width="1"/><path id="e0fdrmNYspQ37" d="M156.402,23.4536C156.768,21.8621,155.842,20.2583,154.281,19.7794C155.873,20.1452,157.476,19.2193,157.955,17.6581C157.59,19.2496,158.515,20.8533,160.077,21.3323C158.485,20.9665,156.881,21.8924,156.402,23.4536Z" fill="rgb(255,255,255)" stroke="none" stroke-width="1"/><path id="e0fdrmNYspQ38" d="M46,99C46.0586,100.632,47.368,101.941,49,102C47.368,102.059,46.0586,103.368,46,105C45.9414,103.368,44.632,102.059,43,102C44.632,101.941,45.9414,100.632,46,99Z" fill="rgb(255,255,255)" stroke="none" stroke-width="1"/><path id="e0fdrmNYspQ39" d="M18.5,99C18.5293,99.816,19.184,100.471,20,100.5C19.184,100.529,18.5293,101.184,18.5,102C18.4707,101.184,17.816,100.529,17,100.5C17.816,100.471,18.4707,99.816,18.5,99Z" fill="rgb(255,255,255)" stroke="none" stroke-width="1"/><path id="e0fdrmNYspQ40" d="M227.209,39.3202C227.391,38.5245,226.928,37.7226,226.148,37.4831C226.944,37.666,227.746,37.203,227.985,36.4224C227.802,37.2182,228.265,38.0201,229.046,38.2596C228.25,38.0767,227.448,38.5396,227.209,39.3202Z" transform="matrix(1 0 0 1 0.48171 0)" fill="rgb(255,255,255)" stroke="none" stroke-width="1"/><path id="e0fdrmNYspQ41" d="M227.209,39.3202C227.391,38.5245,226.928,37.7226,226.148,37.4831C226.944,37.666,227.746,37.203,227.985,36.4224C227.802,37.2182,228.265,38.0201,229.046,38.2596C228.25,38.0767,227.448,38.5396,227.209,39.3202Z" transform="matrix(1 0 0 1 24.799912 29.6798)" fill="rgb(255,255,255)" stroke="none" stroke-width="1"/><path id="e0fdrmNYspQ42" d="M227.209,39.3202C227.391,38.5245,226.928,37.7226,226.148,37.4831C226.944,37.666,227.746,37.203,227.985,36.4224C227.802,37.2182,228.265,38.0201,229.046,38.2596C228.25,38.0767,227.448,38.5396,227.209,39.3202Z" transform="matrix(1 0 0 1 119.963085 44.7651)" fill="rgb(255,255,255)" stroke="none" stroke-width="1"/><path id="e0fdrmNYspQ43" d="M26.5,79C26.5293,79.816,27.184,80.4707,28,80.5C27.184,80.5293,26.5293,81.184,26.5,82C26.4707,81.184,25.816,80.5293,25,80.5C25.816,80.4707,26.4707,79.816,26.5,79Z" fill="rgb(255,255,255)" stroke="none" stroke-width="1"/><path id="e0fdrmNYspQ44" d="M214.305,56.5682C214.488,55.7724,214.025,54.9706,213.244,54.7311C214.04,54.914,214.842,54.451,215.081,53.6704C214.898,54.4662,215.361,55.268,216.142,55.5075C215.346,55.3246,214.544,55.7876,214.305,56.5682Z" transform="matrix(1 0 0 1 262.512254 -1.326835)" fill="rgb(255,255,255)" stroke="none" stroke-width="1"/><path id="e0fdrmNYspQ45" d="M85,59C85.039,60.088,85.912,60.961,87,61C85.912,61.039,85.039,61.912,85,63C84.961,61.912,84.088,61.039,83,61C84.088,60.961,84.961,60.088,85,59Z" fill="rgb(255,255,255)" stroke="none" stroke-width="1"/><path id="e0fdrmNYspQ46" d="M152.622,60.7458C152.866,59.6848,152.248,58.6156,151.207,58.2963C152.269,58.5402,153.338,57.9229,153.657,56.8821C153.413,57.9431,154.03,59.0123,155.071,59.3316C154.01,59.0877,152.941,59.705,152.622,60.7458Z" transform="matrix(1 0 0 1 262.512254 -1.326835)" fill="rgb(255,255,255)" stroke="none" stroke-width="1"/><path id="e0fdrmNYspQ47" d="M39,10C39,10.5523,38.5523,11,38,11C37.4477,11,37,10.5523,37,10C37,9.44772,37.4477,9,38,9C38.5523,9,39,9.44772,39,10Z" fill="rgb(255,255,255)" stroke="none" stroke-width="1"/><path id="e0fdrmNYspQ48" d="M184.372,119.982C184.515,119.448,185.063,119.132,185.597,119.275C186.13,119.418,186.447,119.966,186.304,120.499C186.161,121.033,185.613,121.35,185.079,121.207C184.546,121.064,184.229,120.515,184.372,119.982Z" fill="rgb(255,255,255)" stroke="none" stroke-width="1"/><path id="e0fdrmNYspQ49" d="M60,33.5C60,33.7761,59.7761,34,59.5,34C59.2239,34,59,33.7761,59,33.5C59,33.2239,59.2239,33,59.5,33C59.7761,33,60,33.2239,60,33.5Z" fill="rgb(255,255,255)" stroke="none" stroke-width="1"/><path id="e0fdrmNYspQ50" d="M170.17,91.8474C170.241,91.5806,170.516,91.4223,170.782,91.4938C171.049,91.5653,171.207,91.8395,171.136,92.1062C171.064,92.3729,170.79,92.5312,170.524,92.4597C170.257,92.3883,170.099,92.1141,170.17,91.8474Z" fill="rgb(255,255,255)" stroke="none" stroke-width="1"/><path id="e0fdrmNYspQ51" d="M49,44C49,44.5523,48.5523,45,48,45C47.4477,45,47,44.5523,47,44C47,43.4477,47.4477,43,48,43C48.5523,43,49,43.4477,49,44Z" fill="rgb(255,255,255)" stroke="none" stroke-width="1"/><path id="e0fdrmNYspQ52" d="M183.513,84.5522C183.656,84.0187,184.204,83.7021,184.738,83.845C185.271,83.988,185.588,84.5363,185.445,85.0698C185.302,85.6033,184.753,85.9198,184.22,85.7769C183.686,85.634,183.37,85.0856,183.513,84.5522Z" fill="rgb(255,255,255)" stroke="none" stroke-width="1"/><path id="e0fdrmNYspQ53" d="M9,48.5C9,48.7761,8.77614,49,8.5,49C8.22386,49,8,48.7761,8,48.5C8,48.2239,8.22386,48,8.5,48C8.77614,48,9,48.2239,9,48.5Z" fill="rgb(255,255,255)" stroke="none" stroke-width="1"/><path id="e0fdrmNYspQ54" d="M63,100C63,100.552,62.5523,101,62,101C61.4477,101,61,100.552,61,100C61,99.4477,61.4477,99,62,99C62.5523,99,63,99.4477,63,100Z" fill="rgb(255,255,255)" stroke="none" stroke-width="1"/><path id="e0fdrmNYspQ55" d="M184.484,26.8368C184.627,26.3034,185.175,25.9868,185.708,26.1297C186.242,26.2727,186.558,26.821,186.416,27.3545C186.273,27.8879,185.724,28.2045,185.191,28.0616C184.657,27.9186,184.341,27.3703,184.484,26.8368Z" fill="rgb(255,255,255)" stroke="none" stroke-width="1"/><path id="e0fdrmNYspQ56" d="M87,110C87,110.552,86.5523,111,86,111C85.4477,111,85,110.552,85,110C85,109.448,85.4477,109,86,109C86.5523,109,87,109.448,87,110Z" fill="rgb(255,255,255)" stroke="none" stroke-width="1"/><path id="e0fdrmNYspQ57" d="M163.89,10.9659C164.033,10.4325,164.581,10.1159,165.114,10.2588C165.648,10.4018,165.964,10.9501,165.822,11.4836C165.679,12.017,165.13,12.3336,164.597,12.1907C164.063,12.0477,163.747,11.4994,163.89,10.9659Z" fill="rgb(255,255,255)" stroke="none" stroke-width="1"/><path id="e0fdrmNYspQ58" d="M103,92.5C103,92.7761,102.776,93,102.5,93C102.224,93,102,92.7761,102,92.5C102,92.2239,102.224,92,102.5,92C102.776,92,103,92.2239,103,92.5Z" fill="rgb(255,255,255)" stroke="none" stroke-width="1"/><path id="e0fdrmNYspQ59" d="M143.905,23.7285C143.977,23.4618,144.251,23.3035,144.518,23.375C144.785,23.4464,144.943,23.7206,144.871,23.9873C144.8,24.2541,144.526,24.4124,144.259,24.3409C143.992,24.2694,143.834,23.9953,143.905,23.7285Z" transform="matrix(1 0 0 1 0 0.095747)" fill="rgb(255,255,255)" stroke="none" stroke-width="1"/><path id="e0fdrmNYspQ60" d="M77,40.5C77,40.7761,76.7761,41,76.5,41C76.2239,41,76,40.7761,76,40.5C76,40.2239,76.2239,40,76.5,40C76.7761,40,77,40.2239,77,40.5Z" transform="matrix(1 0 0 1 0 0.095747)" fill="rgb(255,255,255)" stroke="none" stroke-width="1"/><path id="e0fdrmNYspQ61" d="M155.561,80.686C155.632,80.4192,155.907,80.2609,156.173,80.3324C156.44,80.4039,156.598,80.678,156.527,80.9448C156.455,81.2115,156.181,81.3698,155.915,81.2983C155.648,81.2269,155.49,80.9527,155.561,80.686Z" fill="rgb(255,255,255)" stroke="none" stroke-width="1"/><path id="e0fdrmNYspQ62" d="M81,12C81,12.5523,80.5523,13,80,13C79.4477,13,79,12.5523,79,12C79,11.4477,79.4477,11,80,11C80.5523,11,81,11.4477,81,12Z" fill="rgb(255,255,255)" stroke="none" stroke-width="1"/><path id="e0fdrmNYspQ63" d="M144.321,107.18C144.464,106.646,145.012,106.33,145.546,106.472C146.079,106.615,146.396,107.164,146.253,107.697C146.11,108.231,145.561,108.547,145.028,108.404C144.495,108.261,144.178,107.713,144.321,107.18Z" transform="matrix(1 0 0 1 0 0.095747)" fill="rgb(255,255,255)" stroke="none" stroke-width="1"/><path id="e0fdrmNYspQ64" d="M40,115C40,115.552,39.5523,116,39,116C38.4477,116,38,115.552,38,115C38,114.448,38.4477,114,39,114C39.5523,114,40,114.448,40,115Z" fill="rgb(255,255,255)" stroke="none" stroke-width="1"/><path id="e0fdrmNYspQ65" d="M210.582,18.3008C210.725,17.7673,211.274,17.4507,211.807,17.5937C212.34,17.7366,212.657,18.285,212.514,18.8184C212.371,19.3519,211.823,19.6685,211.289,19.5255C210.756,19.3826,210.439,18.8343,210.582,18.3008Z" fill="rgb(255,255,255)" stroke="none" stroke-width="1"/><path id="e0fdrmNYspQ66" d="M13,87.5C13,87.7761,12.7761,88,12.5,88C12.2239,88,12,87.7761,12,87.5C12,87.2239,12.2239,87,12.5,87C12.7761,87,13,87.2239,13,87.5Z" fill="rgb(255,255,255)" stroke="none" stroke-width="1"/><path id="e0fdrmNYspQ67" d="M229.545,51.8519C229.616,51.5851,229.89,51.4268,230.157,51.4983C230.424,51.5698,230.582,51.844,230.511,52.1107C230.439,52.3774,230.165,52.5357,229.898,52.4642C229.632,52.3928,229.473,52.1186,229.545,51.8519Z" transform="matrix(1 0 0 1 0 0.095747)" fill="rgb(255,255,255)" stroke="none" stroke-width="1"/><g id="e0fdrmNYspQ68_to" transform="translate(266.512123,31.80405)"><ellipse id="e0fdrmNYspQ68" rx="20.5765" ry="0.39865" transform="translate(0,0)" fill="rgb(210,219,237)" stroke="none" stroke-width="0"/></g><g id="e0fdrmNYspQ69_to" transform="translate(246.479557,16.2582)"><ellipse id="e0fdrmNYspQ69" rx="6" ry="0.2582" transform="translate(0,0)" fill="rgb(210,219,237)" stroke="none" stroke-width="0"/></g></g><g id="e0fdrmNYspQ70" transform="matrix(0.492767 0 0 0.492767 1.834309 -6.683973)"><path id="e0fdrmNYspQ71" d="M23,18C23.0586,19.632,24.368,20.9414,26,21C24.368,21.0586,23.0586,22.368,23,24C22.9414,22.368,21.632,21.0586,20,21C21.632,20.9414,22.9414,19.632,23,18Z" fill="rgb(255,255,255)" stroke="none" stroke-width="1"/><path id="e0fdrmNYspQ72" d="M201.898,116.396C202.263,114.804,201.337,113.2,199.776,112.721C201.368,113.087,202.971,112.161,203.45,110.6C203.085,112.191,204.011,113.795,205.572,114.274C203.98,113.908,202.376,114.834,201.898,116.396Z" fill="rgb(255,255,255)" stroke="none" stroke-width="1"/><path id="e0fdrmNYspQ73" d="M41,22C41.039,23.088,41.912,23.961,43,24C41.912,24.039,41.039,24.912,41,26C40.961,24.912,40.088,24.039,39,24C40.088,23.961,40.961,23.088,41,22Z" fill="rgb(255,255,255)" stroke="none" stroke-width="1"/><path id="e0fdrmNYspQ74" d="M185.546,107.873C185.79,106.812,185.173,105.743,184.132,105.424C185.193,105.667,186.262,105.05,186.581,104.009C186.338,105.07,186.955,106.14,187.996,106.459C186.935,106.215,185.865,106.832,185.546,107.873Z" transform="matrix(1 0 0 1 0.176 0)" fill="rgb(255,255,255)" stroke="none" stroke-width="1"/><path id="e0fdrmNYspQ75" d="M29.5,42C29.5488,43.36,30.64,44.4512,32,44.5C30.64,44.5488,29.5488,45.64,29.5,47C29.4512,45.64,28.36,44.5488,27,44.5C28.36,44.4512,29.4512,43.36,29.5,42Z" fill="rgb(255,255,255)" stroke="none" stroke-width="1"/><path id="e0fdrmNYspQ76" d="M201.831,91.531C202.136,90.2047,201.364,88.8683,200.063,88.4691C201.389,88.774,202.726,88.0024,203.125,86.7013C202.82,88.0276,203.592,89.3641,204.893,89.7632C203.566,89.4584,202.23,90.23,201.831,91.531Z" fill="rgb(255,255,255)" stroke="none" stroke-width="1"/><path id="e0fdrmNYspQ77" d="M77,47C77.0586,48.632,78.368,49.9414,80,50C78.368,50.0586,77.0586,51.368,77,53C76.9414,51.368,75.632,50.0586,74,50C75.632,49.9414,76.9414,48.632,77,47Z" fill="rgb(255,255,255)" stroke="none" stroke-width="1"/><path id="e0fdrmNYspQ78" d="M170.179,84.0853C170.545,82.4938,169.619,80.89,168.058,80.411C169.649,80.7769,171.253,79.8509,171.732,78.2897C171.366,79.8813,172.292,81.485,173.854,81.964C172.262,81.5982,170.658,82.5241,170.179,84.0853Z" transform="matrix(1 0 0 1 196.27547 -28.696659)" fill="rgb(255,255,255)" stroke="none" stroke-width="1"/><path id="e0fdrmNYspQ79" d="M40,69C40.0195,69.544,40.456,69.9805,41,70C40.456,70.0195,40.0195,70.456,40,71C39.9805,70.456,39.544,70.0195,39,70C39.544,69.9805,39.9805,69.544,40,69Z" transform="matrix(1 0 0 1 224.21347 102.795439)" fill="rgb(255,255,255)" stroke="none" stroke-width="1"/><path id="e0fdrmNYspQ80" d="M40,69C40.0195,69.544,40.456,69.9805,41,70C40.456,70.0195,40.0195,70.456,40,71C39.9805,70.456,39.544,70.0195,39,70C39.544,69.9805,39.9805,69.544,40,69Z" transform="matrix(1 0 0 1 -13.000001 19.148338)" fill="rgb(255,255,255)" stroke="none" stroke-width="1"/><path id="e0fdrmNYspQ81" d="M198.677,62.7334C198.799,62.2029,198.49,61.6683,197.969,61.5086C198.5,61.6306,199.035,61.3219,199.194,60.8015C199.072,61.332,199.381,61.8666,199.901,62.0263C199.371,61.9043,198.836,62.213,198.677,62.7334Z" fill="rgb(255,255,255)" stroke="none" stroke-width="1"/><path id="e0fdrmNYspQ82" d="M198.677,62.7334C198.799,62.2029,198.49,61.6683,197.969,61.5086C198.5,61.6306,199.035,61.3219,199.194,60.8015C199.072,61.332,199.381,61.8666,199.901,62.0263C199.371,61.9043,198.836,62.213,198.677,62.7334Z" fill="rgb(255,255,255)" stroke="none" stroke-width="1"/><path id="e0fdrmNYspQ83" d="M198.677,62.7334C198.799,62.2029,198.49,61.6683,197.969,61.5086C198.5,61.6306,199.035,61.3219,199.194,60.8015C199.072,61.332,199.381,61.8666,199.901,62.0263C199.371,61.9043,198.836,62.213,198.677,62.7334Z" transform="matrix(1.12398 0 0 0.394821 -32.216392 38.976474)" fill="rgb(255,255,255)" stroke="none" stroke-width="1"/><path id="e0fdrmNYspQ84" d="M54,61C54.0195,61.544,54.456,61.9805,55,62C54.456,62.0195,54.0195,62.456,54,63C53.9805,62.456,53.544,62.0195,53,62C53.544,61.9805,53.9805,61.544,54,61Z" transform="matrix(1 0 0 1 224.21347 102.795439)" fill="rgb(255,255,255)" stroke="none" stroke-width="1"/><path id="e0fdrmNYspQ85" d="M54,61C54.0195,61.544,54.456,61.9805,55,62C54.456,62.0195,54.0195,62.456,54,63C53.9805,62.456,53.544,62.0195,53,62C53.544,61.9805,53.9805,61.544,54,61Z" transform="matrix(1 0 0 1 -13.000001 19.148338)" fill="rgb(255,255,255)" stroke="none" stroke-width="1"/><path id="e0fdrmNYspQ86" d="M183.083,66.8373C183.205,66.3068,182.896,65.7722,182.376,65.6126C182.906,65.7345,183.441,65.4259,183.601,64.9055C183.479,65.436,183.787,65.9706,184.308,66.1302C183.777,66.0083,183.243,66.3169,183.083,66.8373Z" fill="rgb(255,255,255)" stroke="none" stroke-width="1"/><path id="e0fdrmNYspQ87" d="M62,27C62.0195,27.544,62.456,27.9805,63,28C62.456,28.0195,62.0195,28.456,62,29C61.9805,28.456,61.544,28.0195,61,28C61.544,27.9805,61.9805,27.544,62,27Z" fill="rgb(255,255,255)" stroke="none" stroke-width="1"/><path id="e0fdrmNYspQ88" d="M166.556,97.6082C166.678,97.0777,166.369,96.5432,165.849,96.3835C166.379,96.5054,166.914,96.1968,167.073,95.6764C166.952,96.2069,167.26,96.7415,167.781,96.9011C167.25,96.7792,166.715,97.0878,166.556,97.6082Z" transform="matrix(1 0 0 1 196.27547 -28.696659)" fill="rgb(255,255,255)" stroke="none" stroke-width="1"/><path id="e0fdrmNYspQ89" d="M95,23C95.0195,23.544,95.456,23.9805,96,24C95.456,24.0195,95.0195,24.456,95,25C94.9805,24.456,94.544,24.0195,94,24C94.544,23.9805,94.9805,23.544,95,23Z" fill="rgb(255,255,255)" stroke="none" stroke-width="1"/><path id="e0fdrmNYspQ90" d="M133.645,92.9309C133.767,92.4004,133.458,91.8658,132.938,91.7062C133.468,91.8281,134.003,91.5195,134.163,90.9991C134.041,91.5296,134.349,92.0642,134.87,92.2238C134.339,92.1019,133.805,92.4105,133.645,92.9309Z" transform="matrix(1 0 0 1 196.275469 -28.982817)" fill="rgb(255,255,255)" stroke="none" stroke-width="1"/><path id="e0fdrmNYspQ91" d="M133.645,92.9309C133.767,92.4004,133.458,91.8658,132.938,91.7062C133.468,91.8281,134.003,91.5195,134.163,90.9991C134.041,91.5296,134.349,92.0642,134.87,92.2238C134.339,92.1019,133.805,92.4105,133.645,92.9309Z" transform="matrix(1 0 0 1 245.708099 -33.965)" fill="rgb(255,255,255)" stroke="none" stroke-width="1"/><path id="e0fdrmNYspQ92" d="M133.645,92.9309C133.767,92.4004,133.458,91.8658,132.938,91.7062C133.468,91.8281,134.003,91.5195,134.163,90.9991C134.041,91.5296,134.349,92.0642,134.87,92.2238C134.339,92.1019,133.805,92.4105,133.645,92.9309Z" transform="matrix(1 0 0 1 164.731367 -11.782561)" fill="rgb(255,255,255)" stroke="none" stroke-width="1"/><path id="e0fdrmNYspQ93" d="M133.645,92.9309C133.767,92.4004,133.458,91.8658,132.938,91.7062C133.468,91.8281,134.003,91.5195,134.163,90.9991C134.041,91.5296,134.349,92.0642,134.87,92.2238C134.339,92.1019,133.805,92.4105,133.645,92.9309Z" transform="matrix(1 0 0 1 128.140986 -37.54226)" fill="rgb(255,255,255)" stroke="none" stroke-width="1"/><path id="e0fdrmNYspQ94" d="M133.645,92.9309C133.767,92.4004,133.458,91.8658,132.938,91.7062C133.468,91.8281,134.003,91.5195,134.163,90.9991C134.041,91.5296,134.349,92.0642,134.87,92.2238C134.339,92.1019,133.805,92.4105,133.645,92.9309Z" transform="matrix(1 0 0 1 103.420254 -8.850761)" fill="rgb(255,255,255)" stroke="none" stroke-width="1"/><path id="e0fdrmNYspQ95" d="M104,58C104.02,58.544,104.456,58.9805,105,59C104.456,59.0195,104.02,59.456,104,60C103.98,59.456,103.544,59.0195,103,59C103.544,58.9805,103.98,58.544,104,58Z" transform="matrix(1 0 0 1 224.21347 102.795439)" fill="rgb(255,255,255)" stroke="none" stroke-width="1"/><path id="e0fdrmNYspQ96" d="M104,58C104.02,58.544,104.456,58.9805,105,59C104.456,59.0195,104.02,59.456,104,60C103.98,59.456,103.544,59.0195,103,59C103.544,58.9805,103.98,58.544,104,58Z" transform="matrix(1 0 0 1 -13.000001 19.148338)" fill="rgb(255,255,255)" stroke="none" stroke-width="1"/><path id="e0fdrmNYspQ97" d="M134.01,56.7941C134.132,56.2636,133.824,55.7291,133.303,55.5694C133.834,55.6913,134.368,55.3827,134.528,54.8623C134.406,55.3928,134.715,55.9274,135.235,56.087C134.705,55.9651,134.17,56.2737,134.01,56.7941Z" transform="matrix(1 0 0 1 0 0.095747)" fill="rgb(255,255,255)" stroke="none" stroke-width="1"/><path id="e0fdrmNYspQ98" d="M99,78C99.0195,78.544,99.456,78.9805,100,79C99.456,79.0195,99.0195,79.456,99,80C98.9805,79.456,98.544,79.0195,98,79C98.544,78.9805,98.9805,78.544,99,78Z" transform="matrix(1 0 0 1 224.21347 102.795439)" fill="rgb(255,255,255)" stroke="none" stroke-width="1"/><path id="e0fdrmNYspQ99" d="M99,78C99.0195,78.544,99.456,78.9805,100,79C99.456,79.0195,99.0195,79.456,99,80C98.9805,79.456,98.544,79.0195,98,79C98.544,78.9805,98.9805,78.544,99,78Z" transform="matrix(1 0 0 1 -13.000001 19.148338)" fill="rgb(255,255,255)" stroke="none" stroke-width="1"/><path id="e0fdrmNYspQ100" d="M144.016,38.7697C144.138,38.2392,143.83,37.7046,143.309,37.545C143.84,37.6669,144.374,37.3583,144.534,36.8379C144.412,37.3684,144.721,37.903,145.241,38.0626C144.711,37.9407,144.176,38.2493,144.016,38.7697Z" fill="rgb(255,255,255)" stroke="none" stroke-width="1"/><path id="e0fdrmNYspQ101" d="M72,87C72.0195,87.544,72.456,87.9805,73,88C72.456,88.0195,72.0195,88.456,72,89C71.9805,88.456,71.544,88.0195,71,88C71.544,87.9805,71.9805,87.544,72,87Z" transform="matrix(1 0 0 1 224.21347 102.795439)" fill="rgb(255,255,255)" stroke="none" stroke-width="1"/><path id="e0fdrmNYspQ102" d="M72,87C72.0195,87.544,72.456,87.9805,73,88C72.456,88.0195,72.0195,88.456,72,89C71.9805,88.456,71.544,88.0195,71,88C71.544,87.9805,71.9805,87.544,72,87Z" transform="matrix(1 0 0 1 -13.000001 19.148338)" fill="rgb(255,255,255)" stroke="none" stroke-width="1"/><path id="e0fdrmNYspQ103" d="M172.426,37.0645C172.548,36.534,172.239,35.9994,171.719,35.8398C172.249,35.9617,172.784,35.6531,172.943,35.1327C172.821,35.6632,173.13,36.1977,173.65,36.3574C173.12,36.2355,172.585,36.5441,172.426,37.0645Z" fill="rgb(255,255,255)" stroke="none" stroke-width="1"/><path id="e0fdrmNYspQ104" d="M49,79C49.0195,79.544,49.456,79.9805,50,80C49.456,80.0195,49.0195,80.456,49,81C48.9805,80.456,48.544,80.0195,48,80C48.544,79.9805,48.9805,79.544,49,79Z" transform="matrix(1 0 0 1 224.21347 102.795439)" fill="rgb(255,255,255)" stroke="none" stroke-width="1"/><path id="e0fdrmNYspQ105" d="M49,79C49.0195,79.544,49.456,79.9805,50,80C49.456,80.0195,49.0195,80.456,49,81C48.9805,80.456,48.544,80.0195,48,80C48.544,79.9805,48.9805,79.544,49,79Z" transform="matrix(1 0 0 1 -13.000001 19.148338)" fill="rgb(255,255,255)" stroke="none" stroke-width="1"/><path id="e0fdrmNYspQ106" d="M192.571,50.7448C192.693,50.2142,192.385,49.6797,191.864,49.52C192.395,49.6419,192.929,49.3333,193.089,48.8129C192.967,49.3434,193.276,49.878,193.796,50.0376C193.266,49.9157,192.731,50.2243,192.571,50.7448Z" fill="rgb(255,255,255)" stroke="none" stroke-width="1"/><path id="e0fdrmNYspQ107" d="M5,72C5.01952,72.544,5.45601,72.9805,6,73C5.45601,73.0195,5.01952,73.456,5,74C4.98048,73.456,4.54399,73.0195,4,73C4.54399,72.9805,4.98048,72.544,5,72Z" transform="matrix(1 0 0 1 0 0.095747)" fill="rgb(255,255,255)" stroke="none" stroke-width="1"/><path id="e0fdrmNYspQ108" d="M6,33C6.01952,33.544,6.45601,33.9805,7,34C6.45601,34.0195,6.01952,34.456,6,35C5.98048,34.456,5.54399,34.0195,5,34C5.54399,33.9805,5.98048,33.544,6,33Z" fill="rgb(255,255,255)" stroke="none" stroke-width="1"/><path id="e0fdrmNYspQ109" d="M15,55C15.0586,56.632,16.368,57.9414,18,58C16.368,58.0586,15.0586,59.368,15,61C14.9414,59.368,13.632,58.0586,12,58C13.632,57.9414,14.9414,56.632,15,55Z" fill="rgb(255,255,255)" stroke="none" stroke-width="1"/><path id="e0fdrmNYspQ110" d="M219.201,82.7268C219.567,81.1353,218.641,79.5316,217.08,79.0526C218.671,79.4184,220.275,78.4925,220.754,76.9313C220.388,78.5228,221.314,80.1265,222.875,80.6055C221.284,80.2397,219.68,81.1656,219.201,82.7268Z" transform="matrix(1 0 0 1 230.616804 -51.9313)" fill="rgb(255,255,255)" stroke="none" stroke-width="1"/><path id="e0fdrmNYspQ111" d="M75,73C75.0586,74.632,76.368,75.9414,78,76C76.368,76.0586,75.0586,77.368,75,79C74.9414,77.368,73.632,76.0586,72,76C73.632,75.9414,74.9414,74.632,75,73Z" transform="matrix(1 0 0 1 224.21347 102.795439)" fill="rgb(255,255,255)" stroke="none" stroke-width="1"/><path id="e0fdrmNYspQ112" d="M75,73C75.0586,74.632,76.368,75.9414,78,76C76.368,76.0586,75.0586,77.368,75,79C74.9414,77.368,73.632,76.0586,72,76C73.632,75.9414,74.9414,74.632,75,73Z" transform="matrix(1 0 0 1 88.681001 50.475403)" fill="rgb(255,255,255)" stroke="none" stroke-width="1"/><path id="e0fdrmNYspQ113" d="M165.904,49.811C166.27,48.2195,165.344,46.6157,163.783,46.1368C165.375,46.5026,166.978,45.5767,167.457,44.0155C167.092,45.607,168.017,47.2107,169.579,47.6897C167.987,47.3239,166.383,48.2498,165.904,49.811Z" fill="rgb(255,255,255)" stroke="none" stroke-width="1"/><path id="e0fdrmNYspQ114" d="M109,39C109.059,40.632,110.368,41.9414,112,42C110.368,42.0586,109.059,43.368,109,45C108.941,43.368,107.632,42.0586,106,42C107.632,41.9414,108.941,40.632,109,39Z" fill="rgb(255,255,255)" stroke="none" stroke-width="1"/><path id="e0fdrmNYspQ115" d="M137.647,85.7211C138.013,84.1296,137.087,82.5259,135.526,82.0469C137.118,82.4127,138.721,81.4868,139.2,79.9256C138.834,81.5171,139.76,83.1209,141.322,83.5998C139.73,83.234,138.126,84.1599,137.647,85.7211Z" transform="matrix(1 0 0 1 196.27547 -28.696659)" fill="rgb(255,255,255)" stroke="none" stroke-width="1"/><path id="e0fdrmNYspQ116" d="M74,16C74.039,17.088,74.912,17.961,76,18C74.912,18.039,74.039,18.912,74,20C73.961,18.912,73.088,18.039,72,18C73.088,17.961,73.961,17.088,74,16Z" fill="rgb(255,255,255)" stroke="none" stroke-width="1"/><path id="e0fdrmNYspQ117" d="M152.118,105.128C152.362,104.067,151.744,102.997,150.703,102.678C151.764,102.922,152.834,102.305,153.153,101.264C152.909,102.325,153.526,103.394,154.567,103.713C153.506,103.47,152.437,104.087,152.118,105.128Z" transform="matrix(1 0 0 1 196.27547 -28.696659)" fill="rgb(255,255,255)" stroke="none" stroke-width="1"/><path id="e0fdrmNYspQ118" d="M100,4C100.059,5.63198,101.368,6.94143,103,7C101.368,7.05857,100.059,8.36802,100,10C99.9414,8.36802,98.632,7.05857,97,7C98.632,6.94143,99.9414,5.63198,100,4Z" fill="rgb(255,255,255)" stroke="none" stroke-width="1"/><path id="e0fdrmNYspQ119" d="M123.898,109.989C124.264,108.398,123.338,106.794,121.776,106.315C123.368,106.681,124.972,105.755,125.451,104.194C125.085,105.785,126.011,107.389,127.572,107.868C125.98,107.502,124.377,108.428,123.898,109.989Z" transform="matrix(1 0 0 1 140.599222 5.011)" fill="rgb(255,255,255)" stroke="none" stroke-width="1"/><path id="e0fdrmNYspQ120" d="M91,96C91.0586,97.632,92.368,98.9414,94,99C92.368,99.0586,91.0586,100.368,91,102C90.9414,100.368,89.632,99.0586,88,99C89.632,98.9414,90.9414,97.632,91,96Z" transform="matrix(1 0 0 1 224.21347 102.795439)" fill="rgb(255,255,255)" stroke="none" stroke-width="1"/><path id="e0fdrmNYspQ121" d="M91,96C91.0586,97.632,92.368,98.9414,94,99C92.368,99.0586,91.0586,100.368,91,102C90.9414,100.368,89.632,99.0586,88,99C89.632,98.9414,90.9414,97.632,91,96Z" transform="matrix(1 0 0 1 -13.000001 19.148338)" fill="rgb(255,255,255)" stroke="none" stroke-width="1"/><path id="e0fdrmNYspQ122" d="M156.402,23.4536C156.768,21.8621,155.842,20.2583,154.281,19.7794C155.873,20.1452,157.476,19.2193,157.955,17.6581C157.59,19.2496,158.515,20.8533,160.077,21.3323C158.485,20.9665,156.881,21.8924,156.402,23.4536Z" fill="rgb(255,255,255)" stroke="none" stroke-width="1"/><path id="e0fdrmNYspQ123" d="M46,99C46.0586,100.632,47.368,101.941,49,102C47.368,102.059,46.0586,103.368,46,105C45.9414,103.368,44.632,102.059,43,102C44.632,101.941,45.9414,100.632,46,99Z" transform="matrix(1 0 0 1 372.301652 59.25871)" fill="rgb(255,255,255)" stroke="none" stroke-width="1"/><path id="e0fdrmNYspQ124" d="M46,99C46.0586,100.632,47.368,101.941,49,102C47.368,102.059,46.0586,103.368,46,105C45.9414,103.368,44.632,102.059,43,102C44.632,101.941,45.9414,100.632,46,99Z" transform="matrix(1 0 0 1 -13.000001 19.148338)" fill="rgb(255,255,255)" stroke="none" stroke-width="1"/><path id="e0fdrmNYspQ125" d="M200.646,32.2027C201.011,30.6112,200.085,29.0074,198.524,28.5285C200.116,28.8943,201.72,27.9683,202.199,26.4071C201.833,27.9987,202.759,29.6024,204.32,30.0814C202.728,29.7156,201.125,30.6415,200.646,32.2027Z" fill="rgb(255,255,255)" stroke="none" stroke-width="1"/><path id="e0fdrmNYspQ126" d="M18.5,99C18.5293,99.816,19.184,100.471,20,100.5C19.184,100.529,18.5293,101.184,18.5,102C18.4707,101.184,17.816,100.529,17,100.5C17.816,100.471,18.4707,99.816,18.5,99Z" transform="matrix(1 0 0 1 224.21347 102.795439)" fill="rgb(255,255,255)" stroke="none" stroke-width="1"/><path id="e0fdrmNYspQ127" d="M18.5,99C18.5293,99.816,19.184,100.471,20,100.5C19.184,100.529,18.5293,101.184,18.5,102C18.4707,101.184,17.816,100.529,17,100.5C17.816,100.471,18.4707,99.816,18.5,99Z" transform="matrix(1 0 0 1 -13.000001 19.148338)" fill="rgb(255,255,255)" stroke="none" stroke-width="1"/><path id="e0fdrmNYspQ128" d="M227.209,39.3202C227.391,38.5245,226.928,37.7226,226.148,37.4831C226.944,37.666,227.746,37.203,227.985,36.4224C227.802,37.2182,228.265,38.0201,229.046,38.2596C228.25,38.0767,227.448,38.5396,227.209,39.3202Z" transform="matrix(1 0 0 1 0.48171 0)" fill="rgb(255,255,255)" stroke="none" stroke-width="1"/><path id="e0fdrmNYspQ129" d="M26.5,79C26.5293,79.816,27.184,80.4707,28,80.5C27.184,80.5293,26.5293,81.184,26.5,82C26.4707,81.184,25.816,80.5293,25,80.5C25.816,80.4707,26.4707,79.816,26.5,79Z" transform="matrix(1 0 0 1 224.21347 102.795439)" fill="rgb(255,255,255)" stroke="none" stroke-width="1"/><path id="e0fdrmNYspQ130" d="M26.5,79C26.5293,79.816,27.184,80.4707,28,80.5C27.184,80.5293,26.5293,81.184,26.5,82C26.4707,81.184,25.816,80.5293,25,80.5C25.816,80.4707,26.4707,79.816,26.5,79Z" transform="matrix(1 0 0 1 -13.000001 19.148338)" fill="rgb(255,255,255)" stroke="none" stroke-width="1"/><path id="e0fdrmNYspQ131" d="M214.305,56.5682C214.488,55.7724,214.025,54.9706,213.244,54.7311C214.04,54.914,214.842,54.451,215.081,53.6704C214.898,54.4662,215.361,55.268,216.142,55.5075C215.346,55.3246,214.544,55.7876,214.305,56.5682Z" fill="rgb(255,255,255)" stroke="none" stroke-width="1"/><path id="e0fdrmNYspQ132" d="M214.305,56.5682C214.488,55.7724,214.025,54.9706,213.244,54.7311C214.04,54.914,214.842,54.451,215.081,53.6704C214.898,54.4662,215.361,55.268,216.142,55.5075C215.346,55.3246,214.544,55.7876,214.305,56.5682Z" transform="matrix(1 0 0 1 45.481147 11.377441)" fill="rgb(255,255,255)" stroke="none" stroke-width="1"/><path id="e0fdrmNYspQ133" d="M85,59C85.039,60.088,85.912,60.961,87,61C85.912,61.039,85.039,61.912,85,63C84.961,61.912,84.088,61.039,83,61C84.088,60.961,84.961,60.088,85,59Z" transform="matrix(1 0 0 1 224.21347 102.795439)" fill="rgb(255,255,255)" stroke="none" stroke-width="1"/><path id="e0fdrmNYspQ134" d="M85,59C85.039,60.088,85.912,60.961,87,61C85.912,61.039,85.039,61.912,85,63C84.961,61.912,84.088,61.039,83,61C84.088,60.961,84.961,60.088,85,59Z" transform="matrix(1 0 0 1 -13.000001 19.148338)" fill="rgb(255,255,255)" stroke="none" stroke-width="1"/><path id="e0fdrmNYspQ135" d="M152.622,60.7458C152.866,59.6848,152.248,58.6156,151.207,58.2963C152.269,58.5402,153.338,57.9229,153.657,56.8821C153.413,57.9431,154.03,59.0123,155.071,59.3316C154.01,59.0877,152.941,59.705,152.622,60.7458Z" fill="rgb(255,255,255)" stroke="none" stroke-width="1"/><path id="e0fdrmNYspQ136" d="M39,10C39,10.5523,38.5523,11,38,11C37.4477,11,37,10.5523,37,10C37,9.44772,37.4477,9,38,9C38.5523,9,39,9.44772,39,10Z" fill="rgb(255,255,255)" stroke="none" stroke-width="1"/><path id="e0fdrmNYspQ137" d="M184.372,119.982C184.515,119.448,185.063,119.132,185.597,119.275C186.13,119.418,186.447,119.966,186.304,120.499C186.161,121.033,185.613,121.35,185.079,121.207C184.546,121.064,184.229,120.515,184.372,119.982Z" fill="rgb(255,255,255)" stroke="none" stroke-width="1"/><path id="e0fdrmNYspQ138" d="M60,33.5C60,33.7761,59.7761,34,59.5,34C59.2239,34,59,33.7761,59,33.5C59,33.2239,59.2239,33,59.5,33C59.7761,33,60,33.2239,60,33.5Z" fill="rgb(255,255,255)" stroke="none" stroke-width="1"/><path id="e0fdrmNYspQ139" d="M170.17,91.8474C170.241,91.5806,170.516,91.4223,170.782,91.4938C171.049,91.5653,171.207,91.8395,171.136,92.1062C171.064,92.3729,170.79,92.5312,170.524,92.4597C170.257,92.3883,170.099,92.1141,170.17,91.8474Z" fill="rgb(255,255,255)" stroke="none" stroke-width="1"/><path id="e0fdrmNYspQ140" d="M49,44C49,44.5523,48.5523,45,48,45C47.4477,45,47,44.5523,47,44C47,43.4477,47.4477,43,48,43C48.5523,43,49,43.4477,49,44Z" fill="rgb(255,255,255)" stroke="none" stroke-width="1"/><path id="e0fdrmNYspQ141" d="M183.513,84.5522C183.656,84.0187,184.204,83.7021,184.738,83.845C185.271,83.988,185.588,84.5363,185.445,85.0698C185.302,85.6033,184.753,85.9198,184.22,85.7769C183.686,85.634,183.37,85.0856,183.513,84.5522Z" fill="rgb(255,255,255)" stroke="none" stroke-width="1"/><path id="e0fdrmNYspQ142" d="M9,48.5C9,48.7761,8.77614,49,8.5,49C8.22386,49,8,48.7761,8,48.5C8,48.2239,8.22386,48,8.5,48C8.77614,48,9,48.2239,9,48.5Z" fill="rgb(255,255,255)" stroke="none" stroke-width="1"/><path id="e0fdrmNYspQ143" d="M63,100C63,100.552,62.5523,101,62,101C61.4477,101,61,100.552,61,100C61,99.4477,61.4477,99,62,99C62.5523,99,63,99.4477,63,100Z" transform="matrix(1 0 0 1 224.21347 102.795439)" fill="rgb(255,255,255)" stroke="none" stroke-width="1"/><path id="e0fdrmNYspQ144" d="M63,100C63,100.552,62.5523,101,62,101C61.4477,101,61,100.552,61,100C61,99.4477,61.4477,99,62,99C62.5523,99,63,99.4477,63,100Z" transform="matrix(1 0 0 1 -13.000001 19.148338)" fill="rgb(255,255,255)" stroke="none" stroke-width="1"/><path id="e0fdrmNYspQ145" d="M184.484,26.8368C184.627,26.3034,185.175,25.9868,185.708,26.1297C186.242,26.2727,186.558,26.821,186.416,27.3545C186.273,27.8879,185.724,28.2045,185.191,28.0616C184.657,27.9186,184.341,27.3703,184.484,26.8368Z" fill="rgb(255,255,255)" stroke="none" stroke-width="1"/><path id="e0fdrmNYspQ146" d="M87,110C87,110.552,86.5523,111,86,111C85.4477,111,85,110.552,85,110C85,109.448,85.4477,109,86,109C86.5523,109,87,109.448,87,110Z" transform="matrix(1 0 0 1 224.21347 102.795439)" fill="rgb(255,255,255)" stroke="none" stroke-width="1"/><path id="e0fdrmNYspQ147" d="M87,110C87,110.552,86.5523,111,86,111C85.4477,111,85,110.552,85,110C85,109.448,85.4477,109,86,109C86.5523,109,87,109.448,87,110Z" transform="matrix(1 0 0 1 -13.000001 19.148338)" fill="rgb(255,255,255)" stroke="none" stroke-width="1"/><path id="e0fdrmNYspQ148" d="M163.89,10.9659C164.033,10.4325,164.581,10.1159,165.114,10.2588C165.648,10.4018,165.964,10.9501,165.822,11.4836C165.679,12.017,165.13,12.3336,164.597,12.1907C164.063,12.0477,163.747,11.4994,163.89,10.9659Z" fill="rgb(255,255,255)" stroke="none" stroke-width="1"/><path id="e0fdrmNYspQ149" d="M103,92.5C103,92.7761,102.776,93,102.5,93C102.224,93,102,92.7761,102,92.5C102,92.2239,102.224,92,102.5,92C102.776,92,103,92.2239,103,92.5Z" transform="matrix(1 0 0 1 224.21347 102.795439)" fill="rgb(255,255,255)" stroke="none" stroke-width="1"/><path id="e0fdrmNYspQ150" d="M103,92.5C103,92.7761,102.776,93,102.5,93C102.224,93,102,92.7761,102,92.5C102,92.2239,102.224,92,102.5,92C102.776,92,103,92.2239,103,92.5Z" transform="matrix(1 0 0 1 -13.000001 19.148338)" fill="rgb(255,255,255)" stroke="none" stroke-width="1"/><path id="e0fdrmNYspQ151" d="M143.905,23.7285C143.977,23.4618,144.251,23.3035,144.518,23.375C144.785,23.4464,144.943,23.7206,144.871,23.9873C144.8,24.2541,144.526,24.4124,144.259,24.3409C143.992,24.2694,143.834,23.9953,143.905,23.7285Z" transform="matrix(1 0 0 1 0 0.095747)" fill="rgb(255,255,255)" stroke="none" stroke-width="1"/><path id="e0fdrmNYspQ152" d="M77,40.5C77,40.7761,76.7761,41,76.5,41C76.2239,41,76,40.7761,76,40.5C76,40.2239,76.2239,40,76.5,40C76.7761,40,77,40.2239,77,40.5Z" transform="matrix(1 0 0 1 0 0.095747)" fill="rgb(255,255,255)" stroke="none" stroke-width="1"/><path id="e0fdrmNYspQ153" d="M155.561,80.686C155.632,80.4192,155.907,80.2609,156.173,80.3324C156.44,80.4039,156.598,80.678,156.527,80.9448C156.455,81.2115,156.181,81.3698,155.915,81.2983C155.648,81.2269,155.49,80.9527,155.561,80.686Z" transform="matrix(1 0 0 1 196.27547 -28.696659)" fill="rgb(255,255,255)" stroke="none" stroke-width="1"/><path id="e0fdrmNYspQ154" d="M81,12C81,12.5523,80.5523,13,80,13C79.4477,13,79,12.5523,79,12C79,11.4477,79.4477,11,80,11C80.5523,11,81,11.4477,81,12Z" fill="rgb(255,255,255)" stroke="none" stroke-width="1"/><path id="e0fdrmNYspQ155" d="M144.321,107.18C144.464,106.646,145.012,106.33,145.546,106.472C146.079,106.615,146.396,107.164,146.253,107.697C146.11,108.231,145.561,108.547,145.028,108.404C144.495,108.261,144.178,107.713,144.321,107.18Z" transform="matrix(1 0 0 1 196.27547 -28.600912)" fill="rgb(255,255,255)" stroke="none" stroke-width="1"/><path id="e0fdrmNYspQ156" d="M40,115C40,115.552,39.5523,116,39,116C38.4477,116,38,115.552,38,115C38,114.448,38.4477,114,39,114C39.5523,114,40,114.448,40,115Z" transform="matrix(1 0 0 1 224.21347 102.795439)" fill="rgb(255,255,255)" stroke="none" stroke-width="1"/><path id="e0fdrmNYspQ157" d="M40,115C40,115.552,39.5523,116,39,116C38.4477,116,38,115.552,38,115C38,114.448,38.4477,114,39,114C39.5523,114,40,114.448,40,115Z" transform="matrix(1 0 0 1 -13.000001 19.148338)" fill="rgb(255,255,255)" stroke="none" stroke-width="1"/><path id="e0fdrmNYspQ158" d="M210.582,18.3008C210.725,17.7673,211.274,17.4507,211.807,17.5937C212.34,17.7366,212.657,18.285,212.514,18.8184C212.371,19.3519,211.823,19.6685,211.289,19.5255C210.756,19.3826,210.439,18.8343,210.582,18.3008Z" fill="rgb(255,255,255)" stroke="none" stroke-width="1"/><path id="e0fdrmNYspQ159" d="M13,87.5C13,87.7761,12.7761,88,12.5,88C12.2239,88,12,87.7761,12,87.5C12,87.2239,12.2239,87,12.5,87C12.7761,87,13,87.2239,13,87.5Z" fill="rgb(255,255,255)" stroke="none" stroke-width="1"/><path id="e0fdrmNYspQ160" d="M229.545,51.8519C229.616,51.5851,229.89,51.4268,230.157,51.4983C230.424,51.5698,230.582,51.844,230.511,52.1107C230.439,52.3774,230.165,52.5357,229.898,52.4642C229.632,52.3928,229.473,52.1186,229.545,51.8519Z" transform="matrix(1 0 0 1 0 0.095747)" fill="rgb(255,255,255)" stroke="none" stroke-width="1"/><g id="e0fdrmNYspQ161_to" transform="translate(266.512123,31.80405)"><ellipse id="e0fdrmNYspQ161" rx="20.5765" ry="0.39865" transform="translate(0,0)" fill="rgb(210,219,237)" stroke="none" stroke-width="0"/></g><g id="e0fdrmNYspQ162_to" transform="translate(246.479557,16.2582)"><ellipse id="e0fdrmNYspQ162" rx="6" ry="0.2582" transform="translate(0,0)" fill="rgb(210,219,237)" stroke="none" stroke-width="0"/></g></g><g id="e0fdrmNYspQ163" transform="matrix(0.921888 0 0 0.921888 14.945103 2.969997)"><path id="e0fdrmNYspQ164" d="M185.546,107.873C185.79,106.812,185.173,105.743,184.132,105.424C185.193,105.667,186.262,105.05,186.581,104.009C186.338,105.07,186.955,106.14,187.996,106.459C186.935,106.215,185.865,106.832,185.546,107.873Z" transform="matrix(1 0 0 1 0.176 0)" fill="rgb(255,255,255)" stroke="none" stroke-width="1"/><path id="e0fdrmNYspQ165" d="M40,69C40.0195,69.544,40.456,69.9805,41,70C40.456,70.0195,40.0195,70.456,40,71C39.9805,70.456,39.544,70.0195,39,70C39.544,69.9805,39.9805,69.544,40,69Z" fill="rgb(255,255,255)" stroke="none" stroke-width="1"/><path id="e0fdrmNYspQ166" d="M198.677,62.7334C198.799,62.2029,198.49,61.6683,197.969,61.5086C198.5,61.6306,199.035,61.3219,199.194,60.8015C199.072,61.332,199.381,61.8666,199.901,62.0263C199.371,61.9043,198.836,62.213,198.677,62.7334Z" fill="rgb(255,255,255)" stroke="none" stroke-width="1"/><path id="e0fdrmNYspQ167" d="M54,61C54.0195,61.544,54.456,61.9805,55,62C54.456,62.0195,54.0195,62.456,54,63C53.9805,62.456,53.544,62.0195,53,62C53.544,61.9805,53.9805,61.544,54,61Z" fill="rgb(255,255,255)" stroke="none" stroke-width="1"/><path id="e0fdrmNYspQ168" d="M183.083,66.8373C183.205,66.3068,182.896,65.7722,182.376,65.6126C182.906,65.7345,183.441,65.4259,183.601,64.9055C183.479,65.436,183.787,65.9706,184.308,66.1302C183.777,66.0083,183.243,66.3169,183.083,66.8373Z" fill="rgb(255,255,255)" stroke="none" stroke-width="1"/><path id="e0fdrmNYspQ169" d="M62,27C62.0195,27.544,62.456,27.9805,63,28C62.456,28.0195,62.0195,28.456,62,29C61.9805,28.456,61.544,28.0195,61,28C61.544,27.9805,61.9805,27.544,62,27Z" transform="matrix(1 0 0 1 104.913039 -15.338921)" fill="rgb(255,255,255)" stroke="none" stroke-width="1"/><path id="e0fdrmNYspQ170" d="M166.556,97.6082C166.678,97.0777,166.369,96.5432,165.849,96.3835C166.379,96.5054,166.914,96.1968,167.073,95.6764C166.952,96.2069,167.26,96.7415,167.781,96.9011C167.25,96.7792,166.715,97.0878,166.556,97.6082Z" fill="rgb(255,255,255)" stroke="none" stroke-width="1"/><path id="e0fdrmNYspQ171" d="M95,23C95.0195,23.544,95.456,23.9805,96,24C95.456,24.0195,95.0195,24.456,95,25C94.9805,24.456,94.544,24.0195,94,24C94.544,23.9805,94.9805,23.544,95,23Z" fill="rgb(255,255,255)" stroke="none" stroke-width="1"/><path id="e0fdrmNYspQ172" d="M133.645,92.9309C133.767,92.4004,133.458,91.8658,132.938,91.7062C133.468,91.8281,134.003,91.5195,134.163,90.9991C134.041,91.5296,134.349,92.0642,134.87,92.2238C134.339,92.1019,133.805,92.4105,133.645,92.9309Z" fill="rgb(255,255,255)" stroke="none" stroke-width="1"/><path id="e0fdrmNYspQ173" d="M104,58C104.02,58.544,104.456,58.9805,105,59C104.456,59.0195,104.02,59.456,104,60C103.98,59.456,103.544,59.0195,103,59C103.544,58.9805,103.98,58.544,104,58Z" fill="rgb(255,255,255)" stroke="none" stroke-width="1"/><path id="e0fdrmNYspQ174" d="M134.01,56.7941C134.132,56.2636,133.824,55.7291,133.303,55.5694C133.834,55.6913,134.368,55.3827,134.528,54.8623C134.406,55.3928,134.715,55.9274,135.235,56.087C134.705,55.9651,134.17,56.2737,134.01,56.7941Z" transform="matrix(1 0 0 1 0 0.095747)" fill="rgb(255,255,255)" stroke="none" stroke-width="1"/><path id="e0fdrmNYspQ175" d="M99,78C99.0195,78.544,99.456,78.9805,100,79C99.456,79.0195,99.0195,79.456,99,80C98.9805,79.456,98.544,79.0195,98,79C98.544,78.9805,98.9805,78.544,99,78Z" fill="rgb(255,255,255)" stroke="none" stroke-width="1"/><path id="e0fdrmNYspQ176" d="M144.016,38.7697C144.138,38.2392,143.83,37.7046,143.309,37.545C143.84,37.6669,144.374,37.3583,144.534,36.8379C144.412,37.3684,144.721,37.903,145.241,38.0626C144.711,37.9407,144.176,38.2493,144.016,38.7697Z" fill="rgb(255,255,255)" stroke="none" stroke-width="1"/><path id="e0fdrmNYspQ177" d="M72,87C72.0195,87.544,72.456,87.9805,73,88C72.456,88.0195,72.0195,88.456,72,89C71.9805,88.456,71.544,88.0195,71,88C71.544,87.9805,71.9805,87.544,72,87Z" fill="rgb(255,255,255)" stroke="none" stroke-width="1"/><path id="e0fdrmNYspQ178" d="M172.426,37.0645C172.548,36.534,172.239,35.9994,171.719,35.8398C172.249,35.9617,172.784,35.6531,172.943,35.1327C172.821,35.6632,173.13,36.1977,173.65,36.3574C173.12,36.2355,172.585,36.5441,172.426,37.0645Z" fill="rgb(255,255,255)" stroke="none" stroke-width="1"/><path id="e0fdrmNYspQ179" d="M49,79C49.0195,79.544,49.456,79.9805,50,80C49.456,80.0195,49.0195,80.456,49,81C48.9805,80.456,48.544,80.0195,48,80C48.544,79.9805,48.9805,79.544,49,79Z" fill="rgb(255,255,255)" stroke="none" stroke-width="1"/><path id="e0fdrmNYspQ180" d="M192.571,50.7448C192.693,50.2142,192.385,49.6797,191.864,49.52C192.395,49.6419,192.929,49.3333,193.089,48.8129C192.967,49.3434,193.276,49.878,193.796,50.0376C193.266,49.9157,192.731,50.2243,192.571,50.7448Z" fill="rgb(255,255,255)" stroke="none" stroke-width="1"/><path id="e0fdrmNYspQ181" d="M5,72C5.01952,72.544,5.45601,72.9805,6,73C5.45601,73.0195,5.01952,73.456,5,74C4.98048,73.456,4.54399,73.0195,4,73C4.54399,72.9805,4.98048,72.544,5,72Z" transform="matrix(1 0 0 1 0 0.095747)" fill="rgb(255,255,255)" stroke="none" stroke-width="1"/><path id="e0fdrmNYspQ182" d="M6,33C6.01952,33.544,6.45601,33.9805,7,34C6.45601,34.0195,6.01952,34.456,6,35C5.98048,34.456,5.54399,34.0195,5,34C5.54399,33.9805,5.98048,33.544,6,33Z" transform="matrix(1 0 0 1 119.846446 54.946153)" fill="rgb(255,255,255)" stroke="none" stroke-width="1"/><path id="e0fdrmNYspQ183" d="M6,33C6.01952,33.544,6.45601,33.9805,7,34C6.45601,34.0195,6.01952,34.456,6,35C5.98048,34.456,5.54399,34.0195,5,34C5.54399,33.9805,5.98048,33.544,6,33Z" transform="matrix(1 0 0 1 -6.948747 10.235157)" fill="rgb(255,255,255)" stroke="none" stroke-width="1"/><path id="e0fdrmNYspQ184" d="M152.118,105.128C152.362,104.067,151.744,102.997,150.703,102.678C151.764,102.922,152.834,102.305,153.153,101.264C152.909,102.325,153.526,103.394,154.567,103.713C153.506,103.47,152.437,104.087,152.118,105.128Z" transform="matrix(1 0 0 1 -23.856554 20.186132)" fill="rgb(255,255,255)" stroke="none" stroke-width="1"/><path id="e0fdrmNYspQ185" d="M18.5,99C18.5293,99.816,19.184,100.471,20,100.5C19.184,100.529,18.5293,101.184,18.5,102C18.4707,101.184,17.816,100.529,17,100.5C17.816,100.471,18.4707,99.816,18.5,99Z" fill="rgb(255,255,255)" stroke="none" stroke-width="1"/><path id="e0fdrmNYspQ186" d="M227.209,39.3202C227.391,38.5245,226.928,37.7226,226.148,37.4831C226.944,37.666,227.746,37.203,227.985,36.4224C227.802,37.2182,228.265,38.0201,229.046,38.2596C228.25,38.0767,227.448,38.5396,227.209,39.3202Z" transform="matrix(1 0 0 1 0.48171 0)" fill="rgb(255,255,255)" stroke="none" stroke-width="1"/><path id="e0fdrmNYspQ187" d="M26.5,79C26.5293,79.816,27.184,80.4707,28,80.5C27.184,80.5293,26.5293,81.184,26.5,82C26.4707,81.184,25.816,80.5293,25,80.5C25.816,80.4707,26.4707,79.816,26.5,79Z" transform="matrix(1 0 0 1 103.846445 -15.1627)" fill="rgb(255,255,255)" stroke="none" stroke-width="1"/><path id="e0fdrmNYspQ188" d="M214.305,56.5682C214.488,55.7724,214.025,54.9706,213.244,54.7311C214.04,54.914,214.842,54.451,215.081,53.6704C214.898,54.4662,215.361,55.268,216.142,55.5075C215.346,55.3246,214.544,55.7876,214.305,56.5682Z" fill="rgb(255,255,255)" stroke="none" stroke-width="1"/><path id="e0fdrmNYspQ189" d="M152.622,60.7458C152.866,59.6848,152.248,58.6156,151.207,58.2963C152.269,58.5402,153.338,57.9229,153.657,56.8821C153.413,57.9431,154.03,59.0123,155.071,59.3316C154.01,59.0877,152.941,59.705,152.622,60.7458Z" fill="rgb(255,255,255)" stroke="none" stroke-width="1"/><path id="e0fdrmNYspQ190" d="M39,10C39,10.5523,38.5523,11,38,11C37.4477,11,37,10.5523,37,10C37,9.44772,37.4477,9,38,9C38.5523,9,39,9.44772,39,10Z" fill="rgb(255,255,255)" stroke="none" stroke-width="1"/><path id="e0fdrmNYspQ191" d="M184.372,119.982C184.515,119.448,185.063,119.132,185.597,119.275C186.13,119.418,186.447,119.966,186.304,120.499C186.161,121.033,185.613,121.35,185.079,121.207C184.546,121.064,184.229,120.515,184.372,119.982Z" fill="rgb(255,255,255)" stroke="none" stroke-width="1"/><path id="e0fdrmNYspQ192" d="M60,33.5C60,33.7761,59.7761,34,59.5,34C59.2239,34,59,33.7761,59,33.5C59,33.2239,59.2239,33,59.5,33C59.7761,33,60,33.2239,60,33.5Z" transform="matrix(1 0 0 1 30.672408 -3.350685)" fill="rgb(255,255,255)" stroke="none" stroke-width="1"/><path id="e0fdrmNYspQ193" d="M170.17,91.8474C170.241,91.5806,170.516,91.4223,170.782,91.4938C171.049,91.5653,171.207,91.8395,171.136,92.1062C171.064,92.3729,170.79,92.5312,170.524,92.4597C170.257,92.3883,170.099,92.1141,170.17,91.8474Z" fill="rgb(255,255,255)" stroke="none" stroke-width="1"/><path id="e0fdrmNYspQ194" d="M170.17,91.8474C170.241,91.5806,170.516,91.4223,170.782,91.4938C171.049,91.5653,171.207,91.8395,171.136,92.1062C171.064,92.3729,170.79,92.5312,170.524,92.4597C170.257,92.3883,170.099,92.1141,170.17,91.8474Z" transform="matrix(1 0 0 1 32.425479 -7.165801)" fill="rgb(255,255,255)" stroke="none" stroke-width="1"/><path id="e0fdrmNYspQ195" d="M170.17,91.8474C170.241,91.5806,170.516,91.4223,170.782,91.4938C171.049,91.5653,171.207,91.8395,171.136,92.1062C171.064,92.3729,170.79,92.5312,170.524,92.4597C170.257,92.3883,170.099,92.1141,170.17,91.8474Z" transform="matrix(1 0 0 1 52.886396 -23.476852)" fill="rgb(255,255,255)" stroke="none" stroke-width="1"/><path id="e0fdrmNYspQ196" d="M49,44C49,44.5523,48.5523,45,48,45C47.4477,45,47,44.5523,47,44C47,43.4477,47.4477,43,48,43C48.5523,43,49,43.4477,49,44Z" fill="rgb(255,255,255)" stroke="none" stroke-width="1"/><path id="e0fdrmNYspQ197" d="M183.513,84.5522C183.656,84.0187,184.204,83.7021,184.738,83.845C185.271,83.988,185.588,84.5363,185.445,85.0698C185.302,85.6033,184.753,85.9198,184.22,85.7769C183.686,85.634,183.37,85.0856,183.513,84.5522Z" fill="rgb(255,255,255)" stroke="none" stroke-width="1"/><path id="e0fdrmNYspQ198" d="M9,48.5C9,48.7761,8.77614,49,8.5,49C8.22386,49,8,48.7761,8,48.5C8,48.2239,8.22386,48,8.5,48C8.77614,48,9,48.2239,9,48.5Z" transform="matrix(1 0 0 1 119.846446 54.946153)" fill="rgb(255,255,255)" stroke="none" stroke-width="1"/><path id="e0fdrmNYspQ199" d="M9,48.5C9,48.7761,8.77614,49,8.5,49C8.22386,49,8,48.7761,8,48.5C8,48.2239,8.22386,48,8.5,48C8.77614,48,9,48.2239,9,48.5Z" transform="matrix(1 0 0 1 -6.948747 10.235157)" fill="rgb(255,255,255)" stroke="none" stroke-width="1"/><path id="e0fdrmNYspQ200" d="M63,100C63,100.552,62.5523,101,62,101C61.4477,101,61,100.552,61,100C61,99.4477,61.4477,99,62,99C62.5523,99,63,99.4477,63,100Z" transform="matrix(1 0 0 1 154.338085 -0.780077)" fill="rgb(255,255,255)" stroke="none" stroke-width="1"/><path id="e0fdrmNYspQ201" d="M184.484,26.8368C184.627,26.3034,185.175,25.9868,185.708,26.1297C186.242,26.2727,186.558,26.821,186.416,27.3545C186.273,27.8879,185.724,28.2045,185.191,28.0616C184.657,27.9186,184.341,27.3703,184.484,26.8368Z" fill="rgb(255,255,255)" stroke="none" stroke-width="1"/><path id="e0fdrmNYspQ202" d="M87,110C87,110.552,86.5523,111,86,111C85.4477,111,85,110.552,85,110C85,109.448,85.4477,109,86,109C86.5523,109,87,109.448,87,110Z" transform="matrix(1 0 0 1 154.338085 -0.780077)" fill="rgb(255,255,255)" stroke="none" stroke-width="1"/><path id="e0fdrmNYspQ203" d="M163.89,10.9659C164.033,10.4325,164.581,10.1159,165.114,10.2588C165.648,10.4018,165.964,10.9501,165.822,11.4836C165.679,12.017,165.13,12.3336,164.597,12.1907C164.063,12.0477,163.747,11.4994,163.89,10.9659Z" fill="rgb(255,255,255)" stroke="none" stroke-width="1"/><path id="e0fdrmNYspQ204" d="M103,92.5C103,92.7761,102.776,93,102.5,93C102.224,93,102,92.7761,102,92.5C102,92.2239,102.224,92,102.5,92C102.776,92,103,92.2239,103,92.5Z" fill="rgb(255,255,255)" stroke="none" stroke-width="1"/><path id="e0fdrmNYspQ205" d="M143.905,23.7285C143.977,23.4618,144.251,23.3035,144.518,23.375C144.785,23.4464,144.943,23.7206,144.871,23.9873C144.8,24.2541,144.526,24.4124,144.259,24.3409C143.992,24.2694,143.834,23.9953,143.905,23.7285Z" transform="matrix(1 0 0 1 0 0.095747)" fill="rgb(255,255,255)" stroke="none" stroke-width="1"/><path id="e0fdrmNYspQ206" d="M77,40.5C77,40.7761,76.7761,41,76.5,41C76.2239,41,76,40.7761,76,40.5C76,40.2239,76.2239,40,76.5,40C76.7761,40,77,40.2239,77,40.5Z" transform="matrix(1 0 0 1 0 0.095747)" fill="rgb(255,255,255)" stroke="none" stroke-width="1"/><path id="e0fdrmNYspQ207" d="M155.561,80.686C155.632,80.4192,155.907,80.2609,156.173,80.3324C156.44,80.4039,156.598,80.678,156.527,80.9448C156.455,81.2115,156.181,81.3698,155.915,81.2983C155.648,81.2269,155.49,80.9527,155.561,80.686Z" fill="rgb(255,255,255)" stroke="none" stroke-width="1"/><path id="e0fdrmNYspQ208" d="M81,12C81,12.5523,80.5523,13,80,13C79.4477,13,79,12.5523,79,12C79,11.4477,79.4477,11,80,11C80.5523,11,81,11.4477,81,12Z" fill="rgb(255,255,255)" stroke="none" stroke-width="1"/><path id="e0fdrmNYspQ209" d="M144.321,107.18C144.464,106.646,145.012,106.33,145.546,106.472C146.079,106.615,146.396,107.164,146.253,107.697C146.11,108.231,145.561,108.547,145.028,108.404C144.495,108.261,144.178,107.713,144.321,107.18Z" transform="matrix(1 0 0 1 0 0.095747)" fill="rgb(255,255,255)" stroke="none" stroke-width="1"/><path id="e0fdrmNYspQ210" d="M40,115C40,115.552,39.5523,116,39,116C38.4477,116,38,115.552,38,115C38,114.448,38.4477,114,39,114C39.5523,114,40,114.448,40,115Z" fill="rgb(255,255,255)" stroke="none" stroke-width="1"/><path id="e0fdrmNYspQ211" d="M210.582,18.3008C210.725,17.7673,211.274,17.4507,211.807,17.5937C212.34,17.7366,212.657,18.285,212.514,18.8184C212.371,19.3519,211.823,19.6685,211.289,19.5255C210.756,19.3826,210.439,18.8343,210.582,18.3008Z" fill="rgb(255,255,255)" stroke="none" stroke-width="1"/><path id="e0fdrmNYspQ212" d="M13,87.5C13,87.7761,12.7761,88,12.5,88C12.2239,88,12,87.7761,12,87.5C12,87.2239,12.2239,87,12.5,87C12.7761,87,13,87.2239,13,87.5Z" fill="rgb(255,255,255)" stroke="none" stroke-width="1"/><path id="e0fdrmNYspQ213" d="M229.545,51.8519C229.616,51.5851,229.89,51.4268,230.157,51.4983C230.424,51.5698,230.582,51.844,230.511,52.1107C230.439,52.3774,230.165,52.5357,229.898,52.4642C229.632,52.3928,229.473,52.1186,229.545,51.8519Z" transform="matrix(1 0 0 1 0 0.095747)" fill="rgb(255,255,255)" stroke="none" stroke-width="1"/><g id="e0fdrmNYspQ214_to" transform="translate(266.512123,31.80405)"><ellipse id="e0fdrmNYspQ214" rx="20.5765" ry="0.39865" transform="translate(0,0)" fill="rgb(210,219,237)" stroke="none" stroke-width="0"/></g><g id="e0fdrmNYspQ215_to" transform="translate(246.479557,16.2582)"><ellipse id="e0fdrmNYspQ215" rx="6" ry="0.2582" transform="translate(0,0)" fill="rgb(210,219,237)" stroke="none" stroke-width="0"/></g></g><ellipse id="e0fdrmNYspQ216" rx="0.841712" ry="0.841712" transform="matrix(1 0 0 1 133.393911 15.796253)" fill="rgb(210,219,237)" stroke="none" stroke-width="0"/><ellipse id="e0fdrmNYspQ217" rx="0.841712" ry="0.841712" transform="matrix(0.68399 0 0 0.650904 145.566683 6.620736)" fill="rgb(210,219,237)" stroke="none" stroke-width="0"/><ellipse id="e0fdrmNYspQ218" rx="0.468583" ry="0.468583" transform="matrix(1 0 0 1 127.677519 38.528035)" fill="rgb(210,219,237)" stroke="none" stroke-width="0"/><ellipse id="e0fdrmNYspQ219" rx="0.5" ry="0.5" transform="matrix(1 0 0 1 175.530954 50.251019)" fill="rgb(210,219,237)" stroke="none" stroke-width="0"/></svg>