<svg width="860" height="755" viewBox="0 0 860 755" fill="none" xmlns="http://www.w3.org/2000/svg">
<path d="M553.172 754.503C575.533 754.623 601.139 754.263 615.445 748.672C618.811 747.35 621.336 745.727 620.795 743.984C619.653 740.317 606.128 738.754 594.948 738.153C530.091 734.607 463.73 735.989 398.092 737.372C357.097 738.213 315.622 739.115 276.551 743.263C256.174 745.366 240.005 750.957 265.672 753.421C290.557 755.825 328.726 753.541 354.873 753.661C420.993 753.902 487.113 754.202 553.172 754.503Z" fill="url(#paint0_linear_1:47)"/>
<path d="M553.172 754.503C575.533 754.623 601.139 754.263 615.445 748.672C618.811 747.35 621.336 745.727 620.795 743.984C619.653 740.317 606.128 738.754 594.948 738.153C530.091 734.607 463.73 735.989 398.092 737.372C357.097 738.213 315.622 739.115 276.551 743.263C256.174 745.366 240.005 750.957 265.672 753.421C290.557 755.825 328.726 753.541 354.873 753.661C420.993 753.902 487.113 754.202 553.172 754.503Z" fill="url(#paint1_linear_1:47)"/>
<path d="M264.95 696.919C264.77 696.979 264.59 697.099 264.47 697.28C264.289 697.52 264.289 697.88 264.289 698.241C264.289 700.285 264.229 702.268 264.289 704.312C264.289 704.613 264.289 704.913 264.41 705.154C264.53 705.575 264.891 705.815 265.251 705.935C265.612 706.055 265.972 705.995 266.393 705.995C266.513 705.995 266.693 705.935 266.814 705.815C266.874 705.695 266.874 705.574 266.874 705.454C266.934 702.87 266.934 700.285 266.934 697.76C266.934 697.46 266.934 697.099 266.754 696.859C266.453 696.498 265.311 696.799 264.95 696.919Z" fill="#333333"/>
<path d="M265.973 689.105C265.852 690.307 265.792 691.509 265.792 692.771C265.732 699.263 265.792 705.755 266.093 712.186C266.153 713.629 266.273 715.252 267.235 716.154C267.956 716.875 268.918 716.995 269.819 717.115C270.18 717.175 270.661 717.175 270.902 716.755C270.962 716.574 271.021 716.394 271.021 716.214C271.562 709.962 271.563 703.651 271.202 697.4C271.082 695.296 271.322 690.728 270.24 688.984C269.399 687.722 266.213 687.121 265.973 689.105Z" fill="#C9C9C9"/>
<path d="M355.114 345.402C350.726 357.544 354.032 370.047 359.381 380.205C367.917 396.374 382.463 409.478 401.037 411.822C409.993 412.964 419.43 411.582 428.747 410.199C432.714 409.598 436.742 409.057 440.649 407.615C445.818 405.751 450.687 402.506 455.135 398.899C461.266 393.91 467.217 386.877 466.796 379.544C466.676 376.959 465.654 374.615 464.572 372.391C458.441 359.888 448.583 350.091 437.403 342.337C426.222 334.582 413.72 328.752 401.277 322.981C394.425 319.796 385.769 312.342 377.354 318.473C373.206 321.479 369.119 325.566 365.573 329.293C364.371 330.675 353.25 343.839 355.114 345.402Z" fill="#0D0D0D"/>
<path d="M473.649 409.718C477.135 476.74 489.036 575.138 485.67 642.039C485.43 646.668 488.435 660.673 486.271 664.82C481.342 674.137 467.998 668.187 459.944 660.793C458.02 636.99 449.064 581.209 444.977 557.646C440.228 530.417 434.097 503.428 430.01 476.079C426.343 451.675 424.359 426.97 417.026 403.227C414.081 393.73 410.354 384.353 408.611 374.615C406.868 364.877 407.409 354.418 412.698 345.943C421.113 332.358 455.255 314.206 468.419 332.358C475.151 341.555 472.086 356.763 472.266 367.101C472.507 381.287 472.867 395.473 473.649 409.718Z" fill="#0D0D0D"/>
<path d="M335.638 595.936C335.879 609.1 334.737 652.438 339.185 664.82C344.835 665.301 350.605 665.061 356.196 664.099C357.758 663.859 359.442 663.498 360.644 662.416C362.267 660.974 362.628 658.569 362.868 656.405C370.562 593.531 381.261 500.904 394.425 438.992C399.835 413.385 405.906 386.577 398.452 361.511C396.348 354.418 393.042 347.446 387.512 342.517C377.294 333.32 355.535 331.577 344.415 340.714C333.415 349.73 337.803 374.916 337.382 387.478C335.879 431.959 335.098 476.439 335.038 520.92C335.038 545.925 335.218 570.931 335.638 595.936Z" fill="#0D0D0D"/>
<path d="M434.758 58.8031C432.834 54.5954 428.567 51.8904 424.119 50.568C419.671 49.2456 414.982 49.2456 410.354 49.0653C405.184 48.8248 399.955 48.4041 394.846 48.885C389.676 49.3658 384.507 50.9287 380.48 54.1746C376.452 57.4204 373.808 62.7101 374.589 67.8194L374.288 82.9066C373.567 94.2071 376.693 105.748 383.125 115.065C384.928 117.71 387.031 120.174 389.796 121.797C393.102 123.721 397.13 124.081 400.977 124.141C405.304 124.201 409.813 123.781 413.66 121.857C416.846 120.294 419.37 117.71 421.835 115.185C425.561 111.338 429.288 107.251 431.151 102.262C433.916 94.9284 432.474 86.7536 433.676 78.9995C434.157 75.6335 435.179 72.3275 435.72 68.9013C436.201 65.4751 436.2 61.9287 434.758 58.8031Z" fill="#67564C"/>
<path d="M362.688 72.3277C360.343 75.0927 355.234 74.9724 353.912 78.3385C352.83 80.9833 354.994 83.8083 357.338 85.5515C359.622 87.2947 362.387 88.7974 363.229 91.5624C363.89 93.6662 363.289 96.1307 364.491 97.9941C365.933 100.218 369.059 100.338 371.283 101.721C372.846 102.683 373.928 104.245 375.251 105.448C376.633 106.65 378.556 107.551 380.239 106.83C377.534 98.4148 376.212 89.5789 376.332 80.803C376.393 77.7375 376.753 74.3714 378.977 72.3277C379.819 71.6064 380.78 71.0654 381.562 70.284C382.343 69.5026 382.824 68.2402 382.223 67.3385C381.983 66.9178 381.562 66.6172 381.141 66.3768C377.474 64.0325 372.786 63.4314 368.638 64.5134C362.748 66.1363 365.753 68.661 362.688 72.3277Z" fill="#151413"/>
<path d="M363.228 30.9125C361.305 33.4972 359.081 36.3824 359.502 39.5682C359.682 41.0709 360.464 42.3932 360.644 43.8358C360.884 45.6391 360.223 47.4425 359.802 49.1856C359.021 52.5517 359.261 56.5188 361.726 58.5024C363.709 60.1254 366.534 59.885 369.119 59.5244C385.95 57.4205 402.78 55.3168 419.611 53.1528C424.059 52.6119 428.507 52.0107 432.774 50.4479C435.479 49.4861 438.425 47.5627 438.725 44.4971C438.906 42.8742 438.244 41.3112 437.403 40.049C434.457 35.7211 428.867 33.377 427.965 27.9672C427.605 25.8033 428.086 23.5191 428.026 21.3552C427.905 15.0438 423.398 9.87448 418.168 7.53023C412.939 5.18598 406.987 5.06575 401.277 4.88543C395.507 4.7051 389.616 4.34434 384.507 1.57933C382.884 0.677695 381.081 -0.464255 379.338 0.196942C376.272 1.2789 373.327 8.97271 372.185 12.2787C369.78 19.1912 367.616 25.0819 363.228 30.9125Z" fill="#282C2F"/>
<path d="M365.693 69.803C373.267 69.9833 380.901 67.9996 388.414 66.557C402.66 63.7319 417.086 62.6501 431.392 63.3113C434.758 63.4916 438.425 63.6119 441.13 61.2676C444.676 58.2021 444.736 51.9506 442.091 48.1637C441.19 46.9015 440.048 45.7595 438.605 45.2786C437.162 44.7978 435.6 44.918 434.097 45.0983C417.387 46.8415 400.676 49.5462 384.146 53.2129C376.513 54.8959 367.557 55.9779 360.223 59.2237C351.207 63.3111 360.103 69.6827 365.693 69.803Z" fill="#030505"/>
<path d="M438.485 126.426C446.539 129.491 448.763 139.289 449.966 147.644C458.982 212.321 470.222 276.698 483.747 340.593C484.588 344.44 485.369 348.407 484.708 352.254C483.807 357.664 480.02 362.353 475.692 365.899C461.446 377.681 441.37 379.724 422.676 380.746C397.911 382.068 372.786 382.429 348.562 377.14C341.95 375.697 334.616 373.232 331.851 367.222C330.048 363.375 330.589 358.987 331.13 354.779C336.961 309.697 342.791 264.676 348.682 219.594C351.567 197.534 353.491 175.174 357.278 153.294C359.382 141.092 364.611 130.994 377.715 127.748C386.01 125.704 394.485 126.906 402.84 127.327C413.419 127.928 428.567 122.639 438.485 126.426Z" fill="#3A1686"/>
<path d="M310.152 235.042C312.737 223.862 315.382 212.562 320.01 202.523C323.857 194.228 329.027 186.955 334.256 179.862C345.376 164.655 356.857 149.868 368.638 135.382C369.84 133.939 371.163 132.376 372.906 132.376C375.13 132.376 376.753 134.901 377.955 137.185C387.513 154.737 394.004 162.852 388.474 182.207C385.409 192.786 378.075 201.622 371.403 209.316C346.218 238.408 322.535 281.687 312.497 322.501C311.415 326.829 310.453 331.397 307.868 334.582C304.442 338.85 291.879 336.145 288.573 329.774C285.688 324.244 290.557 308.736 291.578 302.484C295.546 279.042 304.803 258.004 310.152 235.042Z" fill="#3A1686"/>
<path d="M484.949 179.502C499.435 200.72 507.129 226.988 510.075 253.616C513.02 280.244 515.905 308.255 513.26 335.063C513.14 335.965 513.02 336.987 512.419 337.588C511.818 338.189 510.916 338.189 510.075 338.189C507.249 338.129 498.413 337.107 492.943 336.626C490.96 336.446 489.397 334.763 489.397 332.719C489.397 313.845 488.075 294.971 485.37 276.397C483.507 263.594 481.643 250.13 474.61 239.911C464.452 225.184 451.348 219.835 440.168 206.01C431.031 194.709 427.064 179.141 426.463 163.813C426.042 152.693 428.266 113.683 445.758 131.775C459.343 145.901 473.709 163.092 484.949 179.502Z" fill="#3A1686"/>
<path d="M513.981 686.039C502.02 676.782 473.709 680.99 458.922 681.05C430.911 681.17 402.961 681.531 374.95 680.87C355.294 680.389 287.011 674.258 296.448 702.689C295.366 703.531 295.726 705.154 297.289 705.815C297.109 710.022 297.349 714.47 300.415 717.596C304.622 721.864 312.076 721.744 318.568 721.563C329.027 721.203 339.485 721.383 349.884 722.164C362.507 723.126 375.611 724.809 387.452 720.962C389.015 720.421 390.578 719.82 391.84 718.798C393.283 717.596 394.124 716.033 395.086 714.47C395.687 713.509 397.31 711.946 399.113 710.082C406.687 710.203 414.201 710.323 421.775 710.383C423.277 714.11 425.922 717.596 428.627 719.52C432.534 722.345 437.763 722.465 442.632 722.525C456.337 722.585 470.042 722.705 483.747 722.765C490.719 722.826 497.812 722.825 504.424 720.601C511.036 718.377 517.107 713.509 518.79 706.837C518.79 706.777 518.79 706.656 518.85 706.596C522.577 701.006 519.211 690.126 513.981 686.039Z" fill="#D7D7D7"/>
<path d="M270.961 674.498C271.262 666.804 272.043 658.329 276.612 653.28C280.639 648.832 286.53 648.531 291.88 648.711C293.743 648.771 295.726 648.952 297.289 650.274C298.551 651.356 299.393 653.039 300.054 654.782C303.541 664.219 302.158 675.219 301.497 685.618C300.595 699.924 301.256 714.35 301.376 728.716C301.437 734.727 301.076 741.459 297.53 745.426C294.464 748.853 289.956 748.973 285.808 748.913C282.623 748.853 279.377 748.793 276.432 747.23C272.344 744.946 271.142 741.099 271.623 735.99C272.224 729.558 271.082 722.405 270.841 715.913C270.421 702.148 270.42 688.323 270.961 674.498Z" fill="#333333"/>
<path d="M275.529 696.137C281.18 695.055 287.01 695.837 292.661 696.919C295.125 697.4 298.671 697.279 300.715 698.962C301.436 699.564 302.398 700.345 303.24 699.804C303.841 699.383 303.901 698.542 303.961 697.76C304.683 685.799 304.382 674.438 303.66 662.536C303.54 660.853 303.42 659.17 302.999 657.547C302.338 655.083 301.016 652.919 299.693 650.815C298.672 649.192 297.65 647.569 296.147 646.487C294.404 645.225 292.3 644.924 290.316 644.744C286.65 644.444 282.923 644.624 279.437 645.826C275.95 647.028 272.644 649.373 270.601 652.859C268.557 656.285 267.836 660.493 267.355 664.58C266.453 672.214 266.213 679.968 266.694 687.602C266.814 689.525 266.934 691.389 267.114 693.312C267.235 694.454 267.114 697.82 267.896 698.662C268.978 699.804 270.12 698.181 271.142 697.64C272.524 696.859 274.027 696.438 275.529 696.137Z" fill="#E8E8E8"/>
<path d="M551.069 696.919C551.249 696.979 551.429 697.099 551.549 697.28C551.73 697.52 551.73 697.88 551.73 698.241C551.73 700.285 551.79 702.268 551.73 704.312C551.73 704.613 551.73 704.913 551.61 705.154C551.489 705.575 551.129 705.815 550.768 705.935C550.408 706.055 550.047 705.995 549.626 705.995C549.506 705.995 549.326 705.935 549.205 705.815C549.145 705.695 549.145 705.574 549.145 705.454C549.085 702.87 549.085 700.285 549.085 697.76C549.085 697.46 549.085 697.099 549.266 696.859C549.566 696.498 550.708 696.799 551.069 696.919Z" fill="#333333"/>
<path d="M550.047 689.105C550.167 690.307 550.227 691.509 550.227 692.771C550.287 699.263 550.227 705.755 549.927 712.186C549.867 713.629 549.746 715.252 548.785 716.154C548.063 716.875 547.102 716.995 546.2 717.115C545.839 717.175 545.358 717.175 545.118 716.755C545.058 716.574 544.998 716.394 544.998 716.214C544.457 709.962 544.457 703.651 544.817 697.4C544.937 695.296 544.697 690.728 545.779 688.984C546.621 687.722 549.806 687.121 550.047 689.105Z" fill="#C9C9C9"/>
<path d="M545.058 674.498C544.757 666.804 543.976 658.329 539.408 653.28C535.38 648.832 529.489 648.531 524.14 648.711C522.276 648.771 520.293 648.952 518.73 650.274C517.468 651.356 516.626 653.039 515.965 654.782C512.479 664.219 513.861 675.219 514.522 685.618C515.424 699.924 514.763 714.35 514.643 728.716C514.583 734.727 514.943 741.459 518.489 745.426C521.555 748.853 526.063 748.973 530.211 748.913C533.396 748.853 536.642 748.793 539.588 747.23C543.675 744.946 544.878 741.099 544.397 735.99C543.796 729.558 544.937 722.405 545.178 715.913C545.598 702.148 545.599 688.323 545.058 674.498Z" fill="#333333"/>
<path d="M540.49 696.137C534.839 695.055 529.009 695.837 523.359 696.919C520.894 697.4 517.348 697.279 515.304 698.962C514.583 699.564 513.621 700.345 512.78 699.804C512.178 699.383 512.118 698.542 512.058 697.76C511.337 685.799 511.637 674.438 512.359 662.536C512.479 660.853 512.599 659.17 513.02 657.547C513.681 655.083 515.003 652.919 516.326 650.815C517.348 649.192 518.37 647.569 519.872 646.487C521.616 645.225 523.719 644.924 525.703 644.744C529.369 644.444 533.096 644.624 536.582 645.826C540.069 647.028 543.375 649.373 545.419 652.859C547.462 656.285 548.184 660.493 548.664 664.58C549.566 672.214 549.806 679.968 549.325 687.602C549.205 689.525 549.085 691.389 548.905 693.312C548.785 694.454 548.905 697.82 548.124 698.662C547.042 699.804 545.899 698.181 544.877 697.64C543.495 696.859 541.992 696.438 540.49 696.137Z" fill="#E8E8E8"/>
<path d="M322.234 694.815C323.677 695.536 325.3 695.716 326.923 695.837C348.382 697.46 369.901 694.094 391.42 693.793C393.644 693.733 395.988 693.733 397.971 692.711C399.955 691.689 401.398 689.225 400.556 687.181C399.654 685.017 396.949 684.356 394.545 684.116C389.797 683.635 384.988 683.515 380.239 683.394C366.955 683.094 353.671 682.793 340.387 683.214C335.398 683.394 327.223 682.372 322.835 685.318C319.77 687.361 318.267 692.771 322.234 694.815Z" fill="#333333"/>
<path d="M470.343 685.859C478.457 685.318 486.632 684.296 494.566 685.799C497.752 686.4 501.419 688.083 501.599 691.329C501.719 693.553 499.976 695.536 497.872 696.318C495.829 697.159 493.545 697.099 491.321 696.979C475.332 696.438 459.283 695.897 443.294 695.356C439.988 695.236 436.621 695.115 433.315 694.755C430.43 694.454 425.201 692.831 426.944 688.804C428.687 684.837 435.239 686.039 438.485 686.159C449.124 686.46 459.763 686.52 470.343 685.859Z" fill="#333333"/>
<path d="M335.098 665.362C336.48 662.717 338.163 660.072 340.628 658.569C343.453 656.826 350.185 657.487 353.431 657.608C357.338 657.788 361.545 658.209 364.31 661.214C366.955 664.099 367.496 668.487 367.857 672.514C368.277 677.083 368.698 681.711 369.119 686.279C369.179 686.82 369.239 687.361 369.059 687.842C368.698 688.864 367.556 689.225 366.595 689.405C357.398 691.329 347.901 691.509 338.704 689.886C326.742 687.902 331.251 672.575 335.098 665.362Z" fill="#262626"/>
<path d="M453.873 669.569C454.774 664.099 456.998 658.148 462.048 655.804C463.851 654.963 465.834 654.662 467.818 654.542C473.288 654.302 479.058 655.564 483.326 659.05C487.353 662.356 489.698 667.285 490.84 672.394C491.982 677.443 491.922 682.733 491.922 687.903C491.922 688.203 491.922 688.564 491.681 688.804C491.561 688.984 491.32 689.044 491.08 689.105C483.687 691.449 475.813 692.17 468.119 691.329C464.212 690.908 460.364 690.006 456.638 688.744C453.752 687.782 452.851 686.941 452.791 683.815C452.791 679.126 453.091 674.258 453.873 669.569Z" fill="#262626"/>
<path d="M364.431 640.597C365.753 648.892 366.174 657.247 365.813 665.662C360.403 667.405 354.633 667.586 348.983 667.766C345.196 667.886 341.229 667.946 337.743 666.504C337.442 666.383 337.081 666.203 336.901 665.903C336.721 665.662 336.72 665.301 336.72 665.001C336.54 660.433 336.3 655.864 336.119 651.296C335.999 648.952 335.879 646.548 335.819 644.203C335.699 642.099 335.098 640.837 337.322 640.597C339.365 640.416 341.95 641.258 344.054 641.438C346.278 641.619 348.562 641.739 350.786 641.739C355.294 641.679 359.863 641.318 364.431 640.597Z" fill="#262626"/>
<path d="M458.621 658.088C458.742 658.81 458.922 659.651 459.523 660.072C459.883 660.373 460.364 660.432 460.845 660.493C469.802 661.755 479.058 661.214 487.594 664.099C488.556 656.465 488.495 648.711 487.353 641.138C479.96 641.017 472.566 641.138 465.173 641.498C463.069 641.619 460.965 641.739 458.862 642.099C456.157 642.64 456.157 642.821 456.577 645.526C457.239 649.733 457.9 653.941 458.621 658.088Z" fill="#262626"/>
<path d="M387.572 174.272C387.272 191.944 386.971 209.676 387.272 227.348C387.512 240.873 388.114 254.397 387.693 267.982C387.152 286.676 384.687 305.31 380.48 323.523C379.999 325.566 379.458 327.79 377.955 329.293C375.972 331.397 372.846 331.818 369.961 332.118C356.436 333.561 342.07 334.823 329.928 328.752C329.086 328.331 328.185 327.79 327.764 327.009C327.343 326.228 327.343 325.326 327.403 324.484C327.704 320.878 329.147 317.512 330.048 314.025C332.212 305.67 331.13 296.834 332.032 288.239C332.753 281.627 334.677 275.195 336.42 268.763C346.097 233.72 352.108 197.715 354.392 161.409C354.753 155.759 354.993 149.988 356.676 144.579C358.299 139.169 361.545 133.939 366.474 131.174C369.72 129.311 373.327 125.764 377.053 125.464C380.239 125.163 386.611 123.901 388.173 127.027C389.736 130.212 388.234 141.092 388.173 144.699C387.933 154.496 387.753 164.354 387.572 174.272Z" fill="#6F5D8B"/>
<path d="M414.141 146.322C415.764 179.081 417.386 211.78 418.949 244.54C420.091 267.681 421.234 290.883 420.152 313.965C420.031 316.249 419.972 318.714 421.174 320.637C422.797 323.162 426.102 323.943 429.108 324.304C443.654 326.227 458.561 324.965 472.567 320.637C474.911 319.916 477.435 318.954 478.698 316.851C479.719 315.107 479.72 313.004 479.659 311.02C478.277 262.392 461.447 215.747 452.25 168.021C449.725 154.917 447.742 141.573 443.474 128.95C443.053 127.688 442.572 126.426 441.55 125.584C440.408 124.682 438.845 124.622 437.403 124.562C430.731 124.382 424.119 124.202 417.447 124.021C409.693 123.841 413.9 141.453 414.141 146.322Z" fill="#6F5D8B"/>
<path d="M379.338 282.769C379.698 282.769 380.059 282.769 380.359 282.528C380.66 282.288 380.66 281.867 380.66 281.446C380.66 279.703 380.6 278.02 380.6 276.277C368.338 277.599 355.955 273.211 343.633 274.414C343.393 274.414 343.152 274.474 342.972 274.654C342.732 274.834 342.731 275.195 342.731 275.495C342.731 278.561 342.431 280.184 345.496 281.086C348.863 282.047 353.25 281.687 356.737 281.927C364.25 282.348 371.824 282.769 379.338 282.769Z" fill="#1F1F1F"/>
<path d="M378.015 250.009C378.256 250.009 378.556 250.069 378.797 249.889C378.977 249.709 379.037 249.408 379.037 249.108C379.037 248.026 379.037 246.944 379.037 245.862C379.037 245.561 379.037 245.261 378.857 245.02C378.556 244.599 377.895 244.6 377.414 244.6C372.125 245.02 366.775 245.14 361.485 245.08C357.278 245.02 350.726 243.337 346.819 244.6C347.901 248.747 355.535 248.026 358.66 248.326C365.032 248.867 371.523 249.408 378.015 250.009Z" fill="#1F1F1F"/>
<path d="M465.053 273.332C465.534 273.332 466.014 273.332 466.315 273.692C466.555 273.933 466.556 274.293 466.616 274.654C466.676 275.616 466.736 276.577 466.856 277.539C466.856 277.72 466.856 277.96 466.736 278.14C466.616 278.321 466.315 278.381 466.075 278.381C454.654 279.102 443.233 279.823 431.813 280.545C431.512 280.545 431.151 280.545 430.971 280.364C430.731 280.184 430.67 279.883 430.67 279.583C430.069 274.293 441.791 275.015 445.578 274.594C452.009 273.873 458.561 273.452 465.053 273.332Z" fill="#1F1F1F"/>
<path d="M460.304 247.244C460.845 247.244 461.447 247.244 461.747 246.884C462.048 246.523 462.048 245.982 462.048 245.561C462.048 244.78 461.988 243.938 461.988 243.157C461.988 242.856 461.987 242.616 461.807 242.375C461.567 242.135 461.146 242.135 460.785 242.135C450.386 242.676 439.927 243.217 429.529 243.758C429.288 243.758 429.048 243.818 428.928 243.938C428.807 244.059 428.747 244.299 428.747 244.479C428.206 250.971 437.102 247.785 441.25 247.545C447.561 247.184 453.933 247.064 460.304 247.244Z" fill="#1F1F1F"/>
<path d="M286.289 340.413C286.229 340.834 286.109 341.255 286.229 341.615C286.349 342.036 286.71 342.276 287.07 342.517C289.475 344.2 292.48 344.801 295.366 345.222C297.65 345.522 299.934 345.763 302.218 345.823C302.639 345.823 303.06 345.823 303.42 345.582C303.721 345.342 303.901 344.921 303.961 344.56C304.683 342.036 305.163 339.451 305.524 336.867C305.584 336.205 305.704 335.544 305.344 335.003C305.103 334.582 304.683 334.282 304.202 334.102C300.355 332.058 295.846 331.938 291.699 330.856C291.098 330.675 289.235 329.774 288.754 330.014C287.972 330.375 287.912 332.118 287.792 332.839C287.371 335.364 286.83 337.888 286.289 340.413Z" fill="#3C2D67"/>
<path d="M491.741 343.419C491.681 344.26 491.621 345.222 492.102 345.943C492.523 346.544 493.184 346.845 493.845 347.145C498.053 348.768 502.681 348.828 507.189 348.828C508.332 348.828 509.594 348.768 510.375 347.927C510.916 347.326 511.036 346.424 511.157 345.583C511.277 344.08 511.337 342.517 511.397 341.014C511.397 340.173 511.397 339.211 510.976 338.49C510.435 337.408 509.233 336.867 508.151 336.446C504.364 335.003 500.337 334.342 496.31 334.523C495.528 334.583 493.965 334.402 493.244 334.823C492.463 335.244 492.583 335.725 492.463 336.686C492.102 338.85 491.922 341.134 491.741 343.419Z" fill="#3C2D67"/>
<path d="M492.883 359.347C492.763 360.249 492.643 361.211 492.943 362.112C493.184 363.014 493.965 363.856 494.927 363.856C495.227 363.856 495.588 363.795 495.889 363.976C496.129 364.156 496.25 364.457 496.31 364.757C496.851 367.582 495.648 370.648 496.73 373.353C497.932 376.298 501.539 377.56 504.664 377.14C505.927 376.959 507.189 376.599 508.211 375.877C510.976 373.894 511.277 369.987 511.156 366.56C510.916 360.489 510.074 354.418 508.632 348.528C508.512 348.047 508.391 347.566 508.091 347.145C507.79 346.725 507.249 346.484 506.769 346.304C503.402 344.981 499.615 345.102 496.009 345.282C493.725 345.402 494.206 349.069 494.025 350.812C493.605 353.697 493.244 356.522 492.883 359.347Z" fill="#67564C"/>
<path d="M284.606 353.637C283.464 357.484 282.863 361.571 282.983 365.599C283.043 369.025 283.825 372.872 286.71 374.735C288.513 375.877 290.857 375.998 292.781 375.096C294.704 374.194 296.087 372.331 296.508 370.227C296.688 369.446 296.688 368.664 296.928 367.943C297.169 367.222 297.77 366.5 298.552 366.44C298.852 366.38 299.213 366.5 299.513 366.44C300.294 366.32 300.775 365.478 301.076 364.697C302.278 361.571 302.399 358.145 302.459 354.779C302.519 352.555 302.579 350.391 302.639 348.167C302.699 346.664 302.699 344.981 301.737 343.839C300.896 342.757 299.453 342.397 298.071 342.156C296.327 341.796 294.524 341.615 292.781 341.495C291.579 341.435 289.896 341.315 288.814 341.916C287.612 342.577 287.792 343.779 287.432 345.101C286.71 347.987 285.508 350.752 284.606 353.637Z" fill="#67564C"/>
<circle cx="48.0871" cy="132.239" r="48.0871" fill="#A9B2FF"/>
<circle cx="622.127" cy="27.049" r="27.049" fill="#8CEAFF"/>
<circle cx="778.41" cy="568.029" r="81.147" fill="#8EC9FF"/>
<defs>
<linearGradient id="paint0_linear_1:47" x1="252.462" y1="745.223" x2="620.9" y2="745.223" gradientUnits="userSpaceOnUse">
<stop stop-color="#4D4D4D"/>
<stop offset="1"/>
</linearGradient>
<linearGradient id="paint1_linear_1:47" x1="252.462" y1="745.223" x2="620.9" y2="745.223" gradientUnits="userSpaceOnUse">
<stop/>
<stop offset="1"/>
</linearGradient>
</defs>
</svg>
