<svg id="eZXWVPgjfbQ1" xmlns="http://www.w3.org/2000/svg" xmlns:xlink="http://www.w3.org/1999/xlink" viewBox="0 0 235 126" shape-rendering="geometricPrecision" text-rendering="geometricPrecision"><g id="eZXWVPgjfbQ2"><path id="eZXWVPgjfbQ3" d="M23,18C23.0586,19.632,24.368,20.9414,26,21C24.368,21.0586,23.0586,22.368,23,24C22.9414,22.368,21.632,21.0586,20,21C21.632,20.9414,22.9414,19.632,23,18Z" fill="rgb(255,255,255)" stroke="none" stroke-width="1"/><path id="eZXWVPgjfbQ4" d="M201.898,116.396C202.263,114.804,201.337,113.2,199.776,112.721C201.368,113.087,202.971,112.161,203.45,110.6C203.085,112.191,204.011,113.795,205.572,114.274C203.98,113.908,202.376,114.834,201.898,116.396Z" fill="rgb(255,255,255)" stroke="none" stroke-width="1"/><path id="eZXWVPgjfbQ5" d="M41,22C41.039,23.088,41.912,23.961,43,24C41.912,24.039,41.039,24.912,41,26C40.961,24.912,40.088,24.039,39,24C40.088,23.961,40.961,23.088,41,22Z" fill="rgb(255,255,255)" stroke="none" stroke-width="1"/><path id="eZXWVPgjfbQ6" d="M185.546,107.873C185.79,106.812,185.173,105.743,184.132,105.424C185.193,105.667,186.262,105.05,186.581,104.009C186.338,105.07,186.955,106.14,187.996,106.459C186.935,106.215,185.865,106.832,185.546,107.873Z" transform="matrix(1 0 0 1 0.176 0)" fill="rgb(255,255,255)" stroke="none" stroke-width="1"/><path id="eZXWVPgjfbQ7" d="M29.5,42C29.5488,43.36,30.64,44.4512,32,44.5C30.64,44.5488,29.5488,45.64,29.5,47C29.4512,45.64,28.36,44.5488,27,44.5C28.36,44.4512,29.4512,43.36,29.5,42Z" fill="rgb(255,255,255)" stroke="none" stroke-width="1"/><path id="eZXWVPgjfbQ8" d="M201.831,91.531C202.136,90.2047,201.364,88.8683,200.063,88.4691C201.389,88.774,202.726,88.0024,203.125,86.7013C202.82,88.0276,203.592,89.3641,204.893,89.7632C203.566,89.4584,202.23,90.23,201.831,91.531Z" fill="rgb(255,255,255)" stroke="none" stroke-width="1"/><path id="eZXWVPgjfbQ9" d="M77,47C77.0586,48.632,78.368,49.9414,80,50C78.368,50.0586,77.0586,51.368,77,53C76.9414,51.368,75.632,50.0586,74,50C75.632,49.9414,76.9414,48.632,77,47Z" fill="rgb(255,255,255)" stroke="none" stroke-width="1"/><path id="eZXWVPgjfbQ10" d="M170.179,84.0853C170.545,82.4938,169.619,80.89,168.058,80.411C169.649,80.7769,171.253,79.8509,171.732,78.2897C171.366,79.8813,172.292,81.485,173.854,81.964C172.262,81.5982,170.658,82.5241,170.179,84.0853Z" fill="rgb(255,255,255)" stroke="none" stroke-width="1"/><path id="eZXWVPgjfbQ11" d="M40,69C40.0195,69.544,40.456,69.9805,41,70C40.456,70.0195,40.0195,70.456,40,71C39.9805,70.456,39.544,70.0195,39,70C39.544,69.9805,39.9805,69.544,40,69Z" fill="rgb(255,255,255)" stroke="none" stroke-width="1"/><path id="eZXWVPgjfbQ12" d="M198.677,62.7334C198.799,62.2029,198.49,61.6683,197.969,61.5086C198.5,61.6306,199.035,61.3219,199.194,60.8015C199.072,61.332,199.381,61.8666,199.901,62.0263C199.371,61.9043,198.836,62.213,198.677,62.7334Z" fill="rgb(255,255,255)" stroke="none" stroke-width="1"/><path id="eZXWVPgjfbQ13" d="M54,61C54.0195,61.544,54.456,61.9805,55,62C54.456,62.0195,54.0195,62.456,54,63C53.9805,62.456,53.544,62.0195,53,62C53.544,61.9805,53.9805,61.544,54,61Z" fill="rgb(255,255,255)" stroke="none" stroke-width="1"/><path id="eZXWVPgjfbQ14" d="M183.083,66.8373C183.205,66.3068,182.896,65.7722,182.376,65.6126C182.906,65.7345,183.441,65.4259,183.601,64.9055C183.479,65.436,183.787,65.9706,184.308,66.1302C183.777,66.0083,183.243,66.3169,183.083,66.8373Z" fill="rgb(255,255,255)" stroke="none" stroke-width="1"/><path id="eZXWVPgjfbQ15" d="M62,27C62.0195,27.544,62.456,27.9805,63,28C62.456,28.0195,62.0195,28.456,62,29C61.9805,28.456,61.544,28.0195,61,28C61.544,27.9805,61.9805,27.544,62,27Z" fill="rgb(255,255,255)" stroke="none" stroke-width="1"/><path id="eZXWVPgjfbQ16" d="M166.556,97.6082C166.678,97.0777,166.369,96.5432,165.849,96.3835C166.379,96.5054,166.914,96.1968,167.073,95.6764C166.952,96.2069,167.26,96.7415,167.781,96.9011C167.25,96.7792,166.715,97.0878,166.556,97.6082Z" fill="rgb(255,255,255)" stroke="none" stroke-width="1"/><path id="eZXWVPgjfbQ17" d="M95,23C95.0195,23.544,95.456,23.9805,96,24C95.456,24.0195,95.0195,24.456,95,25C94.9805,24.456,94.544,24.0195,94,24C94.544,23.9805,94.9805,23.544,95,23Z" fill="rgb(255,255,255)" stroke="none" stroke-width="1"/><path id="eZXWVPgjfbQ18" d="M133.645,92.9309C133.767,92.4004,133.458,91.8658,132.938,91.7062C133.468,91.8281,134.003,91.5195,134.163,90.9991C134.041,91.5296,134.349,92.0642,134.87,92.2238C134.339,92.1019,133.805,92.4105,133.645,92.9309Z" fill="rgb(255,255,255)" stroke="none" stroke-width="1"/><path id="eZXWVPgjfbQ19" d="M104,58C104.02,58.544,104.456,58.9805,105,59C104.456,59.0195,104.02,59.456,104,60C103.98,59.456,103.544,59.0195,103,59C103.544,58.9805,103.98,58.544,104,58Z" fill="rgb(255,255,255)" stroke="none" stroke-width="1"/><path id="eZXWVPgjfbQ20" d="M134.01,56.7941C134.132,56.2636,133.824,55.7291,133.303,55.5694C133.834,55.6913,134.368,55.3827,134.528,54.8623C134.406,55.3928,134.715,55.9274,135.235,56.087C134.705,55.9651,134.17,56.2737,134.01,56.7941Z" transform="matrix(1 0 0 1 0 0.095747)" fill="rgb(255,255,255)" stroke="none" stroke-width="1"/><path id="eZXWVPgjfbQ21" d="M99,78C99.0195,78.544,99.456,78.9805,100,79C99.456,79.0195,99.0195,79.456,99,80C98.9805,79.456,98.544,79.0195,98,79C98.544,78.9805,98.9805,78.544,99,78Z" fill="rgb(255,255,255)" stroke="none" stroke-width="1"/><path id="eZXWVPgjfbQ22" d="M144.016,38.7697C144.138,38.2392,143.83,37.7046,143.309,37.545C143.84,37.6669,144.374,37.3583,144.534,36.8379C144.412,37.3684,144.721,37.903,145.241,38.0626C144.711,37.9407,144.176,38.2493,144.016,38.7697Z" fill="rgb(255,255,255)" stroke="none" stroke-width="1"/><path id="eZXWVPgjfbQ23" d="M72,87C72.0195,87.544,72.456,87.9805,73,88C72.456,88.0195,72.0195,88.456,72,89C71.9805,88.456,71.544,88.0195,71,88C71.544,87.9805,71.9805,87.544,72,87Z" fill="rgb(255,255,255)" stroke="none" stroke-width="1"/><path id="eZXWVPgjfbQ24" d="M172.426,37.0645C172.548,36.534,172.239,35.9994,171.719,35.8398C172.249,35.9617,172.784,35.6531,172.943,35.1327C172.821,35.6632,173.13,36.1977,173.65,36.3574C173.12,36.2355,172.585,36.5441,172.426,37.0645Z" fill="rgb(255,255,255)" stroke="none" stroke-width="1"/><path id="eZXWVPgjfbQ25" d="M49,79C49.0195,79.544,49.456,79.9805,50,80C49.456,80.0195,49.0195,80.456,49,81C48.9805,80.456,48.544,80.0195,48,80C48.544,79.9805,48.9805,79.544,49,79Z" fill="rgb(255,255,255)" stroke="none" stroke-width="1"/><path id="eZXWVPgjfbQ26" d="M192.571,50.7448C192.693,50.2142,192.385,49.6797,191.864,49.52C192.395,49.6419,192.929,49.3333,193.089,48.8129C192.967,49.3434,193.276,49.878,193.796,50.0376C193.266,49.9157,192.731,50.2243,192.571,50.7448Z" fill="rgb(255,255,255)" stroke="none" stroke-width="1"/><path id="eZXWVPgjfbQ27" d="M5,72C5.01952,72.544,5.45601,72.9805,6,73C5.45601,73.0195,5.01952,73.456,5,74C4.98048,73.456,4.54399,73.0195,4,73C4.54399,72.9805,4.98048,72.544,5,72Z" transform="matrix(1 0 0 1 0 0.095747)" fill="rgb(255,255,255)" stroke="none" stroke-width="1"/><path id="eZXWVPgjfbQ28" d="M6,33C6.01952,33.544,6.45601,33.9805,7,34C6.45601,34.0195,6.01952,34.456,6,35C5.98048,34.456,5.54399,34.0195,5,34C5.54399,33.9805,5.98048,33.544,6,33Z" fill="rgb(255,255,255)" stroke="none" stroke-width="1"/><path id="eZXWVPgjfbQ29" d="M15,55C15.0586,56.632,16.368,57.9414,18,58C16.368,58.0586,15.0586,59.368,15,61C14.9414,59.368,13.632,58.0586,12,58C13.632,57.9414,14.9414,56.632,15,55Z" fill="rgb(255,255,255)" stroke="none" stroke-width="1"/><path id="eZXWVPgjfbQ30" d="M219.201,82.7268C219.567,81.1353,218.641,79.5316,217.08,79.0526C218.671,79.4184,220.275,78.4925,220.754,76.9313C220.388,78.5228,221.314,80.1265,222.875,80.6055C221.284,80.2397,219.68,81.1656,219.201,82.7268Z" fill="rgb(255,255,255)" stroke="none" stroke-width="1"/><path id="eZXWVPgjfbQ31" d="M75,73C75.0586,74.632,76.368,75.9414,78,76C76.368,76.0586,75.0586,77.368,75,79C74.9414,77.368,73.632,76.0586,72,76C73.632,75.9414,74.9414,74.632,75,73Z" fill="rgb(255,255,255)" stroke="none" stroke-width="1"/><path id="eZXWVPgjfbQ32" d="M165.904,49.811C166.27,48.2195,165.344,46.6157,163.783,46.1368C165.375,46.5026,166.978,45.5767,167.457,44.0155C167.092,45.607,168.017,47.2107,169.579,47.6897C167.987,47.3239,166.383,48.2498,165.904,49.811Z" fill="rgb(255,255,255)" stroke="none" stroke-width="1"/><path id="eZXWVPgjfbQ33" d="M109,39C109.059,40.632,110.368,41.9414,112,42C110.368,42.0586,109.059,43.368,109,45C108.941,43.368,107.632,42.0586,106,42C107.632,41.9414,108.941,40.632,109,39Z" fill="rgb(255,255,255)" stroke="none" stroke-width="1"/><path id="eZXWVPgjfbQ34" d="M137.647,85.7211C138.013,84.1296,137.087,82.5259,135.526,82.0469C137.118,82.4127,138.721,81.4868,139.2,79.9256C138.834,81.5171,139.76,83.1209,141.322,83.5998C139.73,83.234,138.126,84.1599,137.647,85.7211Z" fill="rgb(255,255,255)" stroke="none" stroke-width="1"/><path id="eZXWVPgjfbQ35" d="M74,16C74.039,17.088,74.912,17.961,76,18C74.912,18.039,74.039,18.912,74,20C73.961,18.912,73.088,18.039,72,18C73.088,17.961,73.961,17.088,74,16Z" fill="rgb(255,255,255)" stroke="none" stroke-width="1"/><path id="eZXWVPgjfbQ36" d="M152.118,105.128C152.362,104.067,151.744,102.997,150.703,102.678C151.764,102.922,152.834,102.305,153.153,101.264C152.909,102.325,153.526,103.394,154.567,103.713C153.506,103.47,152.437,104.087,152.118,105.128Z" fill="rgb(255,255,255)" stroke="none" stroke-width="1"/><path id="eZXWVPgjfbQ37" d="M100,4C100.059,5.63198,101.368,6.94143,103,7C101.368,7.05857,100.059,8.36802,100,10C99.9414,8.36802,98.632,7.05857,97,7C98.632,6.94143,99.9414,5.63198,100,4Z" fill="rgb(255,255,255)" stroke="none" stroke-width="1"/><path id="eZXWVPgjfbQ38" d="M123.898,109.989C124.264,108.398,123.338,106.794,121.776,106.315C123.368,106.681,124.972,105.755,125.451,104.194C125.085,105.785,126.011,107.389,127.572,107.868C125.98,107.502,124.377,108.428,123.898,109.989Z" fill="rgb(255,255,255)" stroke="none" stroke-width="1"/><path id="eZXWVPgjfbQ39" d="M91,96C91.0586,97.632,92.368,98.9414,94,99C92.368,99.0586,91.0586,100.368,91,102C90.9414,100.368,89.632,99.0586,88,99C89.632,98.9414,90.9414,97.632,91,96Z" fill="rgb(255,255,255)" stroke="none" stroke-width="1"/><path id="eZXWVPgjfbQ40" d="M156.402,23.4536C156.768,21.8621,155.842,20.2583,154.281,19.7794C155.873,20.1452,157.476,19.2193,157.955,17.6581C157.59,19.2496,158.515,20.8533,160.077,21.3323C158.485,20.9665,156.881,21.8924,156.402,23.4536Z" fill="rgb(255,255,255)" stroke="none" stroke-width="1"/><path id="eZXWVPgjfbQ41" d="M46,99C46.0586,100.632,47.368,101.941,49,102C47.368,102.059,46.0586,103.368,46,105C45.9414,103.368,44.632,102.059,43,102C44.632,101.941,45.9414,100.632,46,99Z" fill="rgb(255,255,255)" stroke="none" stroke-width="1"/><path id="eZXWVPgjfbQ42" d="M200.646,32.2027C201.011,30.6112,200.085,29.0074,198.524,28.5285C200.116,28.8943,201.72,27.9683,202.199,26.4071C201.833,27.9987,202.759,29.6024,204.32,30.0814C202.728,29.7156,201.125,30.6415,200.646,32.2027Z" fill="rgb(255,255,255)" stroke="none" stroke-width="1"/><path id="eZXWVPgjfbQ43" d="M18.5,99C18.5293,99.816,19.184,100.471,20,100.5C19.184,100.529,18.5293,101.184,18.5,102C18.4707,101.184,17.816,100.529,17,100.5C17.816,100.471,18.4707,99.816,18.5,99Z" fill="rgb(255,255,255)" stroke="none" stroke-width="1"/><path id="eZXWVPgjfbQ44" d="M227.209,39.3202C227.391,38.5245,226.928,37.7226,226.148,37.4831C226.944,37.666,227.746,37.203,227.985,36.4224C227.802,37.2182,228.265,38.0201,229.046,38.2596C228.25,38.0767,227.448,38.5396,227.209,39.3202Z" transform="matrix(1 0 0 1 0.48171 0)" fill="rgb(255,255,255)" stroke="none" stroke-width="1"/><path id="eZXWVPgjfbQ45" d="M26.5,79C26.5293,79.816,27.184,80.4707,28,80.5C27.184,80.5293,26.5293,81.184,26.5,82C26.4707,81.184,25.816,80.5293,25,80.5C25.816,80.4707,26.4707,79.816,26.5,79Z" fill="rgb(255,255,255)" stroke="none" stroke-width="1"/><path id="eZXWVPgjfbQ46" d="M214.305,56.5682C214.488,55.7724,214.025,54.9706,213.244,54.7311C214.04,54.914,214.842,54.451,215.081,53.6704C214.898,54.4662,215.361,55.268,216.142,55.5075C215.346,55.3246,214.544,55.7876,214.305,56.5682Z" fill="rgb(255,255,255)" stroke="none" stroke-width="1"/><path id="eZXWVPgjfbQ47" d="M85,59C85.039,60.088,85.912,60.961,87,61C85.912,61.039,85.039,61.912,85,63C84.961,61.912,84.088,61.039,83,61C84.088,60.961,84.961,60.088,85,59Z" fill="rgb(255,255,255)" stroke="none" stroke-width="1"/><path id="eZXWVPgjfbQ48" d="M152.622,60.7458C152.866,59.6848,152.248,58.6156,151.207,58.2963C152.269,58.5402,153.338,57.9229,153.657,56.8821C153.413,57.9431,154.03,59.0123,155.071,59.3316C154.01,59.0877,152.941,59.705,152.622,60.7458Z" fill="rgb(255,255,255)" stroke="none" stroke-width="1"/><path id="eZXWVPgjfbQ49" d="M39,10C39,10.5523,38.5523,11,38,11C37.4477,11,37,10.5523,37,10C37,9.44772,37.4477,9,38,9C38.5523,9,39,9.44772,39,10Z" fill="rgb(255,255,255)" stroke="none" stroke-width="1"/><path id="eZXWVPgjfbQ50" d="M184.372,119.982C184.515,119.448,185.063,119.132,185.597,119.275C186.13,119.418,186.447,119.966,186.304,120.499C186.161,121.033,185.613,121.35,185.079,121.207C184.546,121.064,184.229,120.515,184.372,119.982Z" fill="rgb(255,255,255)" stroke="none" stroke-width="1"/><path id="eZXWVPgjfbQ51" d="M60,33.5C60,33.7761,59.7761,34,59.5,34C59.2239,34,59,33.7761,59,33.5C59,33.2239,59.2239,33,59.5,33C59.7761,33,60,33.2239,60,33.5Z" fill="rgb(255,255,255)" stroke="none" stroke-width="1"/><path id="eZXWVPgjfbQ52" d="M170.17,91.8474C170.241,91.5806,170.516,91.4223,170.782,91.4938C171.049,91.5653,171.207,91.8395,171.136,92.1062C171.064,92.3729,170.79,92.5312,170.524,92.4597C170.257,92.3883,170.099,92.1141,170.17,91.8474Z" fill="rgb(255,255,255)" stroke="none" stroke-width="1"/><path id="eZXWVPgjfbQ53" d="M49,44C49,44.5523,48.5523,45,48,45C47.4477,45,47,44.5523,47,44C47,43.4477,47.4477,43,48,43C48.5523,43,49,43.4477,49,44Z" fill="rgb(255,255,255)" stroke="none" stroke-width="1"/><path id="eZXWVPgjfbQ54" d="M183.513,84.5522C183.656,84.0187,184.204,83.7021,184.738,83.845C185.271,83.988,185.588,84.5363,185.445,85.0698C185.302,85.6033,184.753,85.9198,184.22,85.7769C183.686,85.634,183.37,85.0856,183.513,84.5522Z" fill="rgb(255,255,255)" stroke="none" stroke-width="1"/><path id="eZXWVPgjfbQ55" d="M9,48.5C9,48.7761,8.77614,49,8.5,49C8.22386,49,8,48.7761,8,48.5C8,48.2239,8.22386,48,8.5,48C8.77614,48,9,48.2239,9,48.5Z" fill="rgb(255,255,255)" stroke="none" stroke-width="1"/><path id="eZXWVPgjfbQ56" d="M63,100C63,100.552,62.5523,101,62,101C61.4477,101,61,100.552,61,100C61,99.4477,61.4477,99,62,99C62.5523,99,63,99.4477,63,100Z" fill="rgb(255,255,255)" stroke="none" stroke-width="1"/><path id="eZXWVPgjfbQ57" d="M184.484,26.8368C184.627,26.3034,185.175,25.9868,185.708,26.1297C186.242,26.2727,186.558,26.821,186.416,27.3545C186.273,27.8879,185.724,28.2045,185.191,28.0616C184.657,27.9186,184.341,27.3703,184.484,26.8368Z" fill="rgb(255,255,255)" stroke="none" stroke-width="1"/><path id="eZXWVPgjfbQ58" d="M87,110C87,110.552,86.5523,111,86,111C85.4477,111,85,110.552,85,110C85,109.448,85.4477,109,86,109C86.5523,109,87,109.448,87,110Z" fill="rgb(255,255,255)" stroke="none" stroke-width="1"/><path id="eZXWVPgjfbQ59" d="M163.89,10.9659C164.033,10.4325,164.581,10.1159,165.114,10.2588C165.648,10.4018,165.964,10.9501,165.822,11.4836C165.679,12.017,165.13,12.3336,164.597,12.1907C164.063,12.0477,163.747,11.4994,163.89,10.9659Z" fill="rgb(255,255,255)" stroke="none" stroke-width="1"/><path id="eZXWVPgjfbQ60" d="M103,92.5C103,92.7761,102.776,93,102.5,93C102.224,93,102,92.7761,102,92.5C102,92.2239,102.224,92,102.5,92C102.776,92,103,92.2239,103,92.5Z" fill="rgb(255,255,255)" stroke="none" stroke-width="1"/><path id="eZXWVPgjfbQ61" d="M143.905,23.7285C143.977,23.4618,144.251,23.3035,144.518,23.375C144.785,23.4464,144.943,23.7206,144.871,23.9873C144.8,24.2541,144.526,24.4124,144.259,24.3409C143.992,24.2694,143.834,23.9953,143.905,23.7285Z" transform="matrix(1 0 0 1 0 0.095747)" fill="rgb(255,255,255)" stroke="none" stroke-width="1"/><path id="eZXWVPgjfbQ62" d="M77,40.5C77,40.7761,76.7761,41,76.5,41C76.2239,41,76,40.7761,76,40.5C76,40.2239,76.2239,40,76.5,40C76.7761,40,77,40.2239,77,40.5Z" transform="matrix(1 0 0 1 0 0.095747)" fill="rgb(255,255,255)" stroke="none" stroke-width="1"/><path id="eZXWVPgjfbQ63" d="M155.561,80.686C155.632,80.4192,155.907,80.2609,156.173,80.3324C156.44,80.4039,156.598,80.678,156.527,80.9448C156.455,81.2115,156.181,81.3698,155.915,81.2983C155.648,81.2269,155.49,80.9527,155.561,80.686Z" fill="rgb(255,255,255)" stroke="none" stroke-width="1"/><path id="eZXWVPgjfbQ64" d="M81,12C81,12.5523,80.5523,13,80,13C79.4477,13,79,12.5523,79,12C79,11.4477,79.4477,11,80,11C80.5523,11,81,11.4477,81,12Z" fill="rgb(255,255,255)" stroke="none" stroke-width="1"/><path id="eZXWVPgjfbQ65" d="M144.321,107.18C144.464,106.646,145.012,106.33,145.546,106.472C146.079,106.615,146.396,107.164,146.253,107.697C146.11,108.231,145.561,108.547,145.028,108.404C144.495,108.261,144.178,107.713,144.321,107.18Z" transform="matrix(1 0 0 1 0 0.095747)" fill="rgb(255,255,255)" stroke="none" stroke-width="1"/><path id="eZXWVPgjfbQ66" d="M40,115C40,115.552,39.5523,116,39,116C38.4477,116,38,115.552,38,115C38,114.448,38.4477,114,39,114C39.5523,114,40,114.448,40,115Z" fill="rgb(255,255,255)" stroke="none" stroke-width="1"/><path id="eZXWVPgjfbQ67" d="M210.582,18.3008C210.725,17.7673,211.274,17.4507,211.807,17.5937C212.34,17.7366,212.657,18.285,212.514,18.8184C212.371,19.3519,211.823,19.6685,211.289,19.5255C210.756,19.3826,210.439,18.8343,210.582,18.3008Z" fill="rgb(255,255,255)" stroke="none" stroke-width="1"/><path id="eZXWVPgjfbQ68" d="M13,87.5C13,87.7761,12.7761,88,12.5,88C12.2239,88,12,87.7761,12,87.5C12,87.2239,12.2239,87,12.5,87C12.7761,87,13,87.2239,13,87.5Z" fill="rgb(255,255,255)" stroke="none" stroke-width="1"/><path id="eZXWVPgjfbQ69" d="M229.545,51.8519C229.616,51.5851,229.89,51.4268,230.157,51.4983C230.424,51.5698,230.582,51.844,230.511,52.1107C230.439,52.3774,230.165,52.5357,229.898,52.4642C229.632,52.3928,229.473,52.1186,229.545,51.8519Z" transform="matrix(1 0 0 1 0 0.095747)" fill="rgb(255,255,255)" stroke="none" stroke-width="1"/><ellipse id="eZXWVPgjfbQ70" rx="20.5765" ry="0.39865" transform="matrix(1 0 0 1 266.512123 31.80405)" fill="rgb(210,219,237)" stroke="none" stroke-width="0"/><ellipse id="eZXWVPgjfbQ71" rx="6" ry="0.2582" transform="matrix(1 0 0 1 246.479557 16.2582)" fill="rgb(210,219,237)" stroke="none" stroke-width="0"/></g><script><![CDATA[!function(t,n){"object"==typeof exports&&"undefined"!=typeof module?module.exports=n(require("vue")):"function"==typeof define&&define.amd?define(["vue"],n):((t="undefined"!=typeof globalThis?globalThis:t||self).__SVGATOR_PLAYER__=t.__SVGATOR_PLAYER__||{},t.__SVGATOR_PLAYER__["5c7f360c"]=n())}(this,(function(){"use strict";function t(t,n){var r=Object.keys(t);if(Object.getOwnPropertySymbols){var e=Object.getOwnPropertySymbols(t);n&&(e=e.filter((function(n){return Object.getOwnPropertyDescriptor(t,n).enumerable}))),r.push.apply(r,e)}return r}function n(n){for(var r=1;r<arguments.length;r++){var e=null!=arguments[r]?arguments[r]:{};r%2?t(Object(e),!0).forEach((function(t){u(n,t,e[t])})):Object.getOwnPropertyDescriptors?Object.defineProperties(n,Object.getOwnPropertyDescriptors(e)):t(Object(e)).forEach((function(t){Object.defineProperty(n,t,Object.getOwnPropertyDescriptor(e,t))}))}return n}function r(t){return(r="function"==typeof Symbol&&"symbol"==typeof Symbol.iterator?function(t){return typeof t}:function(t){return t&&"function"==typeof Symbol&&t.constructor===Symbol&&t!==Symbol.prototype?"symbol":typeof t})(t)}function e(t,n){if(!(t instanceof n))throw new TypeError("Cannot call a class as a function")}function i(t,n){for(var r=0;r<n.length;r++){var e=n[r];e.enumerable=e.enumerable||!1,e.configurable=!0,"value"in e&&(e.writable=!0),Object.defineProperty(t,e.key,e)}}function o(t,n,r){return n&&i(t.prototype,n),r&&i(t,r),t}function u(t,n,r){return n in t?Object.defineProperty(t,n,{value:r,enumerable:!0,configurable:!0,writable:!0}):t[n]=r,t}function a(t){return(a=Object.setPrototypeOf?Object.getPrototypeOf:function(t){return t.__proto__||Object.getPrototypeOf(t)})(t)}function l(t,n){return(l=Object.setPrototypeOf||function(t,n){return t.__proto__=n,t})(t,n)}function f(t,n){if(n&&("object"==typeof n||"function"==typeof n))return n;if(void 0!==n)throw new TypeError("Derived constructors may only return object or undefined");return function(t){if(void 0===t)throw new ReferenceError("this hasn't been initialised - super() hasn't been called");return t}(t)}function s(t){var n=function(){if("undefined"==typeof Reflect||!Reflect.construct)return!1;if(Reflect.construct.sham)return!1;if("function"==typeof Proxy)return!0;try{return Boolean.prototype.valueOf.call(Reflect.construct(Boolean,[],(function(){}))),!0}catch(t){return!1}}();return function(){var r,e=a(t);if(n){var i=a(this).constructor;r=Reflect.construct(e,arguments,i)}else r=e.apply(this,arguments);return f(this,r)}}function c(t,n,r){return(c="undefined"!=typeof Reflect&&Reflect.get?Reflect.get:function(t,n,r){var e=function(t,n){for(;!Object.prototype.hasOwnProperty.call(t,n)&&null!==(t=a(t)););return t}(t,n);if(e){var i=Object.getOwnPropertyDescriptor(e,n);return i.get?i.get.call(r):i.value}})(t,n,r||t)}var h=v(Math.pow(10,-6));function v(t){var n=arguments.length>1&&void 0!==arguments[1]?arguments[1]:6;if(Number.isInteger(t))return t;var r=Math.pow(10,n);return Math.round((+t+Number.EPSILON)*r)/r}function y(t,n){var r=arguments.length>2&&void 0!==arguments[2]?arguments[2]:h;return Math.abs(t-n)<r}var g=Math.PI/180;function d(t){return t}function p(t,n,r){var e=1-r;return 3*r*e*(t*e+n*r)+r*r*r}function m(){var t=arguments.length>0&&void 0!==arguments[0]?arguments[0]:0,n=arguments.length>1&&void 0!==arguments[1]?arguments[1]:0,r=arguments.length>2&&void 0!==arguments[2]?arguments[2]:1,e=arguments.length>3&&void 0!==arguments[3]?arguments[3]:1;return t<0||t>1||r<0||r>1?null:y(t,n)&&y(r,e)?d:function(i){if(i<=0)return t>0?i*n/t:0===n&&r>0?i*e/r:0;if(i>=1)return r<1?1+(i-1)*(e-1)/(r-1):1===r&&t<1?1+(i-1)*(n-1)/(t-1):1;for(var o,u=0,a=1;u<a;){var l=p(t,r,o=(u+a)/2);if(y(i,l))break;l<i?u=o:a=o}return p(n,e,o)}}function b(){return 1}function w(t){return 1===t?1:0}function x(){var t=arguments.length>0&&void 0!==arguments[0]?arguments[0]:1,n=arguments.length>1&&void 0!==arguments[1]?arguments[1]:0;if(1===t){if(0===n)return w;if(1===n)return b}var r=1/t;return function(t){return t>=1?1:(t+=n*r)-t%r}}var A="undefined"!=typeof window&&/(Mac|iPhone|iPod|iPad)/i.test(window.navigator.platform);Object.freeze({Meta:A?"Control":"Meta",Ctrl:"Control",Down:"ArrowDown",Up:"ArrowUp",Left:"ArrowLeft",Right:"ArrowRight",Esc:"Escape",Delete:"Backspace",Space:"Space"});var k=Math.sin,_=Math.cos,S=Math.acos,O=Math.asin,j=Math.tan,P=Math.atan2,M=Math.PI/180,E=180/Math.PI,R=Math.sqrt,I=function(){function t(){var n=arguments.length>0&&void 0!==arguments[0]?arguments[0]:1,r=arguments.length>1&&void 0!==arguments[1]?arguments[1]:0,i=arguments.length>2&&void 0!==arguments[2]?arguments[2]:0,o=arguments.length>3&&void 0!==arguments[3]?arguments[3]:1,u=arguments.length>4&&void 0!==arguments[4]?arguments[4]:0,a=arguments.length>5&&void 0!==arguments[5]?arguments[5]:0;e(this,t),this.m=[n,r,i,o,u,a],this.i=null,this.w=null,this.s=null}return o(t,[{key:"determinant",get:function(){var t=this.m;return t[0]*t[3]-t[1]*t[2]}},{key:"isIdentity",get:function(){if(null===this.i){var t=this.m;this.i=1===t[0]&&0===t[1]&&0===t[2]&&1===t[3]&&0===t[4]&&0===t[5]}return this.i}},{key:"point",value:function(t,n){var r=this.m;return{x:r[0]*t+r[2]*n+r[4],y:r[1]*t+r[3]*n+r[5]}}},{key:"translateSelf",value:function(){var t=arguments.length>0&&void 0!==arguments[0]?arguments[0]:0,n=arguments.length>1&&void 0!==arguments[1]?arguments[1]:0;if(!t&&!n)return this;var r=this.m;return r[4]+=r[0]*t+r[2]*n,r[5]+=r[1]*t+r[3]*n,this.w=this.s=this.i=null,this}},{key:"rotateSelf",value:function(){var t=arguments.length>0&&void 0!==arguments[0]?arguments[0]:0;if(t%=360){var n=k(t*=M),r=_(t),e=this.m,i=e[0],o=e[1];e[0]=i*r+e[2]*n,e[1]=o*r+e[3]*n,e[2]=e[2]*r-i*n,e[3]=e[3]*r-o*n,this.w=this.s=this.i=null}return this}},{key:"scaleSelf",value:function(){var t=arguments.length>0&&void 0!==arguments[0]?arguments[0]:1,n=arguments.length>1&&void 0!==arguments[1]?arguments[1]:1;if(1!==t||1!==n){var r=this.m;r[0]*=t,r[1]*=t,r[2]*=n,r[3]*=n,this.w=this.s=this.i=null}return this}},{key:"skewSelf",value:function(t,n){if(n%=360,(t%=360)||n){var r=this.m,e=r[0],i=r[1],o=r[2],u=r[3];t&&(t=j(t*M),r[2]+=e*t,r[3]+=i*t),n&&(n=j(n*M),r[0]+=o*n,r[1]+=u*n),this.w=this.s=this.i=null}return this}},{key:"resetSelf",value:function(){var t=arguments.length>0&&void 0!==arguments[0]?arguments[0]:1,n=arguments.length>1&&void 0!==arguments[1]?arguments[1]:0,r=arguments.length>2&&void 0!==arguments[2]?arguments[2]:0,e=arguments.length>3&&void 0!==arguments[3]?arguments[3]:1,i=arguments.length>4&&void 0!==arguments[4]?arguments[4]:0,o=arguments.length>5&&void 0!==arguments[5]?arguments[5]:0,u=this.m;return u[0]=t,u[1]=n,u[2]=r,u[3]=e,u[4]=i,u[5]=o,this.w=this.s=this.i=null,this}},{key:"recomposeSelf",value:function(){var t=arguments.length>0&&void 0!==arguments[0]?arguments[0]:null,n=arguments.length>1&&void 0!==arguments[1]?arguments[1]:null,r=arguments.length>2&&void 0!==arguments[2]?arguments[2]:null,e=arguments.length>3&&void 0!==arguments[3]?arguments[3]:null,i=arguments.length>4&&void 0!==arguments[4]?arguments[4]:null;return this.isIdentity||this.resetSelf(),t&&(t.x||t.y)&&this.translateSelf(t.x,t.y),n&&this.rotateSelf(n),r&&(r.x&&this.skewSelf(r.x,0),r.y&&this.skewSelf(0,r.y)),!e||1===e.x&&1===e.y||this.scaleSelf(e.x,e.y),i&&(i.x||i.y)&&this.translateSelf(i.x,i.y),this}},{key:"decompose",value:function(){var t=arguments.length>0&&void 0!==arguments[0]?arguments[0]:0,n=arguments.length>1&&void 0!==arguments[1]?arguments[1]:0,r=this.m,e=r[0]*r[0]+r[1]*r[1],i=[[r[0],r[1]],[r[2],r[3]]],o=R(e);if(0===o)return{origin:{x:v(r[4]),y:v(r[5])},translate:{x:v(t),y:v(n)},scale:{x:0,y:0},skew:{x:0,y:0},rotate:0};i[0][0]/=o,i[0][1]/=o;var u=r[0]*r[3]-r[1]*r[2]<0;u&&(o=-o);var a=i[0][0]*i[1][0]+i[0][1]*i[1][1];i[1][0]-=i[0][0]*a,i[1][1]-=i[0][1]*a;var l=R(i[1][0]*i[1][0]+i[1][1]*i[1][1]);if(0===l)return{origin:{x:v(r[4]),y:v(r[5])},translate:{x:v(t),y:v(n)},scale:{x:v(o),y:0},skew:{x:0,y:0},rotate:0};i[1][0]/=l,i[1][1]/=l,a/=l;var f=0;return i[1][1]<0?(f=S(i[1][1])*E,i[0][1]<0&&(f=360-f)):f=O(i[0][1])*E,u&&(f=-f),a=P(a,R(i[0][0]*i[0][0]+i[0][1]*i[0][1]))*E,u&&(a=-a),{origin:{x:v(r[4]),y:v(r[5])},translate:{x:v(t),y:v(n)},scale:{x:v(o),y:v(l)},skew:{x:v(a),y:0},rotate:v(f)}}},{key:"toString",value:function(){var t=arguments.length>0&&void 0!==arguments[0]?arguments[0]:" ";return null===this.s&&(this.s="matrix("+this.m.map((function(t){return v(t)})).join(t)+")"),this.s}}]),t}();function N(t,n,r){return t>=.5?r:n}function B(t,n,r){return 0===t||n===r?n:t*(r-n)+n}function F(t,n,r){var e=B(t,n,r);return e<=0?0:e}function T(t,n,r){var e=B(t,n,r);return e<=0?0:e>=1?1:e}function q(t,n,r){return 0===t?n:1===t?r:{x:B(t,n.x,r.x),y:B(t,n.y,r.y)}}function L(t,n,r){var e=function(t,n,r){return Math.round(B(t,n,r))}(t,n,r);return e<=0?0:e>=255?255:e}function C(t,n,r){return 0===t?n:1===t?r:{r:L(t,n.r,r.r),g:L(t,n.g,r.g),b:L(t,n.b,r.b),a:B(t,null==n.a?1:n.a,null==r.a?1:r.a)}}function D(t,n){for(var r=[],e=0;e<t;e++)r.push(n);return r}function z(t,n){if(--n<=0)return t;var r=(t=Object.assign([],t)).length;do{for(var e=0;e<r;e++)t.push(t[e])}while(--n>0);return t}var V,G=function(){function t(n){e(this,t),this.list=n,this.length=n.length}return o(t,[{key:"setAttribute",value:function(t,n){for(var r=this.list,e=0;e<this.length;e++)r[e].setAttribute(t,n)}},{key:"removeAttribute",value:function(t){for(var n=this.list,r=0;r<this.length;r++)n[r].removeAttribute(t)}},{key:"style",value:function(t,n){for(var r=this.list,e=0;e<this.length;e++)r[e].style[t]=n}}]),t}(),Y=/-./g,U=function(t,n){return n.toUpperCase()};function $(t){return"function"==typeof t?t:N}function Q(t){return t?"function"==typeof t?t:Array.isArray(t)?function(t){var n=arguments.length>1&&void 0!==arguments[1]?arguments[1]:d;if(!Array.isArray(t))return n;switch(t.length){case 1:return x(t[0])||n;case 2:return x(t[0],t[1])||n;case 4:return m(t[0],t[1],t[2],t[3])||n}return n}(t,null):function(t,n){var r=arguments.length>2&&void 0!==arguments[2]?arguments[2]:d;switch(t){case"linear":return d;case"steps":return x(n.steps||1,n.jump||0)||r;case"bezier":case"cubic-bezier":return m(n.x1||0,n.y1||0,n.x2||0,n.y2||0)||r}return r}(t.type,t.value,null):null}function H(t,n,r){var e=arguments.length>3&&void 0!==arguments[3]&&arguments[3],i=n.length-1;if(t<=n[0].t)return e?[0,0,n[0].v]:n[0].v;if(t>=n[i].t)return e?[i,1,n[i].v]:n[i].v;var o,u=n[0],a=null;for(o=1;o<=i;o++){if(!(t>n[o].t)){a=n[o];break}u=n[o]}return null==a?e?[i,1,n[i].v]:n[i].v:u.t===a.t?e?[o,1,a.v]:a.v:(t=(t-u.t)/(a.t-u.t),u.e&&(t=u.e(t)),e?[o,t,r(t,u.v,a.v)]:r(t,u.v,a.v))}function J(t,n){var r=arguments.length>2&&void 0!==arguments[2]?arguments[2]:null;return t&&t.length?"function"!=typeof n?null:("function"!=typeof r&&(r=null),function(e){var i=H(e,t,n);return null!=i&&r&&(i=r(i)),i}):null}function Z(t,n){return t.t-n.t}function K(t,n,e,i,o){var u,a="@"===e[0],l="#"===e[0],f=V[e],s=N;switch(a?(u=e.substr(1),e=u.replace(Y,U)):l&&(e=e.substr(1)),r(f)){case"function":if(s=f(i,o,H,Q,e,a,n,t),l)return s;break;case"string":s=J(i,$(f));break;case"object":if((s=J(i,$(f.i),f.f))&&"function"==typeof f.u)return f.u(n,s,e,a,t)}return s?function(t,n,r){if(arguments.length>3&&void 0!==arguments[3]&&arguments[3])return t instanceof G?function(e){return t.style(n,r(e))}:function(e){return t.style[n]=r(e)};if(Array.isArray(n)){var e=n.length;return function(i){var o=r(i);if(null==o)for(var u=0;u<e;u++)t[u].removeAttribute(n);else for(var a=0;a<e;a++)t[a].setAttribute(n,o)}}return function(e){var i=r(e);null==i?t.removeAttribute(n):t.setAttribute(n,i)}}(n,e,s,a):null}function W(t,n,e,i){if(!i||"object"!==r(i))return null;var o=null,u=null;return Array.isArray(i)?u=function(t){if(!t||!t.length)return null;for(var n=0;n<t.length;n++)t[n].e&&(t[n].e=Q(t[n].e));return t.sort(Z)}(i):(u=i.keys,o=i.data||null),u?K(t,n,e,u,o):null}function X(t,n,r){if(!r)return null;var e=[];for(var i in r)if(r.hasOwnProperty(i)){var o=W(t,n,i,r[i]);o&&e.push(o)}return e.length?e:null}function tt(t,n){if(!n.duration||n.duration<0)return null;var r=function(t,n){if(!n)return null;var r=[];if(Array.isArray(n))for(var e=n.length,i=0;i<e;i++){var o=n[i];if(2===o.length){var u=null;if("string"==typeof o[0])u=t.getElementById(o[0]);else if(Array.isArray(o[0])){u=[];for(var a=0;a<o[0].length;a++)if("string"==typeof o[0][a]){var l=t.getElementById(o[0][a]);l&&u.push(l)}u=u.length?1===u.length?u[0]:new G(u):null}if(u){var f=X(t,u,o[1]);f&&(r=r.concat(f))}}}else for(var s in n)if(n.hasOwnProperty(s)){var c=t.getElementById(s);if(c){var h=X(t,c,n[s]);h&&(r=r.concat(h))}}return r.length?r:null}(t,n.elements);return r?function(t,n){var r=arguments.length>2&&void 0!==arguments[2]?arguments[2]:1/0,e=arguments.length>3&&void 0!==arguments[3]?arguments[3]:1,i=arguments.length>4&&void 0!==arguments[4]&&arguments[4],o=arguments.length>5&&void 0!==arguments[5]?arguments[5]:1,u=t.length,a=e>0?n:0;i&&r%2==0&&(a=n-a);var l=null;return function(f,s){var c=f%n,h=1+(f-c)/n;s*=e,i&&h%2==0&&(s=-s);var v=!1;if(h>r)c=a,v=!0,-1===o&&(c=e>0?0:n);else if(s<0&&(c=n-c),c===l)return!1;l=c;for(var y=0;y<u;y++)t[y](c);return v}}(r,n.duration,n.iterations||1/0,n.direction||1,!!n.alternate,n.fill||1):null}function nt(t){return+("0x"+(t.replace(/[^0-9a-fA-F]+/g,"")||27))}function rt(t,n,r){return!t||!r||n>t.length?t:t.substring(0,n)+rt(t.substring(n+1),r,r)}function et(t){var n=arguments.length>1&&void 0!==arguments[1]?arguments[1]:27;return!t||t%n?t%n:et(t/n,n)}function it(t,n,r){if(t&&t.length){var e=nt(r),i=nt(n),o=et(e)+5,u=rt(t,et(e,5),o);return u=u.replace(/\x7c$/g,"==").replace(/\x2f$/g,"="),u=function(t,n,r){var e=+("0x"+t.substring(0,4));t=t.substring(4);for(var i=n%e+r%27,o=[],u=0;u<t.length;u+=2)if("|"!==t[u]){var a=+("0x"+t[u]+t[u+1])-i;o.push(a)}else{var l=+("0x"+t.substring(u+1,u+1+4))-i;u+=3,o.push(l)}return String.fromCharCode.apply(String,o)}(u=(u=atob(u)).replace(/[\x41-\x5A]/g,""),i,e),u=JSON.parse(u)}}Number.isInteger||(Number.isInteger=function(t){return"number"==typeof t&&isFinite(t)&&Math.floor(t)===t}),Number.EPSILON||(Number.EPSILON=2220446049250313e-31);var ot=function(){function t(n,r){var i=arguments.length>2&&void 0!==arguments[2]?arguments[2]:{};e(this,t),this._id=0,this._running=!1,this._rollingBack=!1,this._animations=n,this.duration=r.duration,this.alternate=r.alternate,this.fill=r.fill,this.iterations=r.iterations,this.direction=i.direction||1,this.speed=i.speed||1,this.fps=i.fps||100,this.offset=i.offset||0,this.rollbackStartOffset=0}return o(t,[{key:"_rollback",value:function(){var t=this,n=1/0,r=null;this.rollbackStartOffset=this.offset,this._rollingBack||(this._rollingBack=!0,this._running=!0);this._id=window.requestAnimationFrame((function e(i){if(t._rollingBack){null==r&&(r=i);var o=i-r,u=t.rollbackStartOffset-o,a=Math.round(u*t.speed);if(a>t.duration&&n!=1/0){var l=!!t.alternate&&a/t.duration%2>1,f=a%t.duration;a=(f+=l?t.duration:0)||t.duration}var s=t.fps?1e3/t.fps:0,c=Math.max(0,a);if(c<n-s){t.offset=c,n=c;for(var h=t._animations,v=h.length,y=0;y<v;y++)h[y](c,t.direction)}var g=!1;if(t.iterations>0&&-1===t.fill){var d=t.iterations*t.duration,p=d==a;a=p?0:a,t.offset=p?0:t.offset,g=a>d}a>0&&t.offset>=a&&!g?t._id=window.requestAnimationFrame(e):t.stop()}}))}},{key:"_start",value:function(){var t=this,n=arguments.length>0&&void 0!==arguments[0]?arguments[0]:0,r=-1/0,e=null,i={},o=function o(u){t._running=!0,null==e&&(e=u);var a=Math.round((u-e+n)*t.speed),l=t.fps?1e3/t.fps:0;if(a>r+l&&!t._rollingBack){t.offset=a,r=a;for(var f=t._animations,s=f.length,c=0,h=0;h<s;h++)i[h]?c++:(i[h]=f[h](a,t.direction),i[h]&&c++);if(c===s)return void t._stop()}t._id=window.requestAnimationFrame(o)};this._id=window.requestAnimationFrame(o)}},{key:"_stop",value:function(){this._id&&window.cancelAnimationFrame(this._id),this._running=!1,this._rollingBack=!1}},{key:"play",value:function(){!this._rollingBack&&this._running||(this._rollingBack=!1,this.rollbackStartOffset>this.duration&&(this.offset=this.rollbackStartOffset-(this.rollbackStartOffset-this.offset)%this.duration,this.rollbackStartOffset=0),this._start(this.offset))}},{key:"stop",value:function(){this._stop(),this.offset=0,this.rollbackStartOffset=0;var t=this.direction,n=this._animations;window.requestAnimationFrame((function(){for(var r=0;r<n.length;r++)n[r](0,t)}))}},{key:"reachedToEnd",value:function(){return this.iterations>0&&this.offset>=this.iterations*this.duration}},{key:"restart",value:function(){this._stop(),this.offset=0,this._start()}},{key:"pause",value:function(){this._stop()}},{key:"reverse",value:function(){this.direction=-this.direction}}],[{key:"build",value:function(r,e){return delete r.animationSettings,r.options=it(r.options,r.root,"5c7f360c"),r.animations.map((function(t){var e=it(t.s,r.root,"5c7f360c");for(var i in delete t.s,r.animationSettings||(r.animationSettings=n({},e)),e)e.hasOwnProperty(i)&&(t[i]=e[i])})),(r=function(t,n){if(V=n,!t||!t.root||!Array.isArray(t.animations))return null;for(var r=document.getElementsByTagName("svg"),e=!1,i=0;i<r.length;i++)if(r[i].id===t.root&&!r[i].svgatorAnimation){(e=r[i]).svgatorAnimation=!0;break}if(!e)return null;var o=t.animations.map((function(t){return tt(e,t)})).filter((function(t){return!!t}));return o.length?{element:e,animations:o,animationSettings:t.animationSettings,options:t.options||void 0}:null}(r,e))?{el:r.element,options:r.options||{},player:new t(r.animations,r.animationSettings,r.options)}:null}},{key:"push",value:function(t){return this.build(t)}},{key:"init",value:function(){var t=this,n=window.__SVGATOR_PLAYER__&&window.__SVGATOR_PLAYER__["5c7f360c"];Array.isArray(n)&&n.splice(0).forEach((function(n){return t.build(n)}))}}]),t}();function ut(t){return v(t)+""}function at(t){var n=arguments.length>1&&void 0!==arguments[1]?arguments[1]:" ";return t&&t.length?t.map(ut).join(n):""}function lt(t){return t?null==t.a||t.a>=1?"rgb("+t.r+","+t.g+","+t.b+")":"rgba("+t.r+","+t.g+","+t.b+","+t.a+")":"transparent"}function ft(t){return t?"url(#"+t+")":"none"}!function(){for(var t=0,n=["ms","moz","webkit","o"],r=0;r<n.length&&!window.requestAnimationFrame;++r)window.requestAnimationFrame=window[n[r]+"RequestAnimationFrame"],window.cancelAnimationFrame=window[n[r]+"CancelAnimationFrame"]||window[n[r]+"CancelRequestAnimationFrame"];window.requestAnimationFrame||(window.requestAnimationFrame=function(n){var r=Date.now(),e=Math.max(0,16-(r-t)),i=window.setTimeout((function(){n(r+e)}),e);return t=r+e,i},window.cancelAnimationFrame=window.clearTimeout)}();var st={f:null,i:function(t,n,r){return 0===t?n:1===t?r:{x:F(t,n.x,r.x),y:F(t,n.y,r.y)}},u:function(t,n){return function(r){var e=n(r);t.setAttribute("rx",ut(e.x)),t.setAttribute("ry",ut(e.y))}}},ct={f:null,i:function(t,n,r){return 0===t?n:1===t?r:{width:F(t,n.width,r.width),height:F(t,n.height,r.height)}},u:function(t,n){return function(r){var e=n(r);t.setAttribute("width",ut(e.width)),t.setAttribute("height",ut(e.height))}}};Object.freeze({M:2,L:2,Z:0,H:1,V:1,C:6,Q:4,T:2,S:4,A:7});var ht={},vt=null;function yt(t){var n=function(){if(vt)return vt;if("object"!==("undefined"==typeof document?"undefined":r(document))||!document.createElementNS)return{};var t=document.createElementNS("http://www.w3.org/2000/svg","svg");return t&&t.style?(t.style.position="absolute",t.style.opacity="0.01",t.style.zIndex="-9999",t.style.left="-9999px",t.style.width="1px",t.style.height="1px",vt={svg:t}):{}}().svg;if(!n)return function(t){return null};var e=document.createElementNS(n.namespaceURI,"path");e.setAttributeNS(null,"d",t),e.setAttributeNS(null,"fill","none"),e.setAttributeNS(null,"stroke","none"),n.appendChild(e);var i=e.getTotalLength();return function(t){var n=e.getPointAtLength(i*t);return{x:n.x,y:n.y}}}function gt(t){return ht[t]?ht[t]:ht[t]=yt(t)}function dt(t,n,r,e){if(!t||!e)return!1;var i=["M",t.x,t.y];if(n&&r&&(i.push("C"),i.push(n.x),i.push(n.y),i.push(r.x),i.push(r.y)),n?!r:r){var o=n||r;i.push("Q"),i.push(o.x),i.push(o.y)}return n||r||i.push("L"),i.push(e.x),i.push(e.y),i.join(" ")}function pt(t,n,r,e){var i=arguments.length>4&&void 0!==arguments[4]?arguments[4]:1,o=dt(t,n,r,e),u=gt(o);try{return u(i)}catch(t){return null}}function mt(t,n,r,e){var i=1-e;return i*i*t+2*i*e*n+e*e*r}function bt(t,n,r,e){return 2*(1-e)*(n-t)+2*e*(r-n)}function wt(t,n,r,e){var i=arguments.length>4&&void 0!==arguments[4]&&arguments[4],o=pt(t,n,null,r,e);return o||(o={x:mt(t.x,n.x,r.x,e),y:mt(t.y,n.y,r.y,e)}),i&&(o.a=xt(t,n,r,e)),o}function xt(t,n,r,e){return Math.atan2(bt(t.y,n.y,r.y,e),bt(t.x,n.x,r.x,e))}function At(t,n,r,e,i){var o=i*i;return i*o*(e-t+3*(n-r))+3*o*(t+r-2*n)+3*i*(n-t)+t}function kt(t,n,r,e,i){var o=1-i;return 3*(o*o*(n-t)+2*o*i*(r-n)+i*i*(e-r))}function _t(t,n,r,e,i){var o=arguments.length>5&&void 0!==arguments[5]&&arguments[5],u=pt(t,n,r,e,i);return u||(u={x:At(t.x,n.x,r.x,e.x,i),y:At(t.y,n.y,r.y,e.y,i)}),o&&(u.a=St(t,n,r,e,i)),u}function St(t,n,r,e,i){return Math.atan2(kt(t.y,n.y,r.y,e.y,i),kt(t.x,n.x,r.x,e.x,i))}function Ot(t,n,r){return t+(n-t)*r}function jt(t,n,r){var e=arguments.length>3&&void 0!==arguments[3]&&arguments[3],i={x:Ot(t.x,n.x,r),y:Ot(t.y,n.y,r)};return e&&(i.a=Pt(t,n)),i}function Pt(t,n){return Math.atan2(n.y-t.y,n.x-t.x)}function Mt(t,n,r){var e=arguments.length>3&&void 0!==arguments[3]&&arguments[3];if(Rt(n)){if(It(r))return wt(n,r.start,r,t,e)}else if(Rt(r)){if(n.end)return wt(n,n.end,r,t,e)}else{if(n.end)return r.start?_t(n,n.end,r.start,r,t,e):wt(n,n.end,r,t,e);if(r.start)return wt(n,r.start,r,t,e)}return jt(n,r,t,e)}function Et(t,n,r){var e=Mt(t,n,r,!0);return e.a=function(t){return arguments.length>1&&void 0!==arguments[1]&&arguments[1]?t+Math.PI:t}(e.a)/g,e}function Rt(t){return!t.type||"corner"===t.type}function It(t){return null!=t.start&&!Rt(t)}var Nt=new I;var Bt={f:ut,i:B},Ft={f:ut,i:T};function Tt(t,n,r){return t.map((function(t){return function(t,n,r){var e=t.v;if(!e||"g"!==e.t||e.s||!e.v||!e.r)return t;var i=r.getElementById(e.r),o=i&&i.querySelectorAll("stop")||[];return e.s=e.v.map((function(t,n){var r=o[n]&&o[n].getAttribute("offset");return{c:t,o:r=v(parseInt(r)/100)}})),delete e.v,t}(t,0,r)}))}var qt={gt:"gradientTransform",c:{x:"cx",y:"cy"},rd:"r",f:{x:"x1",y:"y1"},to:{x:"x2",y:"y2"}};function Lt(t,n,e,i,o,u,a,l){return Tt(t,0,l),n=function(t,n,r){for(var e,i,o,u=t.length-1,a={},l=0;l<=u;l++)(e=t[l]).e&&(e.e=n(e.e)),e.v&&"g"===(i=e.v).t&&i.r&&(o=r.getElementById(i.r))&&(a[i.r]={e:o,s:o.querySelectorAll("stop")});return a}(t,i,l),function(i){var o=e(i,t,Ct);if(!o)return"none";if("c"===o.t)return lt(o.v);if("g"===o.t){if(!n[o.r])return ft(o.r);var u=n[o.r];return function(t,n){for(var r=t.s,e=r.length;e<n.length;e++){var i=r[r.length-1].cloneNode();i.id=Vt(i.id),t.e.appendChild(i),r=t.s=t.e.querySelectorAll("stop")}for(var o=0,u=r.length,a=n.length-1;o<u;o++)r[o].setAttribute("stop-color",lt(n[Math.min(o,a)].c)),r[o].setAttribute("offset",n[Math.min(o,a)].o)}(u,o.s),Object.keys(qt).forEach((function(t){if(void 0!==o[t])if("object"!==r(qt[t])){var n,e="gt"===t?(n=o[t],Array.isArray(n)?"matrix("+n.join(" ")+")":""):o[t],i=qt[t];u.e.setAttribute(i,e)}else Object.keys(qt[t]).forEach((function(n){if(void 0!==o[t][n]){var r=o[t][n],e=qt[t][n];u.e.setAttribute(e,r)}}))})),ft(o.r)}return"none"}}function Ct(t,r,e){if(0===t)return r;if(1===t)return e;if(r&&e){var i=r.t;if(i===e.t)switch(r.t){case"c":return{t:i,v:C(t,r.v,e.v)};case"g":if(r.r===e.r){var o={t:i,s:Dt(t,r.s,e.s),r:r.r};return r.gt&&e.gt&&(o.gt=function(t,n,r){var e=n.length;if(e!==r.length)return N(t,n,r);for(var i=new Array(e),o=0;o<e;o++)i[o]=B(t,n[o],r[o]);return i}(t,r.gt,e.gt)),r.c?(o.c=q(t,r.c,e.c),o.rd=F(t,r.rd,e.rd)):r.f&&(o.f=q(t,r.f,e.f),o.to=q(t,r.to,e.to)),o}}if("c"===r.t&&"g"===e.t||"c"===e.t&&"g"===r.t){var u="c"===r.t?r:e,a="g"===r.t?n({},r):n({},e),l=a.s.map((function(t){return{c:u.v,o:t.o}}));return a.s="c"===r.t?Dt(t,l,a.s):Dt(t,a.s,l),a}}return N(t,r,e)}function Dt(t,n,r){if(n.length===r.length)return n.map((function(n,e){return zt(t,n,r[e])}));for(var e=Math.max(n.length,r.length),i=[],o=0;o<e;o++){var u=zt(t,n[Math.min(o,n.length-1)],r[Math.min(o,r.length-1)]);i.push(u)}return i}function zt(t,n,r){return{o:T(t,n.o,r.o||0),c:C(t,n.c,r.c||{})}}function Vt(t){return t.replace(/-fill-([0-9]+)$/,(function(t,n){return"-fill-"+(+n+1)}))}var Gt={fill:Lt,"fill-opacity":Ft,stroke:Lt,"stroke-opacity":Ft,"stroke-width":Bt,"stroke-dashoffset":{f:ut,i:B},"stroke-dasharray":{f:function(t){var n=arguments.length>1&&void 0!==arguments[1]?arguments[1]:" ";return t&&t.length>0&&(t=t.map((function(t){return v(t,4)}))),at(t,n)},i:function(t,n,r){var e,i,o,u=n.length,a=r.length;if(u!==a)if(0===u)n=D(u=a,0);else if(0===a)a=u,r=D(u,0);else{var l=(o=(e=u)*(i=a)/function(t,n){for(var r;n;)r=n,n=t%n,t=r;return t||1}(e,i))<0?-o:o;n=z(n,Math.floor(l/u)),r=z(r,Math.floor(l/a)),u=a=l}for(var f=[],s=0;s<u;s++)f.push(v(F(t,n[s],r[s])));return f}},opacity:Ft,transform:function(t,n,e,i){if(!(t=function(t,n){if(!t||"object"!==r(t))return null;var e=!1;for(var i in t)t.hasOwnProperty(i)&&(t[i]&&t[i].length?(t[i].forEach((function(t){t.e&&(t.e=n(t.e))})),e=!0):delete t[i]);return e?t:null}(t,i)))return null;var o=function(r,i,o){var u=arguments.length>3&&void 0!==arguments[3]?arguments[3]:null;return t[r]?e(i,t[r],o):n&&n[r]?n[r]:u};return n&&n.a&&t.o?function(n){var r=e(n,t.o,Et);return Nt.recomposeSelf(r,o("r",n,B,0)+r.a,o("k",n,q),o("s",n,q),o("t",n,q)).toString()}:function(t){return Nt.recomposeSelf(o("o",t,Mt,null),o("r",t,B,0),o("k",t,q),o("s",t,q),o("t",t,q)).toString()}},r:Bt,"#size":ct,"#radius":st,_:function(t,n){if(Array.isArray(t))for(var r=0;r<t.length;r++)this[t[r]]=n;else this[t]=n}},Yt=function(t){!function(t,n){if("function"!=typeof n&&null!==n)throw new TypeError("Super expression must either be null or a function");t.prototype=Object.create(n&&n.prototype,{constructor:{value:t,writable:!0,configurable:!0}}),n&&l(t,n)}(r,t);var n=s(r);function r(){return e(this,r),n.apply(this,arguments)}return o(r,null,[{key:"build",value:function(t){var n=c(a(r),"build",this).call(this,t,Gt);if(!n)return null;n.el,n.options,function(t,n,r){t.play()}(n.player)}}]),r}(ot);return Yt.init(),Yt}));
(function(s,i,o,w){w[o]=w[o]||{};w[o][s]=w[o][s]||[];w[o][s].push(i);})('5c7f360c',{"root":"eZXWVPgjfbQ1","animations":[{"elements":{"eZXWVPgjfbQ3":{"opacity":[{"t":0,"v":1},{"t":300,"v":0.33},{"t":700,"v":1},{"t":1200,"v":0.49},{"t":1600,"v":1},{"t":2300,"v":0.31},{"t":3000,"v":1}]},"eZXWVPgjfbQ4":{"opacity":[{"t":0,"v":1},{"t":500,"v":0.63},{"t":800,"v":1},{"t":1100,"v":0.88},{"t":1600,"v":0.76},{"t":2100,"v":1},{"t":2300,"v":0.82},{"t":3000,"v":1}]},"eZXWVPgjfbQ5":{"opacity":[{"t":0,"v":1},{"t":200,"v":0.63},{"t":700,"v":1},{"t":1000,"v":0.88},{"t":1900,"v":0.76},{"t":2100,"v":1},{"t":2500,"v":0.82},{"t":3000,"v":1}]},"eZXWVPgjfbQ6":{"opacity":[{"t":0,"v":1},{"t":300,"v":0.33},{"t":700,"v":1},{"t":1200,"v":0.49},{"t":1900,"v":1},{"t":2300,"v":0.31},{"t":3000,"v":1}]},"eZXWVPgjfbQ9":{"opacity":[{"t":0,"v":1},{"t":400,"v":0.75},{"t":800,"v":1},{"t":1200,"v":0.79},{"t":1500,"v":1},{"t":1800,"v":0.8},{"t":2200,"v":1},{"t":2600,"v":0.8},{"t":3000,"v":1}]},"eZXWVPgjfbQ19":{"opacity":[{"t":0,"v":1},{"t":300,"v":0.33},{"t":600,"v":1},{"t":1300,"v":0.49},{"t":2200,"v":1},{"t":2500,"v":0.31},{"t":3000,"v":1}]},"eZXWVPgjfbQ20":{"opacity":[{"t":0,"v":1},{"t":200,"v":0.63},{"t":600,"v":1},{"t":1600,"v":0.88},{"t":1900,"v":0.76},{"t":2300,"v":1},{"t":2500,"v":0.82},{"t":3000,"v":1}]},"eZXWVPgjfbQ28":{"opacity":[{"t":0,"v":1},{"t":300,"v":0.33},{"t":800,"v":1},{"t":1100,"v":0.49},{"t":2000,"v":1},{"t":2400,"v":0.31},{"t":2900,"v":1}]},"eZXWVPgjfbQ32":{"opacity":[{"t":0,"v":1},{"t":200,"v":0.63},{"t":400,"v":1},{"t":1400,"v":0.88},{"t":1700,"v":0.76},{"t":2100,"v":1},{"t":2700,"v":0.82},{"t":3000,"v":1}]},"eZXWVPgjfbQ33":{"opacity":[{"t":0,"v":1},{"t":200,"v":0.63},{"t":400,"v":1},{"t":1600,"v":0.88},{"t":1900,"v":0.76},{"t":2100,"v":1},{"t":2500,"v":0.82},{"t":3000,"v":1}]},"eZXWVPgjfbQ35":{"opacity":[{"t":0,"v":1},{"t":100,"v":0.16},{"t":600,"v":1},{"t":700,"v":0},{"t":800,"v":1},{"t":1200,"v":0},{"t":1700,"v":1},{"t":2000,"v":0.28},{"t":2400,"v":1},{"t":2600,"v":0.9},{"t":2900,"v":1}]},"eZXWVPgjfbQ37":{"opacity":[{"t":0,"v":1},{"t":1100,"v":0.5},{"t":1500,"v":1},{"t":2600,"v":0.69},{"t":3000,"v":1}]},"eZXWVPgjfbQ38":{"opacity":[{"t":0,"v":1},{"t":200,"v":0.63},{"t":700,"v":1},{"t":1100,"v":0.88},{"t":1900,"v":0.76},{"t":2100,"v":1},{"t":2700,"v":0.82},{"t":3000,"v":1}]},"eZXWVPgjfbQ40":{"opacity":[{"t":0,"v":1},{"t":100,"v":0.16},{"t":500,"v":1},{"t":700,"v":0},{"t":1100,"v":1},{"t":1300,"v":0},{"t":1400,"v":1},{"t":2000,"v":0.28},{"t":2400,"v":1},{"t":2700,"v":0.9},{"t":2900,"v":1}]},"eZXWVPgjfbQ41":{"opacity":[{"t":0,"v":1},{"t":200,"v":0.16},{"t":400,"v":1},{"t":800,"v":0},{"t":1000,"v":1},{"t":1400,"v":0},{"t":1800,"v":1},{"t":2100,"v":0.28},{"t":2500,"v":1},{"t":2800,"v":0.9},{"t":3000,"v":1}]},"eZXWVPgjfbQ42":{"opacity":[{"t":0,"v":1},{"t":200,"v":0.63},{"t":400,"v":1},{"t":1600,"v":0.88},{"t":1900,"v":0.76},{"t":2100,"v":1},{"t":2600,"v":0.82},{"t":3000,"v":1}]},"eZXWVPgjfbQ43":{"opacity":[{"t":0,"v":1},{"t":200,"v":0.63},{"t":400,"v":1},{"t":1300,"v":0.88},{"t":1900,"v":0.76},{"t":2100,"v":1},{"t":2500,"v":0.82},{"t":3000,"v":1}]},"eZXWVPgjfbQ44":{"opacity":[{"t":0,"v":1},{"t":200,"v":0.16},{"t":400,"v":1},{"t":800,"v":0},{"t":1000,"v":1},{"t":1400,"v":0},{"t":1600,"v":1},{"t":2100,"v":0.28},{"t":2200,"v":1},{"t":2600,"v":0.9},{"t":3000,"v":1}]},"eZXWVPgjfbQ49":{"opacity":[{"t":0,"v":1},{"t":400,"v":0.63},{"t":600,"v":1},{"t":1300,"v":0.88},{"t":1900,"v":0.76},{"t":2100,"v":1},{"t":2300,"v":0.82},{"t":3000,"v":1}]},"eZXWVPgjfbQ50":{"opacity":[{"t":0,"v":1},{"t":200,"v":0.16},{"t":400,"v":1},{"t":800,"v":0},{"t":1000,"v":1},{"t":1400,"v":0},{"t":1900,"v":1},{"t":2200,"v":0.28},{"t":2300,"v":1},{"t":2800,"v":0.9},{"t":3000,"v":1}]},"eZXWVPgjfbQ52":{"opacity":[{"t":0,"v":1},{"t":300,"v":0.33},{"t":700,"v":1},{"t":1100,"v":0.49},{"t":1600,"v":1},{"t":2100,"v":0.31},{"t":3000,"v":1}]},"eZXWVPgjfbQ58":{"opacity":[{"t":0,"v":1},{"t":300,"v":0.16},{"t":600,"v":1},{"t":900,"v":0},{"t":1400,"v":1},{"t":1600,"v":0},{"t":2000,"v":1},{"t":2100,"v":0.28},{"t":2400,"v":1},{"t":2800,"v":0.9},{"t":3000,"v":1}]},"eZXWVPgjfbQ65":{"opacity":[{"t":0,"v":1},{"t":200,"v":0.16},{"t":500,"v":1},{"t":800,"v":0},{"t":1100,"v":1},{"t":1500,"v":0},{"t":1900,"v":1},{"t":2300,"v":0.28},{"t":2400,"v":1},{"t":2800,"v":0.9},{"t":3000,"v":1}]},"eZXWVPgjfbQ67":{"opacity":[{"t":0,"v":1},{"t":200,"v":0.63},{"t":400,"v":1},{"t":1600,"v":0.88},{"t":1900,"v":0.76},{"t":2400,"v":1},{"t":2600,"v":0.82},{"t":3000,"v":1}]},"eZXWVPgjfbQ68":{"opacity":[{"t":0,"v":1},{"t":300,"v":0.8},{"t":500,"v":1},{"t":700,"v":0.73},{"t":900,"v":1},{"t":1200,"v":0.81},{"t":1400,"v":1},{"t":1700,"v":0.83},{"t":1900,"v":1},{"t":2100,"v":0.8},{"t":2400,"v":1},{"t":2700,"v":0.8},{"t":3000,"v":0.83}]},"eZXWVPgjfbQ69":{"opacity":[{"t":0,"v":1},{"t":200,"v":0.63},{"t":400,"v":1},{"t":1300,"v":0.88},{"t":1900,"v":0.76},{"t":2100,"v":1},{"t":2700,"v":0.82},{"t":3000,"v":1}]},"eZXWVPgjfbQ70":{"transform":{"keys":{"o":[{"t":0,"v":{"x":266.512123,"y":31.80405,"type":"corner"}},{"t":1100,"v":{"x":-39.155062,"y":31.80405,"type":"corner"}}]}}},"eZXWVPgjfbQ71":{"transform":{"keys":{"o":[{"t":1900,"v":{"x":246.479557,"y":16.2582,"type":"corner"}},{"t":3000,"v":{"x":-24.578562,"y":16,"type":"corner"}}]}},"opacity":[{"t":1900,"v":1},{"t":3000,"v":0}]}},"s":"MBDA1MzlmNDY4ODk5OTPY4NTk4OGQ5MzkyNDYM1ZTU3NTRTNTQ1NDUwRNDY4ODhkOTY4OTg3OVTg4ZEc5MzkyNDY1ZTTU1NTA0NjhkOTg4OUcT5Njg1OTg4ZDkzOTI5ONzQ2QzVlNTQ1MDQ2OMGE4ZDkwSTkwNDY1ZTKU1NTA0Njg1OTA5ODgG5OTY5Mjg1OTg4OTQ2XNWU4YTg1OTA5Nzg5TEDUwNDY5Nzk0ODk4OTMg4NDY1ZTU1YTE/"}],"options":"MIDAxMDg4MmY4MDgxRzBZlN2Y4MTJmNDdPMmZHKNzk3YzZlNzEyZjhhH"},'__SVGATOR_PLAYER__',window)]]></script></svg>